<svg width="600" height="102" viewBox="0 0 600 102" fill="none" xmlns="http://www.w3.org/2000/svg">
<path d="M50.6 101.1V81.5C71.4 81.5 87.4 60.9 79.5 39.1C76.5 31 70.1 24.6 62 21.6C40.2 13.7 19.6 29.7 19.6 50.5L0 50.6C0 17.5 32 -8.3 66.7 2.5C81.9 7.2 93.9 19.3 98.6 34.4C109.4 69.1 83.7 101.1 50.6 101.1Z" fill="#0080FF"/>
<path fill-rule="evenodd" clip-rule="evenodd" d="M50.6 81.6H31.1V62.1H50.6V81.6Z" fill="#0080FF"/>
<path fill-rule="evenodd" clip-rule="evenodd" d="M31.1 96.6H16.1V81.6H31.1V96.6Z" fill="#0080FF"/>
<path fill-rule="evenodd" clip-rule="evenodd" d="M16.1 81.6H3.5V69H16.1V81.6Z" fill="#0080FF"/>
<path d="M180 29.2C174.2 25.2 167 23.1 158.6 23.1H140.3V81.2H158.6C167 81.2 174.2 79.1 180 74.8C183.2 72.6 185.7 69.4 187.4 65.5C189.1 61.6 190 57 190 51.8C190 46.7 189.1 42.1 187.4 38.2C185.7 34.4 183.2 31.4 180 29.2ZM151 33H156.8C163.2 33 168.5 34.3 172.5 36.7C176.9 39.4 179.2 44.5 179.2 51.8C179.2 59.4 176.9 64.7 172.5 67.6C168.7 70.1 163.4 71.4 156.9 71.4H151V33Z" fill="#0080FF"/>
<path d="M202.8 22.5C201 22.5 199.5 23.1 198.3 24.3C197.1 25.5 196.4 27 196.4 28.7C196.4 30.5 197 32 198.3 33.2C199.5 34.4 201 35.1 202.8 35.1C204.6 35.1 206.1 34.5 207.3 33.2C208.5 32 209.2 30.4 209.2 28.7C209.2 26.9 208.6 25.4 207.3 24.3C206.1 23.1 204.5 22.5 202.8 22.5Z" fill="#0080FF"/>
<path d="M207.8 40.4H197.5V81.4H207.8V40.4Z" fill="#0080FF"/>
<path d="M245.3 43.8C242.2 41 238.7 39.4 235 39.4C229.3 39.4 224.6 41.4 220.9 45.2C217.2 49 215.4 54 215.4 59.9C215.4 65.7 217.2 70.6 220.9 74.6C224.6 78.4 229.3 80.4 235 80.4C239 80.4 242.4 79.3 245.2 77.1V78C245.2 81.4 244.3 84 242.5 85.9C240.7 87.7 238.2 88.6 235.1 88.6C230.3 88.6 227.4 86.7 223.7 81.8L216.7 88.5L216.9 88.8C218.4 90.9 220.7 93 223.8 95C226.9 97 230.7 98 235.3 98C241.4 98 246.4 96.1 250 92.4C253.7 88.7 255.5 83.7 255.5 77.5V40.4H245.4V43.8H245.3ZM242.6 68C240.8 70 238.5 71 235.5 71C232.5 71 230.2 70 228.5 68C226.7 66 225.8 63.3 225.8 60C225.8 56.7 226.7 53.9 228.5 51.9C230.3 49.9 232.6 48.8 235.5 48.8C238.5 48.8 240.8 49.8 242.6 51.9C244.4 53.9 245.3 56.7 245.3 60C245.3 63.3 244.3 66 242.6 68Z" fill="#0080FF"/>
<path d="M274.5 40.4H264.2V81.4H274.5V40.4Z" fill="#0080FF"/>
<path d="M269.5 22.5C267.7 22.5 266.2 23.1 265 24.3C263.8 25.5 263.1 27 263.1 28.7C263.1 30.5 263.7 32 265 33.2C266.2 34.4 267.7 35.1 269.5 35.1C271.3 35.1 272.8 34.5 274 33.2C275.2 32 275.9 30.4 275.9 28.7C275.9 26.9 275.3 25.4 274 24.3C272.8 23.1 271.2 22.5 269.5 22.5Z" fill="#0080FF"/>
<path d="M297.1 29.3H287V40.4H281.1V49.8H287V66.8C287 72.1 288.1 75.9 290.2 78.1C292.3 80.3 296 81.4 301.3 81.4C303 81.4 304.7 81.3 306.3 81.2H306.8V71.8L303.3 72C300.8 72 299.2 71.6 298.4 70.7C297.6 69.8 297.2 68 297.2 65.3V49.8H306.8V40.4H297.2V29.3H297.1Z" fill="#0080FF"/>
<path d="M365.3 23.2H355V81.3H365.3V23.2Z" fill="#0080FF"/>
<path d="M469.4 66.7C467.6 68.8 465.7 70.6 464.2 71.5C462.8 72.4 461 72.9 458.9 72.9C455.9 72.9 453.4 71.8 451.4 69.5C449.4 67.2 448.4 64.3 448.4 60.8C448.4 57.3 449.4 54.4 451.3 52.2C453.3 49.9 455.7 48.8 458.7 48.8C462 48.8 465.5 50.9 468.5 54.4L475.3 47.9C470.9 42.1 465.2 39.4 458.4 39.4C452.7 39.4 447.8 41.5 443.8 45.5C439.8 49.5 437.8 54.7 437.8 60.8C437.8 66.9 439.8 72 443.8 76.1C447.8 80.2 452.7 82.2 458.4 82.2C465.9 82.2 471.9 79 475.9 73.1L469.4 66.7Z" fill="#0080FF"/>
<path d="M511.7 46.1C510.2 44.1 508.2 42.4 505.8 41.2C503.3 40 500.5 39.4 497.3 39.4C491.5 39.4 486.8 41.5 483.3 45.7C479.9 49.9 478.1 55 478.1 61.1C478.1 67.3 480 72.4 483.8 76.4C487.5 80.3 492.6 82.3 498.7 82.3C505.6 82.3 511.4 79.5 515.6 73.9L515.8 73.6L509.1 67.1C508.5 67.9 507.6 68.7 506.8 69.5C505.8 70.5 504.8 71.2 503.8 71.7C502.3 72.5 500.5 72.8 498.6 72.8C495.7 72.8 493.4 72 491.6 70.3C489.9 68.8 488.9 66.7 488.7 64.1H516L516.1 60.3C516.1 57.6 515.7 55.1 515 52.7C514.3 50.4 513.2 48.1 511.7 46.1ZM489.2 55.7C489.7 53.7 490.6 52.1 491.9 50.8C493.3 49.4 495.1 48.7 497.3 48.7C499.8 48.7 501.7 49.4 503 50.8C504.2 52.1 504.9 53.7 505.1 55.6H489.2V55.7Z" fill="#0080FF"/>
<path d="M551.3 43.4C548.2 40.7 543.9 39.4 538.5 39.4C535.1 39.4 531.9 40.2 529 41.6C526.3 43 523.7 45.2 522 48.2L522.1 48.3L528.7 54.6C531.4 50.3 534.4 48.8 538.4 48.8C540.6 48.8 542.3 49.4 543.7 50.5C545.1 51.6 545.7 53.1 545.7 54.9V56.9C543.1 56.1 540.6 55.7 538.1 55.7C533 55.7 528.8 56.9 525.7 59.3C522.6 61.7 521 65.2 521 69.5C521 73.3 522.3 76.5 525 78.8C527.7 81 531 82.2 534.9 82.2C538.8 82.2 542.5 80.6 545.8 77.9V81.3H555.9V55C556.1 50 554.5 46.1 551.3 43.4ZM533 65.7C534.2 64.9 535.8 64.5 537.9 64.5C540.4 64.5 543 65 545.7 66V70C543.5 72.1 540.5 73.1 536.8 73.1C535 73.1 533.6 72.7 532.7 71.9C531.8 71.1 531.3 70.2 531.3 68.9C531.3 67.5 531.9 66.5 533 65.7Z" fill="#0080FF"/>
<path d="M595.7 44.2C592.8 41 588.8 39.4 583.7 39.4C579.6 39.4 576.3 40.6 573.8 42.9V40.4H563.7V81.4H574V58.7C574 55.6 574.7 53.1 576.2 51.4C577.7 49.6 579.6 48.8 582.3 48.8C584.6 48.8 586.4 49.6 587.7 51.1C589 52.7 589.7 54.8 589.7 57.5V81.2H600V57.6C600 51.9 598.6 47.4 595.7 44.2Z" fill="#0080FF"/>
<path d="M342.1 43.4C339 40.7 334.7 39.4 329.3 39.4C325.9 39.4 322.7 40.2 319.8 41.6C317.1 43 314.5 45.2 312.8 48.2L312.9 48.3L319.5 54.6C322.2 50.3 325.2 48.8 329.2 48.8C331.4 48.8 333.1 49.4 334.5 50.5C335.9 51.6 336.5 53.1 336.5 54.9V56.9C333.9 56.1 331.4 55.7 328.9 55.7C323.8 55.7 319.6 56.9 316.5 59.3C313.4 61.7 311.8 65.2 311.8 69.5C311.8 73.3 313.1 76.5 315.8 78.8C318.5 81 321.8 82.2 325.7 82.2C329.6 82.2 333.3 80.6 336.6 77.9V81.3H346.7V55C346.8 50 345.2 46.1 342.1 43.4ZM323.8 65.7C325 64.9 326.6 64.5 328.7 64.5C331.2 64.5 333.8 65 336.5 66V70C334.3 72.1 331.3 73.1 327.6 73.1C325.8 73.1 324.4 72.7 323.5 71.9C322.6 71.1 322.1 70.2 322.1 68.9C322.1 67.5 322.6 66.5 323.8 65.7Z" fill="#0080FF"/>
<path d="M402.7 82.2C386.2 82.2 372.7 68.8 372.7 52.2C372.7 35.6 386.1 22.2 402.7 22.2C419.3 22.2 432.7 35.6 432.7 52.2C432.7 68.8 419.2 82.2 402.7 82.2ZM402.7 32.8C392 32.8 383.3 41.5 383.3 52.2C383.3 62.9 392 71.6 402.7 71.6C413.4 71.6 422.1 62.9 422.1 52.2C422.1 41.5 413.4 32.8 402.7 32.8Z" fill="#0080FF"/>
</svg>
