<svg width="20" height="20" viewBox="0 0 20 20" fill="none" xmlns="http://www.w3.org/2000/svg">
<path fill-rule="evenodd" clip-rule="evenodd" d="M18.5187 0C19.3341 0 20 0.645917 20 1.44108V18.557C20 19.3533 19.3342 20 18.5187 20H1.47625C0.661464 20 0 19.3533 0 18.557V1.44117C0 0.645833 0.661464 0 1.47625 0H18.5187ZM17.0412 17.0426V11.8075C17.0412 9.23675 16.4869 7.26042 13.4852 7.26042C12.0423 7.26042 11.0742 8.05192 10.6783 8.80233H10.6379V7.49817H7.79224V17.0427H10.7576V12.3216C10.7576 11.076 10.9931 9.87042 12.5367 9.87042C14.0566 9.87042 14.0785 11.2942 14.0785 12.4012V17.0427H17.0413L17.0412 17.0426ZM4.44834 6.19333C5.39646 6.19333 6.16717 5.42258 6.16717 4.473C6.16717 3.52442 5.39646 2.75333 4.44834 2.75333C3.49731 2.75333 2.72885 3.52442 2.72885 4.473C2.72885 5.42258 3.49731 6.19333 4.44834 6.19333ZM2.96426 17.0423H5.93193V7.49808H2.96426V17.0423V17.0423Z" fill="white"/>
</svg>
