<svg width="284" height="301" viewBox="0 0 284 301" fill="none" xmlns="http://www.w3.org/2000/svg">
<g clip-path="url(#clip0_2_123)">
<path d="M92.3 278.3H113.5V274.8H92.3V278.3Z" stroke="#0179F2" stroke-width="2" stroke-miterlimit="10" stroke-linejoin="round"/>
<path d="M95 270.5L94 274.8H111.7L110.6 270.5H95Z" stroke="#0179F2" stroke-width="2" stroke-miterlimit="10" stroke-linejoin="round"/>
<path d="M95.2 298.4H110.5L112.3 278.2H93.3L95.2 298.4Z" stroke="#0179F2" stroke-width="2" stroke-miterlimit="10" stroke-linejoin="round"/>
<path d="M149.3 271.7C153.1 273.1 155.9 278.1 155.9 278.1C155.9 278.1 150.5 280 146.7 278.6C146.5 278.5 146.4 278.5 146.3 278.4C142.2 276.6 144.5 270.3 148.8 271.5C149 271.5 149.1 271.6 149.3 271.7Z" stroke="#0179F2" stroke-width="2" stroke-miterlimit="10" stroke-linecap="round" stroke-linejoin="round"/>
<path d="M149.6 275.7L155.9 278.1" stroke="#0179F2" stroke-width="2" stroke-miterlimit="10" stroke-linecap="round" stroke-linejoin="round"/>
<path d="M163.4 267.9C163.2 272 159.2 276 159.2 276C159.2 276 155.8 271.4 156 267.3C156 267.1 156 267 156.1 266.8C156.6 262.3 163.5 262.8 163.4 267.3C163.4 267.6 163.4 267.8 163.4 267.9Z" stroke="#0179F2" stroke-width="2" stroke-miterlimit="10" stroke-linecap="round" stroke-linejoin="round"/>
<path d="M159.6 269.4L159.1 276.1" stroke="#0179F2" stroke-width="2" stroke-miterlimit="10" stroke-linecap="round" stroke-linejoin="round"/>
<path d="M145.5 265C147.7 268.5 153.1 270.2 153.1 270.2C153.1 270.2 153.9 264.5 151.8 261.1C151.7 260.9 151.6 260.9 151.6 260.7C149 257 143.2 260.6 145.4 264.6C145.4 264.8 145.5 264.9 145.5 265Z" stroke="#0179F2" stroke-width="2" stroke-miterlimit="10" stroke-linecap="round" stroke-linejoin="round"/>
<path d="M149.5 264.5L153.1 270.2" stroke="#0179F2" stroke-width="2" stroke-miterlimit="10" stroke-linecap="round" stroke-linejoin="round"/>
<path d="M128.3 274.1L138.4 299.4" stroke="#0179F2" stroke-width="2" stroke-miterlimit="10" stroke-linecap="round" stroke-linejoin="round"/>
<path d="M126.5 271.2C127.494 271.2 128.3 270.394 128.3 269.4C128.3 268.406 127.494 267.6 126.5 267.6C125.506 267.6 124.7 268.406 124.7 269.4C124.7 270.394 125.506 271.2 126.5 271.2Z" stroke="#0179F2" stroke-width="2" stroke-miterlimit="10" stroke-linecap="round" stroke-linejoin="round"/>
<path d="M132.9 275C133.894 275 134.7 274.194 134.7 273.2C134.7 272.206 133.894 271.4 132.9 271.4C131.906 271.4 131.1 272.206 131.1 273.2C131.1 274.194 131.906 275 132.9 275Z" stroke="#0179F2" stroke-width="2" stroke-miterlimit="10" stroke-linecap="round" stroke-linejoin="round"/>
<path d="M123.9 278.6C124.894 278.6 125.7 277.794 125.7 276.8C125.7 275.806 124.894 275 123.9 275C122.906 275 122.1 275.806 122.1 276.8C122.1 277.794 122.906 278.6 123.9 278.6Z" stroke="#0179F2" stroke-width="2" stroke-miterlimit="10" stroke-linecap="round" stroke-linejoin="round"/>
<path d="M135.2 280.8C136.194 280.8 137 279.994 137 279C137 278.006 136.194 277.2 135.2 277.2C134.206 277.2 133.4 278.006 133.4 279C133.4 279.994 134.206 280.8 135.2 280.8Z" stroke="#0179F2" stroke-width="2" stroke-miterlimit="10" stroke-linecap="round" stroke-linejoin="round"/>
<path d="M126.2 284.3C127.194 284.3 128 283.494 128 282.5C128 281.506 127.194 280.7 126.2 280.7C125.206 280.7 124.4 281.506 124.4 282.5C124.4 283.494 125.206 284.3 126.2 284.3Z" stroke="#0179F2" stroke-width="2" stroke-miterlimit="10" stroke-linecap="round" stroke-linejoin="round"/>
<path d="M137.4 286.5C138.394 286.5 139.2 285.694 139.2 284.7C139.2 283.706 138.394 282.9 137.4 282.9C136.406 282.9 135.6 283.706 135.6 284.7C135.6 285.694 136.406 286.5 137.4 286.5Z" stroke="#0179F2" stroke-width="2" stroke-miterlimit="10" stroke-linecap="round" stroke-linejoin="round"/>
<path d="M128.4 290.1C129.394 290.1 130.2 289.294 130.2 288.3C130.2 287.306 129.394 286.5 128.4 286.5C127.406 286.5 126.6 287.306 126.6 288.3C126.6 289.294 127.406 290.1 128.4 290.1Z" stroke="#0179F2" stroke-width="2" stroke-miterlimit="10" stroke-linecap="round" stroke-linejoin="round"/>
<path d="M107.5 242.9C116.3 247.2 119.4 258.7 119.4 258.7C119.4 258.7 108.4 263.1 99.6 258.8C99.3 258.6 99 258.5 98.7 258.3C89.4 252.9 96.6 238.4 106.5 242.5C106.8 242.6 107.2 242.7 107.5 242.9Z" stroke="#0179F2" stroke-width="2" stroke-miterlimit="10"/>
<path d="M95.7 246.9L119.4 258.6" stroke="#0179F2" stroke-width="2" stroke-miterlimit="10"/>
<path d="M99.7 242.4L101 249.6L94.6 252.9" stroke="#0179F2" stroke-width="2" stroke-miterlimit="10"/>
<path d="M103.9 241.7L105.8 251.9L96.6 256.6" stroke="#0179F2" stroke-width="2" stroke-miterlimit="10"/>
<path d="M108.1 243.2L110.2 254.1L100.3 259" stroke="#0179F2" stroke-width="2" stroke-miterlimit="10"/>
<path d="M112.5 246.6L114.2 256.1L105.6 260.5" stroke="#0179F2" stroke-width="2" stroke-miterlimit="10"/>
<path d="M185 284C181.5 291.1 172.3 293.6 172.3 293.6C172.3 293.6 168.8 284.8 172.2 277.7C172.4 277.5 172.4 277.2 172.6 276.9C176.9 269.4 188.7 275.2 185.3 283.2C185.3 283.5 185.1 283.7 185 284Z" stroke="#0179F2" stroke-width="2" stroke-miterlimit="10"/>
<path d="M181.7 274.5L172.4 293.5" stroke="#0179F2" stroke-width="2" stroke-miterlimit="10"/>
<path d="M185.3 277.8L179.7 278.8L177 273.6" stroke="#0179F2" stroke-width="2" stroke-miterlimit="10"/>
<path d="M186 281.2L177.7 282.6L174 275.2" stroke="#0179F2" stroke-width="2" stroke-miterlimit="10"/>
<path d="M184.7 284.5L176 286.1L172.1 278.2" stroke="#0179F2" stroke-width="2" stroke-miterlimit="10"/>
<path d="M182 288L174.4 289.4L170.9 282.5" stroke="#0179F2" stroke-width="2" stroke-miterlimit="10"/>
<path d="M246.5 255.9C244.5 259.1 245.8 263.4 245.8 263.4C245.8 263.4 250.3 262.6 252.2 259.5C254.2 256.3 253 251.7 253 251.7C253 251.7 248.4 252.8 246.5 255.9Z" stroke="#0179F2" stroke-width="2" stroke-miterlimit="10"/>
<path d="M249.9 256.7L245.8 263.4" stroke="#0179F2" stroke-width="2" stroke-miterlimit="10" stroke-linecap="round"/>
<path d="M127.5 261C130.1 263.6 134.6 263.4 134.6 263.4C134.6 263.4 134.8 258.9 132.2 256.3C129.6 253.7 124.8 253.7 124.8 253.7C124.8 253.7 124.8 258.4 127.5 261Z" stroke="#0179F2" stroke-width="2" stroke-miterlimit="10"/>
<path d="M129 257.9L134.5 263.4" stroke="#0179F2" stroke-width="2" stroke-miterlimit="10" stroke-linecap="round"/>
<path d="M57.1 270.4C59.2 273.5 63.6 274.2 63.6 274.2C63.6 274.2 64.8 269.8 62.7 266.7C60.6 263.6 56 262.6 56 262.6C56 262.6 55.1 267.2 57.1 270.4Z" stroke="#0179F2" stroke-width="2" stroke-miterlimit="10"/>
<path d="M59.3 267.5L63.6 274.2" stroke="#0179F2" stroke-width="2" stroke-miterlimit="10" stroke-linecap="round"/>
<path d="M266.4 239.3C266.3 243.4 262.6 247.7 262.6 247.7C262.6 247.7 259 243.2 259.1 239.2C259.1 239 259.1 238.9 259.1 238.7C259.5 234.2 266.2 234.4 266.5 238.9C266.4 239 266.4 239.1 266.4 239.3Z" stroke="#0179F2" stroke-width="2" stroke-miterlimit="10" stroke-linecap="round" stroke-linejoin="round"/>
<path d="M262.8 240.9L262.6 247.6" stroke="#0179F2" stroke-width="2" stroke-miterlimit="10" stroke-linecap="round" stroke-linejoin="round"/>
<path d="M273.4 250.3C269.5 251.4 264.3 249 264.3 249C264.3 249 267.5 244.2 271.4 243.2C271.6 243.1 271.7 243.1 271.8 243.1C276.2 242.2 278 248.7 273.8 250.2C273.7 250.3 273.6 250.3 273.4 250.3Z" stroke="#0179F2" stroke-width="2" stroke-miterlimit="10" stroke-linecap="round" stroke-linejoin="round"/>
<path d="M270.8 247.3L264.3 249.1" stroke="#0179F2" stroke-width="2" stroke-miterlimit="10" stroke-linecap="round" stroke-linejoin="round"/>
<path d="M270.7 233.4C268.2 236.6 268.2 242.2 268.2 242.2C268.2 242.2 273.8 241.1 276.4 238C276.5 237.9 276.6 237.8 276.6 237.6C279.2 233.9 273.9 229.7 270.9 233C270.8 233.2 270.7 233.3 270.7 233.4Z" stroke="#0179F2" stroke-width="2" stroke-miterlimit="10" stroke-linecap="round" stroke-linejoin="round"/>
<path d="M272.4 237.1L268.2 242.3" stroke="#0179F2" stroke-width="2" stroke-miterlimit="10" stroke-linecap="round" stroke-linejoin="round"/>
<path d="M138.1 242.4C138.928 242.4 139.6 241.728 139.6 240.9C139.6 240.072 138.928 239.4 138.1 239.4C137.272 239.4 136.6 240.072 136.6 240.9C136.6 241.728 137.272 242.4 138.1 242.4Z" stroke="#0179F2" stroke-width="2" stroke-miterlimit="10" stroke-linecap="round" stroke-linejoin="round"/>
<path d="M138.3 247.4C139.128 247.4 139.8 246.728 139.8 245.9C139.8 245.072 139.128 244.4 138.3 244.4C137.472 244.4 136.8 245.072 136.8 245.9C136.8 246.728 137.472 247.4 138.3 247.4Z" stroke="#0179F2" stroke-width="2" stroke-miterlimit="10" stroke-linecap="round" stroke-linejoin="round"/>
<path d="M132.9 242.5C133.728 242.5 134.4 241.828 134.4 241C134.4 240.172 133.728 239.5 132.9 239.5C132.072 239.5 131.4 240.172 131.4 241C131.4 241.828 132.072 242.5 132.9 242.5Z" stroke="#0179F2" stroke-width="2" stroke-miterlimit="10" stroke-linecap="round" stroke-linejoin="round"/>
<path d="M205.6 278.8C203.4 281.3 203.8 285.3 203.8 285.3C203.8 285.3 207.9 285.3 210.1 282.8C212.3 280.3 212.1 276 212.1 276C212.1 276 207.8 276.3 205.6 278.8Z" stroke="#0179F2" stroke-width="2" stroke-miterlimit="10"/>
<path d="M208.5 280.1L203.8 285.4" stroke="#0179F2" stroke-width="2" stroke-miterlimit="10" stroke-linecap="round"/>
<path d="M201.6 274.6C201.6 274.6 206.7 289.4 200 298.5" stroke="#0179F2" stroke-width="2" stroke-miterlimit="10"/>
<path d="M198.6 262.1L202.8 268.6C204.1 270.6 203.5 273.3 201.5 274.5C199.5 275.8 196.8 275.2 195.6 273.2L191.4 266.7L197.6 268.3L198.6 262.1Z" stroke="#0179F2" stroke-width="2" stroke-miterlimit="10" stroke-linecap="round" stroke-linejoin="round"/>
<path d="M194.3 264.1C195.073 264.1 195.7 263.473 195.7 262.7C195.7 261.927 195.073 261.3 194.3 261.3C193.527 261.3 192.9 261.927 192.9 262.7C192.9 263.473 193.527 264.1 194.3 264.1Z" stroke="#0179F2" stroke-width="2" stroke-miterlimit="10" stroke-linecap="round" stroke-linejoin="round"/>
<path d="M189.8 263.3C190.573 263.3 191.2 262.673 191.2 261.9C191.2 261.127 190.573 260.5 189.8 260.5C189.027 260.5 188.4 261.127 188.4 261.9C188.4 262.673 189.027 263.3 189.8 263.3Z" stroke="#0179F2" stroke-width="2" stroke-miterlimit="10" stroke-linecap="round" stroke-linejoin="round"/>
<path d="M195.3 259.5C196.073 259.5 196.7 258.873 196.7 258.1C196.7 257.327 196.073 256.7 195.3 256.7C194.527 256.7 193.9 257.327 193.9 258.1C193.9 258.873 194.527 259.5 195.3 259.5Z" stroke="#0179F2" stroke-width="2" stroke-miterlimit="10" stroke-linecap="round" stroke-linejoin="round"/>
<path d="M56.1 236.6C53.9 239.1 54.3 243.1 54.3 243.1C54.3 243.1 58.4 243.1 60.6 240.6C62.8 238.1 62.6 233.8 62.6 233.8C62.6 233.8 58.3 234 56.1 236.6Z" stroke="#0179F2" stroke-width="2" stroke-miterlimit="10"/>
<path d="M59 237.8L54.2 243.1" stroke="#0179F2" stroke-width="2" stroke-miterlimit="10" stroke-linecap="round"/>
<path d="M52.1 232.3C52.1 232.3 57.2 247.1 50.5 256.2" stroke="#0179F2" stroke-width="2" stroke-miterlimit="10"/>
<path d="M49.1 219.9L53.3 226.4C54.6 228.4 54 231.1 52 232.3C50 233.6 47.3 233 46.1 231L41.9 224.5L48.1 226.1L49.1 219.9Z" stroke="#0179F2" stroke-width="2" stroke-miterlimit="10" stroke-linecap="round" stroke-linejoin="round"/>
<path d="M44.8 221.9C45.5732 221.9 46.2 221.273 46.2 220.5C46.2 219.727 45.5732 219.1 44.8 219.1C44.0268 219.1 43.4 219.727 43.4 220.5C43.4 221.273 44.0268 221.9 44.8 221.9Z" stroke="#0179F2" stroke-width="2" stroke-miterlimit="10" stroke-linecap="round" stroke-linejoin="round"/>
<path d="M40.3 221.1C41.0732 221.1 41.7 220.473 41.7 219.7C41.7 218.927 41.0732 218.3 40.3 218.3C39.5268 218.3 38.9 218.927 38.9 219.7C38.9 220.473 39.5268 221.1 40.3 221.1Z" stroke="#0179F2" stroke-width="2" stroke-miterlimit="10" stroke-linecap="round" stroke-linejoin="round"/>
<path d="M45.8 217.2C46.5732 217.2 47.2 216.573 47.2 215.8C47.2 215.027 46.5732 214.4 45.8 214.4C45.0268 214.4 44.4 215.027 44.4 215.8C44.4 216.573 45.0268 217.2 45.8 217.2Z" stroke="#0179F2" stroke-width="2" stroke-miterlimit="10" stroke-linecap="round" stroke-linejoin="round"/>
<path d="M167.2 246.3C168.6 251.1 174 253.8 174 253.8C174 253.8 177.2 248.7 175.9 243.9C174.5 239.1 169 236 169 236C169 236 165.8 241.5 167.2 246.3Z" stroke="#0179F2" stroke-width="2" stroke-miterlimit="10"/>
<path d="M171.1 243.6L174 253.8" stroke="#0179F2" stroke-width="2" stroke-miterlimit="10" stroke-linecap="round"/>
<path d="M172.6 265.3C172.5 243.4 187.9 239.6 187.9 239.6" stroke="#0179F2" stroke-width="2" stroke-miterlimit="10" stroke-linecap="round" stroke-linejoin="round"/>
<path d="M188.8 243.5C188.1 245.1 186.1 245.8 186.1 245.8C186.1 245.8 185.2 243.9 185.9 242.3C186.6 240.7 188.7 239.8 188.7 239.8C188.7 239.8 189.5 241.9 188.8 243.5Z" stroke="#0179F2" stroke-width="2" stroke-miterlimit="10"/>
<path d="M185.2 237.1C187 237.3 188.1 239.1 188.1 239.1C188.1 239.1 186.5 240.5 184.7 240.3C182.9 240.1 181.6 238.3 181.6 238.3C181.6 238.3 183.5 236.9 185.2 237.1Z" stroke="#0179F2" stroke-width="2" stroke-miterlimit="10"/>
<path d="M200.4 235.1C201.173 235.1 201.8 234.473 201.8 233.7C201.8 232.927 201.173 232.3 200.4 232.3C199.627 232.3 199 232.927 199 233.7C199 234.473 199.627 235.1 200.4 235.1Z" stroke="#0179F2" stroke-width="2" stroke-miterlimit="10" stroke-linecap="round" stroke-linejoin="round"/>
<path d="M197.2 239C197.973 239 198.6 238.373 198.6 237.6C198.6 236.827 197.973 236.2 197.2 236.2C196.427 236.2 195.8 236.827 195.8 237.6C195.8 238.373 196.427 239 197.2 239Z" stroke="#0179F2" stroke-width="2" stroke-miterlimit="10" stroke-linecap="round" stroke-linejoin="round"/>
<path d="M195.3 234.7C196.073 234.7 196.7 234.073 196.7 233.3C196.7 232.527 196.073 231.9 195.3 231.9C194.527 231.9 193.9 232.527 193.9 233.3C193.9 234.073 194.527 234.7 195.3 234.7Z" stroke="#0179F2" stroke-width="2" stroke-miterlimit="10" stroke-linecap="round" stroke-linejoin="round"/>
<path d="M193.6 243.1C194.373 243.1 195 242.473 195 241.7C195 240.927 194.373 240.3 193.6 240.3C192.827 240.3 192.2 240.927 192.2 241.7C192.2 242.473 192.827 243.1 193.6 243.1Z" stroke="#0179F2" stroke-width="2" stroke-miterlimit="10" stroke-linecap="round" stroke-linejoin="round"/>
<path d="M191.7 238.8C192.473 238.8 193.1 238.173 193.1 237.4C193.1 236.627 192.473 236 191.7 236C190.927 236 190.3 236.627 190.3 237.4C190.3 238.173 190.927 238.8 191.7 238.8Z" stroke="#0179F2" stroke-width="2" stroke-miterlimit="10" stroke-linecap="round" stroke-linejoin="round"/>
<path d="M189.9 234.6C190.673 234.6 191.3 233.973 191.3 233.2C191.3 232.427 190.673 231.8 189.9 231.8C189.127 231.8 188.5 232.427 188.5 233.2C188.5 233.973 189.127 234.6 189.9 234.6Z" stroke="#0179F2" stroke-width="2" stroke-miterlimit="10" stroke-linecap="round" stroke-linejoin="round"/>
<path d="M76.7392 260.675L71.9694 260.138L71.6564 262.921L76.4262 263.457L76.7392 260.675Z" stroke="#0179F2" stroke-width="2" stroke-miterlimit="10"/>
<path d="M72.8325 243.91L71.0326 259.908L77.6903 260.657L79.4903 244.659L72.8325 243.91Z" stroke="#0179F2" stroke-width="2" stroke-miterlimit="10"/>
<path d="M78.4 252.6L72.1 251.9" stroke="#0179F2" stroke-width="2" stroke-miterlimit="10"/>
<path d="M77.1 247.2L77.4 244.7" stroke="#0179F2" stroke-width="2" stroke-miterlimit="10"/>
<path d="M74.4 246.9L74.7 244.4" stroke="#0179F2" stroke-width="2" stroke-miterlimit="10"/>
<path d="M77.5 273.5C75 277.3 76.5 282.7 76.5 282.7C76.5 282.7 82 281.9 84.5 278C87 274.2 85.7 268.5 85.7 268.5C85.7 268.5 80 269.6 77.5 273.5Z" stroke="#0179F2" stroke-width="2" stroke-miterlimit="10"/>
<path d="M81.7 274.5L76.5 282.6" stroke="#0179F2" stroke-width="2" stroke-miterlimit="10" stroke-linecap="round"/>
<path d="M73.9 262.4C73.9 262.4 70.3 280.5 83.6 294.9" stroke="#0179F2" stroke-width="2" stroke-miterlimit="10"/>
<path d="M224.2 259.9C226.4 262.8 231 263.2 231 263.2C231 263.2 231.8 258.7 229.6 255.8C227.4 252.9 222.7 252.3 222.7 252.3C222.7 252.3 221.9 256.9 224.2 259.9Z" stroke="#0179F2" stroke-width="2" stroke-miterlimit="10"/>
<path d="M226.2 257L230.9 263.2" stroke="#0179F2" stroke-width="2" stroke-miterlimit="10" stroke-linecap="round"/>
<path d="M229.269 249.869L234.038 249.333L233.725 246.55L228.956 247.087L229.269 249.869Z" stroke="#0179F2" stroke-width="2" stroke-miterlimit="10"/>
<path d="M226.258 231.2L228.058 247.199L234.715 246.45L232.915 230.451L226.258 231.2Z" stroke="#0179F2" stroke-width="2" stroke-miterlimit="10"/>
<path d="M227.3 239.1L233.6 238.4" stroke="#0179F2" stroke-width="2" stroke-miterlimit="10"/>
<path d="M228.5 233.7L228.2 231.2" stroke="#0179F2" stroke-width="2" stroke-miterlimit="10"/>
<path d="M231.2 233.3L230.9 230.9" stroke="#0179F2" stroke-width="2" stroke-miterlimit="10"/>
<path d="M231.8 248.9C231.8 248.9 235.4 267 222.1 281.4" stroke="#0179F2" stroke-width="2" stroke-miterlimit="10"/>
<path d="M46.6 273.7C47.4284 273.7 48.1 273.028 48.1 272.2C48.1 271.372 47.4284 270.7 46.6 270.7C45.7716 270.7 45.1 271.372 45.1 272.2C45.1 273.028 45.7716 273.7 46.6 273.7Z" stroke="#0179F2" stroke-width="2" stroke-miterlimit="10" stroke-linecap="round" stroke-linejoin="round"/>
<path d="M102.6 235.3C103.428 235.3 104.1 234.628 104.1 233.8C104.1 232.972 103.428 232.3 102.6 232.3C101.772 232.3 101.1 232.972 101.1 233.8C101.1 234.628 101.772 235.3 102.6 235.3Z" stroke="#0179F2" stroke-width="2" stroke-miterlimit="10" stroke-linecap="round" stroke-linejoin="round"/>
<path d="M208.9 256.4C209.728 256.4 210.4 255.728 210.4 254.9C210.4 254.072 209.728 253.4 208.9 253.4C208.072 253.4 207.4 254.072 207.4 254.9C207.4 255.728 208.072 256.4 208.9 256.4Z" stroke="#0179F2" stroke-width="2" stroke-miterlimit="10" stroke-linecap="round" stroke-linejoin="round"/>
<path d="M266.9 259.1C267.728 259.1 268.4 258.428 268.4 257.6C268.4 256.772 267.728 256.1 266.9 256.1C266.072 256.1 265.4 256.772 265.4 257.6C265.4 258.428 266.072 259.1 266.9 259.1Z" stroke="#0179F2" stroke-width="2" stroke-miterlimit="10" stroke-linecap="round" stroke-linejoin="round"/>
<path d="M177.3 226.9C178.128 226.9 178.8 226.228 178.8 225.4C178.8 224.572 178.128 223.9 177.3 223.9C176.472 223.9 175.8 224.572 175.8 225.4C175.8 226.228 176.472 226.9 177.3 226.9Z" stroke="#0179F2" stroke-width="2" stroke-miterlimit="10" stroke-linecap="round" stroke-linejoin="round"/>
<path d="M158.3 256.5C159.128 256.5 159.8 255.828 159.8 255C159.8 254.172 159.128 253.5 158.3 253.5C157.472 253.5 156.8 254.172 156.8 255C156.8 255.828 157.472 256.5 158.3 256.5Z" stroke="#0179F2" stroke-width="2" stroke-miterlimit="10" stroke-linecap="round" stroke-linejoin="round"/>
<path d="M33.9 297.6C37.6 297.2 40.2 293.5 40.2 293.5C40.2 293.5 36.8 290.5 33.1 290.9C29.4 291.3 26.5 295.1 26.5 295.1C26.5 295.1 30.2 298 33.9 297.6Z" stroke="#0179F2" stroke-width="2" stroke-miterlimit="10"/>
<path d="M32.5 294.4L40.2 293.5" stroke="#0179F2" stroke-width="2" stroke-miterlimit="10" stroke-linecap="round"/>
<path d="M25.4 273L27.4 276.3C27.5 276.4 27.5 276.5 27.5 276.5C27.5 276.5 27.4 276.7 27.3 276.7L23.9 278.8C23.8 278.8 23.8 278.9 23.7 278.9C23.6 278.9 23.5 278.9 23.4 278.7L21.4 275.4L25.4 273ZM25.9 270.9L19.5 274.7C19.4 274.8 19.4 274.9 19.4 274.9L22.1 279.4C22.5 280 23.1 280.3 23.7 280.3C24 280.3 24.4 280.2 24.7 280L28.1 277.9C29 277.4 29.3 276.2 28.7 275.3L26 270.8C26 271 25.9 270.9 25.9 270.9Z" fill="#0179F2"/>
<path d="M20.6 274.5L19.2 272.4L23.8 269.5L25.2 271.7" stroke="#0179F2" stroke-width="2" stroke-miterlimit="10" stroke-linecap="round" stroke-linejoin="round"/>
<path d="M45.9 297C45.9 297 33.6 290.7 25.9 278.9" stroke="#0179F2" stroke-width="2" stroke-miterlimit="10" stroke-linecap="round"/>
<path d="M248.1 227.1C249.9 230.4 254.2 231.5 254.2 231.5C254.2 231.5 255.7 227.3 254 224C252.2 220.7 247.7 219.3 247.7 219.3C247.7 219.3 246.4 223.8 248.1 227.1Z" stroke="#0179F2" stroke-width="2" stroke-miterlimit="10"/>
<path d="M250.5 224.5L254.2 231.5" stroke="#0179F2" stroke-width="2" stroke-miterlimit="10" stroke-linecap="round"/>
<path d="M267.8 210.2L265.5 213.3C265.4 213.4 265.3 213.5 265.3 213.5C265.2 213.5 265.1 213.5 265.1 213.4L261.9 211C261.8 210.9 261.8 210.9 261.8 210.8C261.8 210.7 261.7 210.6 261.9 210.5L264.2 207.4L267.8 210.2ZM269.9 209.9C269.9 209.8 269.9 209.8 269.9 209.9L263.9 205.4C263.8 205.3 263.7 205.3 263.7 205.4L260.5 209.6C260.1 210.1 260 210.8 260.3 211.4C260.5 211.7 260.6 212 260.9 212.2L264.1 214.6C264.9 215.2 266.1 215.1 266.7 214.2L269.9 210C269.9 210 269.9 209.9 269.9 209.9Z" fill="#0179F2"/>
<path d="M264.6 206.2L266.1 204.2L270.4 207.4L268.9 209.4" stroke="#0179F2" stroke-width="2" stroke-miterlimit="10" stroke-linecap="round" stroke-linejoin="round"/>
<path d="M253 238C253 238 254.4 224.2 262.6 212.8" stroke="#0179F2" stroke-width="2" stroke-miterlimit="10" stroke-linecap="round"/>
<path d="M51.4 294.4C55.7 299.3 63.6 299.4 63.6 299.4C63.6 299.4 64.5 291.5 60.2 286.6C55.9 281.7 47.6 281.1 47.6 281.1C47.6 281.1 47.1 289.5 51.4 294.4Z" stroke="#0179F2" stroke-width="2" stroke-miterlimit="10"/>
<path d="M54.5 289L63.7 299.4" stroke="#0179F2" stroke-width="2" stroke-miterlimit="10" stroke-linecap="round"/>
<path d="M270.2 284.2C266.5 284 263.3 287.1 263.3 287.1C263.3 287.1 266.1 290.6 269.8 290.9C273.5 291.1 277 288 277 288C277 288 273.9 284.5 270.2 284.2Z" stroke="#0179F2" stroke-width="2" stroke-miterlimit="10"/>
<path d="M271.1 287.6L263.3 287.1" stroke="#0179F2" stroke-width="2" stroke-miterlimit="10" stroke-linecap="round"/>
<path d="M276 268.6L280 271.1L278 274.4C277.9 274.6 277.8 274.6 277.7 274.6C277.6 274.6 277.5 274.6 277.5 274.5L274.1 272.4C273.9 272.3 273.9 272.1 274 271.9L276 268.6ZM275.5 266.5C275.4 266.5 275.4 266.5 275.3 266.6L272.6 271.1C272.1 272 272.4 273.2 273.2 273.7L276.6 275.8C276.9 276 277.2 276.1 277.6 276.1C278.2 276.1 278.8 275.8 279.2 275.2L281.9 270.7C282 270.6 281.9 270.5 281.8 270.5L275.5 266.5C275.5 266.5 275.6 266.6 275.5 266.5Z" fill="#0179F2"/>
<path d="M280.8 270.2L282.2 268L277.6 265.2L276.3 267.3" stroke="#0179F2" stroke-width="2" stroke-miterlimit="10" stroke-linecap="round" stroke-linejoin="round"/>
<path d="M255.4 292.6C255.4 292.6 267.7 286.3 275.4 274.5" stroke="#0179F2" stroke-width="2" stroke-miterlimit="10" stroke-linecap="round"/>
<path d="M247 294.2C242.7 299.1 234.8 299.2 234.8 299.2C234.8 299.2 233.9 291.3 238.2 286.4C242.5 281.5 250.8 280.9 250.8 280.9C250.8 280.9 251.3 289.3 247 294.2Z" stroke="#0179F2" stroke-width="2" stroke-miterlimit="10"/>
<path d="M243.8 288.8L234.7 299.2" stroke="#0179F2" stroke-width="2" stroke-miterlimit="10" stroke-linecap="round"/>
<path d="M15.9 243.1H37.1V239.6H16L15.9 243.1Z" stroke="#0179F2" stroke-width="2" stroke-miterlimit="10" stroke-linejoin="round"/>
<path d="M18.7 235.3L17.6 239.7H35.5L34.4 235.3H18.7Z" stroke="#0179F2" stroke-width="2" stroke-miterlimit="10" stroke-linejoin="round"/>
<path d="M18.9 263.2H34.2L36.1 243H17L18.9 263.2Z" stroke="#0179F2" stroke-width="2" stroke-miterlimit="10" stroke-linejoin="round"/>
<path d="M26.5 257.4C29.151 257.4 31.3 255.251 31.3 252.6C31.3 249.949 29.151 247.8 26.5 247.8C23.849 247.8 21.7 249.949 21.7 252.6C21.7 255.251 23.849 257.4 26.5 257.4Z" stroke="#0179F2" stroke-width="2" stroke-miterlimit="10"/>
<path d="M188.4 144.6H167.2V141.1H188.3L188.4 144.6Z" stroke="#0179F2" stroke-width="2" stroke-miterlimit="10" stroke-linejoin="round"/>
<path d="M185.7 136.7L186.7 141.1H168.9L170 136.7H185.7Z" stroke="#0179F2" stroke-width="2" stroke-miterlimit="10" stroke-linejoin="round"/>
<path d="M185.4 164.7H170.2L168.3 144.5H187.3L185.4 164.7Z" stroke="#0179F2" stroke-width="2" stroke-miterlimit="10" stroke-linejoin="round"/>
<path d="M91.2 133.5H112.4V130H91.3L91.2 133.5Z" stroke="#0179F2" stroke-width="2" stroke-miterlimit="10" stroke-linejoin="round"/>
<path d="M94 125.7L92.9 130H110.6L109.6 125.6L94 125.7Z" stroke="#0179F2" stroke-width="2" stroke-miterlimit="10" stroke-linejoin="round"/>
<path d="M94.1 153.6H109.4L111.3 133.4H92.3L94.1 153.6Z" stroke="#0179F2" stroke-width="2" stroke-miterlimit="10" stroke-linejoin="round"/>
<path d="M57.4 203.4C60.6 206.8 60 212.4 60 212.4C60 212.4 54.4 212.5 51.2 209.1C48 205.7 48.4 199.8 48.4 199.8C48.4 199.8 54.4 200 57.4 203.4Z" stroke="#0179F2" stroke-width="2" stroke-miterlimit="10"/>
<path d="M53.5 205.2L60.1 212.4" stroke="#0179F2" stroke-width="2" stroke-miterlimit="10" stroke-linecap="round"/>
<path d="M149.8 121.7C153.6 123.1 156.4 128.1 156.4 128.1C156.4 128.1 151 130 147.2 128.6C147 128.5 146.9 128.5 146.8 128.4C142.7 126.6 145 120.3 149.3 121.5C149.5 121.6 149.6 121.7 149.8 121.7Z" stroke="#0179F2" stroke-width="2" stroke-miterlimit="10" stroke-linecap="round" stroke-linejoin="round"/>
<path d="M150.1 125.7L156.4 128" stroke="#0179F2" stroke-width="2" stroke-miterlimit="10" stroke-linecap="round" stroke-linejoin="round"/>
<path d="M163.8 118C163.6 122.1 159.6 126.1 159.6 126.1C159.6 126.1 156.2 121.5 156.4 117.4C156.4 117.2 156.4 117.1 156.5 116.9C157 112.4 163.9 112.9 163.8 117.4C163.8 117.7 163.8 117.8 163.8 118Z" stroke="#0179F2" stroke-width="2" stroke-miterlimit="10" stroke-linecap="round" stroke-linejoin="round"/>
<path d="M160.1 119.4L159.6 126.1" stroke="#0179F2" stroke-width="2" stroke-miterlimit="10" stroke-linecap="round" stroke-linejoin="round"/>
<path d="M146 115C148.2 118.5 153.6 120.2 153.6 120.2C153.6 120.2 154.4 114.5 152.3 111.1C152.2 110.9 152.1 110.9 152.1 110.7C149.5 107 143.7 110.6 145.9 114.6C145.8 114.7 145.9 114.9 146 115Z" stroke="#0179F2" stroke-width="2" stroke-miterlimit="10" stroke-linecap="round" stroke-linejoin="round"/>
<path d="M150 114.5L153.5 120.3" stroke="#0179F2" stroke-width="2" stroke-miterlimit="10" stroke-linecap="round" stroke-linejoin="round"/>
<path d="M128.2 130.1L138.3 155.3" stroke="#0179F2" stroke-width="2" stroke-miterlimit="10" stroke-linecap="round" stroke-linejoin="round"/>
<path d="M126.5 127.1C127.494 127.1 128.3 126.294 128.3 125.3C128.3 124.306 127.494 123.5 126.5 123.5C125.506 123.5 124.7 124.306 124.7 125.3C124.7 126.294 125.506 127.1 126.5 127.1Z" stroke="#0179F2" stroke-width="2" stroke-miterlimit="10" stroke-linecap="round" stroke-linejoin="round"/>
<path d="M132.9 131C133.894 131 134.7 130.194 134.7 129.2C134.7 128.206 133.894 127.4 132.9 127.4C131.906 127.4 131.1 128.206 131.1 129.2C131.1 130.194 131.906 131 132.9 131Z" stroke="#0179F2" stroke-width="2" stroke-miterlimit="10" stroke-linecap="round" stroke-linejoin="round"/>
<path d="M123.9 134.6C124.894 134.6 125.7 133.794 125.7 132.8C125.7 131.806 124.894 131 123.9 131C122.906 131 122.1 131.806 122.1 132.8C122.1 133.794 122.906 134.6 123.9 134.6Z" stroke="#0179F2" stroke-width="2" stroke-miterlimit="10" stroke-linecap="round" stroke-linejoin="round"/>
<path d="M135.1 136.8C136.094 136.8 136.9 135.994 136.9 135C136.9 134.006 136.094 133.2 135.1 133.2C134.106 133.2 133.3 134.006 133.3 135C133.3 135.994 134.106 136.8 135.1 136.8Z" stroke="#0179F2" stroke-width="2" stroke-miterlimit="10" stroke-linecap="round" stroke-linejoin="round"/>
<path d="M126.2 140.3C127.194 140.3 128 139.494 128 138.5C128 137.506 127.194 136.7 126.2 136.7C125.206 136.7 124.4 137.506 124.4 138.5C124.4 139.494 125.206 140.3 126.2 140.3Z" stroke="#0179F2" stroke-width="2" stroke-miterlimit="10" stroke-linecap="round" stroke-linejoin="round"/>
<path d="M137.3 142.4C138.294 142.4 139.1 141.594 139.1 140.6C139.1 139.606 138.294 138.8 137.3 138.8C136.306 138.8 135.5 139.606 135.5 140.6C135.5 141.594 136.306 142.4 137.3 142.4Z" stroke="#0179F2" stroke-width="2" stroke-miterlimit="10" stroke-linecap="round" stroke-linejoin="round"/>
<path d="M128.4 146.1C129.394 146.1 130.2 145.294 130.2 144.3C130.2 143.306 129.394 142.5 128.4 142.5C127.406 142.5 126.6 143.306 126.6 144.3C126.6 145.294 127.406 146.1 128.4 146.1Z" stroke="#0179F2" stroke-width="2" stroke-miterlimit="10" stroke-linecap="round" stroke-linejoin="round"/>
<path d="M107.9 96C116.7 100.3 119.8 111.8 119.8 111.8C119.8 111.8 108.8 116.2 100 111.9C99.7 111.7 99.4 111.6 99.1 111.4C89.8 106 97 91.5 106.9 95.6C107.3 95.7 107.6 95.8 107.9 96Z" stroke="#0179F2" stroke-width="2" stroke-miterlimit="10"/>
<path d="M96.2 100L119.9 111.7" stroke="#0179F2" stroke-width="2" stroke-miterlimit="10"/>
<path d="M100.2 95.5L101.5 102.7L95 106" stroke="#0179F2" stroke-width="2" stroke-miterlimit="10"/>
<path d="M104.3 94.8L106.3 105L97 109.7" stroke="#0179F2" stroke-width="2" stroke-miterlimit="10"/>
<path d="M108.6 96.3L110.6 107.1L100.7 112.1" stroke="#0179F2" stroke-width="2" stroke-miterlimit="10"/>
<path d="M112.9 99.7L114.6 109.1L106.1 113.5" stroke="#0179F2" stroke-width="2" stroke-miterlimit="10"/>
<path d="M232.6 196.3C226.1 200.5 224.6 209.7 224.6 209.7C224.6 209.7 233.7 212.2 240.1 208.1C240.3 207.9 240.6 207.8 240.8 207.6C247.6 202.6 240.7 191.8 233.3 195.8C233.1 196 232.9 196.1 232.6 196.3Z" stroke="#0179F2" stroke-width="2" stroke-miterlimit="10"/>
<path d="M242.2 198.5L224.6 209.7" stroke="#0179F2" stroke-width="2" stroke-miterlimit="10"/>
<path d="M238.6 195.3L238.2 201.1L243.6 203.1" stroke="#0179F2" stroke-width="2" stroke-miterlimit="10"/>
<path d="M235.3 195.1L234.7 203.3L242.4 206.1" stroke="#0179F2" stroke-width="2" stroke-miterlimit="10"/>
<path d="M232.2 196.6L231.5 205.4L239.6 208.4" stroke="#0179F2" stroke-width="2" stroke-miterlimit="10"/>
<path d="M229 199.7L228.5 207.3L235.5 210" stroke="#0179F2" stroke-width="2" stroke-miterlimit="10"/>
<path d="M255.2 190.7C253.7 194.1 255.5 198.2 255.5 198.2C255.5 198.2 259.8 196.8 261.3 193.4C262.8 190 261.1 185.6 261.1 185.6C261.1 185.6 256.8 187.3 255.2 190.7Z" stroke="#0179F2" stroke-width="2" stroke-miterlimit="10"/>
<path d="M258.8 191.1L255.5 198.2" stroke="#0179F2" stroke-width="2" stroke-miterlimit="10" stroke-linecap="round"/>
<path d="M246.9 105.9C244.9 109.1 246.2 113.4 246.2 113.4C246.2 113.4 250.7 112.6 252.6 109.5C254.5 106.4 253.4 101.7 253.4 101.7C253.4 101.7 248.8 102.8 246.9 105.9Z" stroke="#0179F2" stroke-width="2" stroke-miterlimit="10"/>
<path d="M250.4 106.7L246.2 113.4" stroke="#0179F2" stroke-width="2" stroke-miterlimit="10" stroke-linecap="round"/>
<path d="M127.9 111.1C130.5 113.7 135 113.5 135 113.5C135 113.5 135.2 109 132.6 106.4C130 103.8 125.2 103.8 125.2 103.8C125.2 103.8 125.2 108.4 127.9 111.1Z" stroke="#0179F2" stroke-width="2" stroke-miterlimit="10"/>
<path d="M129.5 107.8L135 113.4" stroke="#0179F2" stroke-width="2" stroke-miterlimit="10" stroke-linecap="round"/>
<path d="M57.5 120.4C59.6 123.5 64 124.2 64 124.2C64 124.2 65.2 119.8 63.1 116.7C61 113.6 56.4 112.6 56.4 112.6C56.4 112.6 55.5 117.3 57.5 120.4Z" stroke="#0179F2" stroke-width="2" stroke-miterlimit="10"/>
<path d="M59.8 117.6L64.1 124.1" stroke="#0179F2" stroke-width="2" stroke-miterlimit="10" stroke-linecap="round"/>
<path d="M149.4 159.7C147.9 163.1 149.7 167.2 149.7 167.2C149.7 167.2 154 165.8 155.5 162.4C157 159 155.3 154.6 155.3 154.6C155.3 154.6 150.8 156.3 149.4 159.7Z" stroke="#0179F2" stroke-width="2" stroke-miterlimit="10"/>
<path d="M152.8 160L149.7 167.2" stroke="#0179F2" stroke-width="2" stroke-miterlimit="10" stroke-linecap="round"/>
<path d="M155.7 229.9C151.4 231.7 146.3 229.2 146.3 229.2C146.3 229.2 148.1 223.9 152.4 222.1C156.7 220.3 162.1 222.6 162.1 222.6C162.1 222.6 159.9 228.1 155.7 229.9Z" stroke="#0179F2" stroke-width="2" stroke-miterlimit="10"/>
<path d="M155.4 225.4L146.3 229.2" stroke="#0179F2" stroke-width="2" stroke-miterlimit="10" stroke-linecap="round"/>
<path d="M271.5 92.4C271.4 96.5 267.7 100.8 267.7 100.8C267.7 100.8 264.1 96.3 264.2 92.3C264.2 92.1 264.2 92 264.2 91.8C264.6 87.3 271.3 87.5 271.6 92C271.5 92.1 271.5 92.2 271.5 92.4Z" stroke="#0179F2" stroke-width="2" stroke-miterlimit="10" stroke-linecap="round" stroke-linejoin="round"/>
<path d="M267.7 94V100.7" stroke="#0179F2" stroke-width="2" stroke-miterlimit="10" stroke-linecap="round" stroke-linejoin="round"/>
<path d="M278.5 103.4C274.6 104.5 269.4 102.1 269.4 102.1C269.4 102.1 272.6 97.3 276.5 96.3C276.7 96.2 276.8 96.2 276.9 96.2C281.3 95.3 283.1 101.8 278.9 103.3C278.7 103.4 278.7 103.4 278.5 103.4Z" stroke="#0179F2" stroke-width="2" stroke-miterlimit="10" stroke-linecap="round" stroke-linejoin="round"/>
<path d="M275.9 100.4L269.4 102.2" stroke="#0179F2" stroke-width="2" stroke-miterlimit="10" stroke-linecap="round" stroke-linejoin="round"/>
<path d="M275.7 86.5C273.2 89.7 273.2 95.3 273.2 95.3C273.2 95.3 278.8 94.2 281.4 91.1C281.5 91 281.6 90.9 281.6 90.7C284.2 87 278.9 82.8 275.9 86.1C275.9 86.3 275.7 86.5 275.7 86.5Z" stroke="#0179F2" stroke-width="2" stroke-miterlimit="10" stroke-linecap="round" stroke-linejoin="round"/>
<path d="M277.5 90.2L273.2 95.4" stroke="#0179F2" stroke-width="2" stroke-miterlimit="10" stroke-linecap="round" stroke-linejoin="round"/>
<path d="M178.8 187.6L158.8 207.5" stroke="#0179F2" stroke-width="2" stroke-miterlimit="10" stroke-linecap="round" stroke-linejoin="round"/>
<path d="M161.7 200.9V194.5" stroke="#0179F2" stroke-width="2" stroke-miterlimit="10" stroke-linecap="round" stroke-linejoin="round"/>
<path d="M165.9 196.8V190.4" stroke="#0179F2" stroke-width="2" stroke-miterlimit="10" stroke-linecap="round" stroke-linejoin="round"/>
<path d="M170.1 192.5V186.1" stroke="#0179F2" stroke-width="2" stroke-miterlimit="10" stroke-linecap="round" stroke-linejoin="round"/>
<path d="M174.3 188.4V181.9" stroke="#0179F2" stroke-width="2" stroke-miterlimit="10" stroke-linecap="round" stroke-linejoin="round"/>
<path d="M178.5 184.1V177.8" stroke="#0179F2" stroke-width="2" stroke-miterlimit="10" stroke-linecap="round" stroke-linejoin="round"/>
<path d="M165.6 204.8H172" stroke="#0179F2" stroke-width="2" stroke-miterlimit="10" stroke-linecap="round" stroke-linejoin="round"/>
<path d="M169.7 200.6H176.1" stroke="#0179F2" stroke-width="2" stroke-miterlimit="10" stroke-linecap="round" stroke-linejoin="round"/>
<path d="M174 196.4H180.4" stroke="#0179F2" stroke-width="2" stroke-miterlimit="10" stroke-linecap="round" stroke-linejoin="round"/>
<path d="M178.2 192.2H184.6" stroke="#0179F2" stroke-width="2" stroke-miterlimit="10" stroke-linecap="round" stroke-linejoin="round"/>
<path d="M182.4 188H188.7" stroke="#0179F2" stroke-width="2" stroke-miterlimit="10" stroke-linecap="round" stroke-linejoin="round"/>
<path d="M182 184.5L187 179.4" stroke="#0179F2" stroke-width="2" stroke-miterlimit="10" stroke-linecap="round" stroke-linejoin="round"/>
<path d="M176.8 176.2L178.5 177.8L180.1 176.2" stroke="#0179F2" stroke-width="2" stroke-miterlimit="10" stroke-linecap="round" stroke-linejoin="round"/>
<path d="M172.7 180.4L174.3 182L175.9 180.4" stroke="#0179F2" stroke-width="2" stroke-miterlimit="10" stroke-linecap="round" stroke-linejoin="round"/>
<path d="M168.4 184.5L170.1 186.1L171.7 184.5" stroke="#0179F2" stroke-width="2" stroke-miterlimit="10" stroke-linecap="round" stroke-linejoin="round"/>
<path d="M164.3 188.8L165.9 190.4L167.5 188.8" stroke="#0179F2" stroke-width="2" stroke-miterlimit="10" stroke-linecap="round" stroke-linejoin="round"/>
<path d="M160.1 192.9L161.7 194.5L163.3 192.9" stroke="#0179F2" stroke-width="2" stroke-miterlimit="10" stroke-linecap="round" stroke-linejoin="round"/>
<path d="M190.3 189.6L188.7 188L190.3 186.4" stroke="#0179F2" stroke-width="2" stroke-miterlimit="10" stroke-linecap="round" stroke-linejoin="round"/>
<path d="M186.1 193.8L184.5 192.2L186.1 190.6" stroke="#0179F2" stroke-width="2" stroke-miterlimit="10" stroke-linecap="round" stroke-linejoin="round"/>
<path d="M182 198L180.4 196.4L182 194.8" stroke="#0179F2" stroke-width="2" stroke-miterlimit="10" stroke-linecap="round" stroke-linejoin="round"/>
<path d="M177.7 202.2L176.1 200.6L177.7 199" stroke="#0179F2" stroke-width="2" stroke-miterlimit="10" stroke-linecap="round" stroke-linejoin="round"/>
<path d="M173.5 206.4L171.9 204.8L173.5 203.2" stroke="#0179F2" stroke-width="2" stroke-miterlimit="10" stroke-linecap="round" stroke-linejoin="round"/>
<path d="M186.7 177.5V179.8H189" stroke="#0179F2" stroke-width="2" stroke-miterlimit="10" stroke-linecap="round" stroke-linejoin="round"/>
<path d="M21.7 208.7L1.8 228.7" stroke="#0179F2" stroke-width="2" stroke-miterlimit="10" stroke-linecap="round" stroke-linejoin="round"/>
<path d="M4.6 222.1V215.7" stroke="#0179F2" stroke-width="2" stroke-miterlimit="10" stroke-linecap="round" stroke-linejoin="round"/>
<path d="M8.8 217.9V211.5" stroke="#0179F2" stroke-width="2" stroke-miterlimit="10" stroke-linecap="round" stroke-linejoin="round"/>
<path d="M13 213.7V207.3" stroke="#0179F2" stroke-width="2" stroke-miterlimit="10" stroke-linecap="round" stroke-linejoin="round"/>
<path d="M17.2 209.5V203.1" stroke="#0179F2" stroke-width="2" stroke-miterlimit="10" stroke-linecap="round" stroke-linejoin="round"/>
<path d="M21.4 205.3V198.9" stroke="#0179F2" stroke-width="2" stroke-miterlimit="10" stroke-linecap="round" stroke-linejoin="round"/>
<path d="M8.5 226H14.9" stroke="#0179F2" stroke-width="2" stroke-miterlimit="10" stroke-linecap="round" stroke-linejoin="round"/>
<path d="M12.7 221.7H19.1" stroke="#0179F2" stroke-width="2" stroke-miterlimit="10" stroke-linecap="round" stroke-linejoin="round"/>
<path d="M16.9 217.6H23.2" stroke="#0179F2" stroke-width="2" stroke-miterlimit="10" stroke-linecap="round" stroke-linejoin="round"/>
<path d="M21.1 213.4H27.5" stroke="#0179F2" stroke-width="2" stroke-miterlimit="10" stroke-linecap="round" stroke-linejoin="round"/>
<path d="M25.3 209.1H31.7" stroke="#0179F2" stroke-width="2" stroke-miterlimit="10" stroke-linecap="round" stroke-linejoin="round"/>
<path d="M24.9 205.6L29.9 200.5" stroke="#0179F2" stroke-width="2" stroke-miterlimit="10" stroke-linecap="round" stroke-linejoin="round"/>
<path d="M19.8 197.3L21.4 198.9L23 197.3" stroke="#0179F2" stroke-width="2" stroke-miterlimit="10" stroke-linecap="round" stroke-linejoin="round"/>
<path d="M15.6 201.5L17.2 203.1L18.8 201.5" stroke="#0179F2" stroke-width="2" stroke-miterlimit="10" stroke-linecap="round" stroke-linejoin="round"/>
<path d="M11.4 205.7L13 207.3L14.6 205.7" stroke="#0179F2" stroke-width="2" stroke-miterlimit="10" stroke-linecap="round" stroke-linejoin="round"/>
<path d="M7.2 209.9L8.8 211.5L10.4 209.9" stroke="#0179F2" stroke-width="2" stroke-miterlimit="10" stroke-linecap="round" stroke-linejoin="round"/>
<path d="M3 214L4.6 215.7L6.3 214" stroke="#0179F2" stroke-width="2" stroke-miterlimit="10" stroke-linecap="round" stroke-linejoin="round"/>
<path d="M33.2 210.7L31.6 209.1L33.2 207.5" stroke="#0179F2" stroke-width="2" stroke-miterlimit="10" stroke-linecap="round" stroke-linejoin="round"/>
<path d="M29 215L27.4 213.4L29 211.7" stroke="#0179F2" stroke-width="2" stroke-miterlimit="10" stroke-linecap="round" stroke-linejoin="round"/>
<path d="M24.9 219.1L23.2 217.5L24.9 215.9" stroke="#0179F2" stroke-width="2" stroke-miterlimit="10" stroke-linecap="round" stroke-linejoin="round"/>
<path d="M20.6 223.4L19 221.7L20.6 220.1" stroke="#0179F2" stroke-width="2" stroke-miterlimit="10" stroke-linecap="round" stroke-linejoin="round"/>
<path d="M16.5 227.6L14.9 226L16.5 224.3" stroke="#0179F2" stroke-width="2" stroke-miterlimit="10" stroke-linecap="round" stroke-linejoin="round"/>
<path d="M29.5 198.6V200.9H31.9" stroke="#0179F2" stroke-width="2" stroke-miterlimit="10" stroke-linecap="round" stroke-linejoin="round"/>
<path d="M113 179.3L117.4 186.8C118.7 189 118 191.9 115.7 193.3C113.5 194.6 110.6 193.9 109.2 191.6L104.8 184.1L111.6 186.1L113 179.3Z" stroke="#0179F2" stroke-width="2" stroke-miterlimit="10" stroke-linecap="round" stroke-linejoin="round"/>
<path d="M108.9 182.2C109.728 182.2 110.4 181.528 110.4 180.7C110.4 179.872 109.728 179.2 108.9 179.2C108.072 179.2 107.4 179.872 107.4 180.7C107.4 181.528 108.072 182.2 108.9 182.2Z" stroke="#0179F2" stroke-width="2" stroke-miterlimit="10" stroke-linecap="round" stroke-linejoin="round"/>
<path d="M104 181.1C104.828 181.1 105.5 180.428 105.5 179.6C105.5 178.772 104.828 178.1 104 178.1C103.172 178.1 102.5 178.772 102.5 179.6C102.5 180.428 103.172 181.1 104 181.1Z" stroke="#0179F2" stroke-width="2" stroke-miterlimit="10" stroke-linecap="round" stroke-linejoin="round"/>
<path d="M110.3 177.1C111.128 177.1 111.8 176.428 111.8 175.6C111.8 174.772 111.128 174.1 110.3 174.1C109.472 174.1 108.8 174.772 108.8 175.6C108.8 176.428 109.472 177.1 110.3 177.1Z" stroke="#0179F2" stroke-width="2" stroke-miterlimit="10" stroke-linecap="round" stroke-linejoin="round"/>
<path d="M11.6 148.9L18.4 154.1C20.5 155.7 20.9 158.6 19.3 160.7C17.7 162.8 14.8 163.2 12.7 161.6L5.9 156.4L12.9 155.7L11.6 148.9Z" stroke="#0179F2" stroke-width="2" stroke-miterlimit="10" stroke-linecap="round" stroke-linejoin="round"/>
<path d="M8.4 153.2C9.22843 153.2 9.9 152.528 9.9 151.7C9.9 150.872 9.22843 150.2 8.4 150.2C7.57157 150.2 6.9 150.872 6.9 151.7C6.9 152.528 7.57157 153.2 8.4 153.2Z" stroke="#0179F2" stroke-width="2" stroke-miterlimit="10" stroke-linecap="round" stroke-linejoin="round"/>
<path d="M3.5 154.1C4.32843 154.1 5 153.428 5 152.6C5 151.772 4.32843 151.1 3.5 151.1C2.67157 151.1 2 151.772 2 152.6C2 153.428 2.67157 154.1 3.5 154.1Z" stroke="#0179F2" stroke-width="2" stroke-miterlimit="10" stroke-linecap="round" stroke-linejoin="round"/>
<path d="M7.7 148C8.52843 148 9.2 147.328 9.2 146.5C9.2 145.672 8.52843 145 7.7 145C6.87157 145 6.2 145.672 6.2 146.5C6.2 147.328 6.87157 148 7.7 148Z" stroke="#0179F2" stroke-width="2" stroke-miterlimit="10" stroke-linecap="round" stroke-linejoin="round"/>
<path d="M125.9 192.5C126.728 192.5 127.4 191.828 127.4 191C127.4 190.172 126.728 189.5 125.9 189.5C125.072 189.5 124.4 190.172 124.4 191C124.4 191.828 125.072 192.5 125.9 192.5Z" stroke="#0179F2" stroke-width="2" stroke-miterlimit="10" stroke-linecap="round" stroke-linejoin="round"/>
<path d="M125.6 187.5C126.428 187.5 127.1 186.828 127.1 186C127.1 185.172 126.428 184.5 125.6 184.5C124.772 184.5 124.1 185.172 124.1 186C124.1 186.828 124.772 187.5 125.6 187.5Z" stroke="#0179F2" stroke-width="2" stroke-miterlimit="10" stroke-linecap="round" stroke-linejoin="round"/>
<path d="M131.1 192.5C131.928 192.5 132.6 191.828 132.6 191C132.6 190.172 131.928 189.5 131.1 189.5C130.272 189.5 129.6 190.172 129.6 191C129.6 191.828 130.272 192.5 131.1 192.5Z" stroke="#0179F2" stroke-width="2" stroke-miterlimit="10" stroke-linecap="round" stroke-linejoin="round"/>
<path d="M138.5 92.4C139.328 92.4 140 91.7284 140 90.9C140 90.0716 139.328 89.4 138.5 89.4C137.672 89.4 137 90.0716 137 90.9C137 91.7284 137.672 92.4 138.5 92.4Z" stroke="#0179F2" stroke-width="2" stroke-miterlimit="10" stroke-linecap="round" stroke-linejoin="round"/>
<path d="M138.8 97.4C139.628 97.4 140.3 96.7284 140.3 95.9C140.3 95.0716 139.628 94.4 138.8 94.4C137.972 94.4 137.3 95.0716 137.3 95.9C137.3 96.7284 137.972 97.4 138.8 97.4Z" stroke="#0179F2" stroke-width="2" stroke-miterlimit="10" stroke-linecap="round" stroke-linejoin="round"/>
<path d="M133.3 92.4C134.128 92.4 134.8 91.7284 134.8 90.9C134.8 90.0716 134.128 89.4 133.3 89.4C132.472 89.4 131.8 90.0716 131.8 90.9C131.8 91.7284 132.472 92.4 133.3 92.4Z" stroke="#0179F2" stroke-width="2" stroke-miterlimit="10" stroke-linecap="round" stroke-linejoin="round"/>
<path d="M122.8 163.3C124.3 166.7 128.5 168.1 128.5 168.1C128.5 168.1 130.4 164 129 160.6C127.5 157.1 123.2 155.5 123.2 155.5C123.2 155.5 121.3 159.9 122.8 163.3Z" stroke="#0179F2" stroke-width="2" stroke-miterlimit="10"/>
<path d="M125.4 161L128.5 168.2" stroke="#0179F2" stroke-width="2" stroke-miterlimit="10" stroke-linecap="round"/>
<path d="M198 172.2C198.828 172.2 199.5 171.528 199.5 170.7C199.5 169.872 198.828 169.2 198 169.2C197.172 169.2 196.5 169.872 196.5 170.7C196.5 171.528 197.172 172.2 198 172.2Z" stroke="#0179F2" stroke-width="2" stroke-miterlimit="10" stroke-linecap="round" stroke-linejoin="round"/>
<path d="M203 172.4C203.828 172.4 204.5 171.728 204.5 170.9C204.5 170.072 203.828 169.4 203 169.4C202.172 169.4 201.5 170.072 201.5 170.9C201.5 171.728 202.172 172.4 203 172.4Z" stroke="#0179F2" stroke-width="2" stroke-miterlimit="10" stroke-linecap="round" stroke-linejoin="round"/>
<path d="M198 167C198.828 167 199.5 166.328 199.5 165.5C199.5 164.672 198.828 164 198 164C197.172 164 196.5 164.672 196.5 165.5C196.5 166.328 197.172 167 198 167Z" stroke="#0179F2" stroke-width="2" stroke-miterlimit="10" stroke-linecap="round" stroke-linejoin="round"/>
<path d="M142.4 190.6C144.9 196.7 152.5 199.2 152.5 199.2C152.5 199.2 155.9 192 153.3 185.9C150.8 179.8 143 176.8 143 176.8C143 176.8 139.8 184.5 142.4 190.6Z" stroke="#0179F2" stroke-width="2" stroke-miterlimit="10"/>
<path d="M147.1 186.5L152.5 199.2" stroke="#0179F2" stroke-width="2" stroke-miterlimit="10" stroke-linecap="round"/>
<path d="M206 133.7C203.8 136.2 204.2 140.2 204.2 140.2C204.2 140.2 208.3 140.2 210.5 137.7C212.7 135.2 212.5 130.9 212.5 130.9C212.5 130.9 208.3 131.1 206 133.7Z" stroke="#0179F2" stroke-width="2" stroke-miterlimit="10"/>
<path d="M208.9 134.9L204.3 140.2" stroke="#0179F2" stroke-width="2" stroke-miterlimit="10" stroke-linecap="round"/>
<path d="M202.1 129.4C202.1 129.4 207.2 144.2 200.5 153.3" stroke="#0179F2" stroke-width="2" stroke-miterlimit="10"/>
<path d="M199.1 117L203.3 123.5C204.6 125.5 204 128.2 202 129.4C200 130.7 197.3 130.1 196.1 128.1L191.9 121.6L198.1 123.2L199.1 117Z" stroke="#0179F2" stroke-width="2" stroke-miterlimit="10" stroke-linecap="round" stroke-linejoin="round"/>
<path d="M194.8 119C195.573 119 196.2 118.373 196.2 117.6C196.2 116.827 195.573 116.2 194.8 116.2C194.027 116.2 193.4 116.827 193.4 117.6C193.4 118.373 194.027 119 194.8 119Z" stroke="#0179F2" stroke-width="2" stroke-miterlimit="10" stroke-linecap="round" stroke-linejoin="round"/>
<path d="M190.3 118.2C191.073 118.2 191.7 117.573 191.7 116.8C191.7 116.027 191.073 115.4 190.3 115.4C189.527 115.4 188.9 116.027 188.9 116.8C188.9 117.573 189.527 118.2 190.3 118.2Z" stroke="#0179F2" stroke-width="2" stroke-miterlimit="10" stroke-linecap="round" stroke-linejoin="round"/>
<path d="M195.8 114.3C196.573 114.3 197.2 113.673 197.2 112.9C197.2 112.127 196.573 111.5 195.8 111.5C195.027 111.5 194.4 112.127 194.4 112.9C194.4 113.673 195.027 114.3 195.8 114.3Z" stroke="#0179F2" stroke-width="2" stroke-miterlimit="10" stroke-linecap="round" stroke-linejoin="round"/>
<path d="M56.5 86.6C54.3 89.1 54.7 93.1 54.7 93.1C54.7 93.1 58.8 93.1 61 90.6C63.2 88.1 63 83.8 63 83.8C63 83.8 58.8 84.1 56.5 86.6Z" stroke="#0179F2" stroke-width="2" stroke-miterlimit="10"/>
<path d="M59.4 87.8L54.7 93.1" stroke="#0179F2" stroke-width="2" stroke-miterlimit="10" stroke-linecap="round"/>
<path d="M52.6 82.4C52.6 82.4 57.7 97.2 51 106.3" stroke="#0179F2" stroke-width="2" stroke-miterlimit="10"/>
<path d="M49.6 69.9L53.8 76.4C55.1 78.4 54.5 81.1 52.5 82.3C50.5 83.6 47.8 83 46.6 81L42.4 74.5L48.6 76.2L49.6 69.9Z" stroke="#0179F2" stroke-width="2" stroke-miterlimit="10" stroke-linecap="round" stroke-linejoin="round"/>
<path d="M45.2 71.9C45.9732 71.9 46.6 71.2732 46.6 70.5C46.6 69.7268 45.9732 69.1 45.2 69.1C44.4268 69.1 43.8 69.7268 43.8 70.5C43.8 71.2732 44.4268 71.9 45.2 71.9Z" stroke="#0179F2" stroke-width="2" stroke-miterlimit="10" stroke-linecap="round" stroke-linejoin="round"/>
<path d="M40.8 71.1C41.5732 71.1 42.2 70.4732 42.2 69.7C42.2 68.9268 41.5732 68.3 40.8 68.3C40.0268 68.3 39.4 68.9268 39.4 69.7C39.4 70.4732 40.0268 71.1 40.8 71.1Z" stroke="#0179F2" stroke-width="2" stroke-miterlimit="10" stroke-linecap="round" stroke-linejoin="round"/>
<path d="M46.3 67.3C47.0732 67.3 47.7 66.6732 47.7 65.9C47.7 65.1268 47.0732 64.5 46.3 64.5C45.5268 64.5 44.9 65.1268 44.9 65.9C44.9 66.6732 45.5268 67.3 46.3 67.3Z" stroke="#0179F2" stroke-width="2" stroke-miterlimit="10" stroke-linecap="round" stroke-linejoin="round"/>
<path d="M166.1 102.4C167.5 107.2 172.9 109.9 172.9 109.9C172.9 109.9 176.1 104.8 174.8 100C173.4 95.2 167.9 92.1 167.9 92.1C167.9 92.1 164.8 97.6 166.1 102.4Z" stroke="#0179F2" stroke-width="2" stroke-miterlimit="10"/>
<path d="M170.1 99.8L172.9 109.9" stroke="#0179F2" stroke-width="2" stroke-miterlimit="10" stroke-linecap="round"/>
<path d="M171.5 121.4C171.4 99.5 186.8 95.7 186.8 95.7" stroke="#0179F2" stroke-width="2" stroke-miterlimit="10" stroke-linecap="round" stroke-linejoin="round"/>
<path d="M187.7 99.6C187 101.2 185 101.9 185 101.9C185 101.9 184.1 100 184.8 98.4C185.5 96.8 187.6 95.9 187.6 95.9C187.6 95.9 188.4 98 187.7 99.6Z" stroke="#0179F2" stroke-width="2" stroke-miterlimit="10"/>
<path d="M184.1 93.3C185.9 93.5 187 95.3 187 95.3C187 95.3 185.4 96.7 183.6 96.5C181.8 96.3 180.5 94.5 180.5 94.5C180.5 94.5 182.4 93.1 184.1 93.3Z" stroke="#0179F2" stroke-width="2" stroke-miterlimit="10"/>
<path d="M199.3 91.3C200.073 91.3 200.7 90.6732 200.7 89.9C200.7 89.1268 200.073 88.5 199.3 88.5C198.527 88.5 197.9 89.1268 197.9 89.9C197.9 90.6732 198.527 91.3 199.3 91.3Z" stroke="#0179F2" stroke-width="2" stroke-miterlimit="10" stroke-linecap="round" stroke-linejoin="round"/>
<path d="M196.1 95.2C196.873 95.2 197.5 94.5732 197.5 93.8C197.5 93.0268 196.873 92.4 196.1 92.4C195.327 92.4 194.7 93.0268 194.7 93.8C194.7 94.5732 195.327 95.2 196.1 95.2Z" stroke="#0179F2" stroke-width="2" stroke-miterlimit="10" stroke-linecap="round" stroke-linejoin="round"/>
<path d="M194.3 90.9C195.073 90.9 195.7 90.2732 195.7 89.5C195.7 88.7268 195.073 88.1 194.3 88.1C193.527 88.1 192.9 88.7268 192.9 89.5C192.9 90.2732 193.527 90.9 194.3 90.9Z" stroke="#0179F2" stroke-width="2" stroke-miterlimit="10" stroke-linecap="round" stroke-linejoin="round"/>
<path d="M192.5 99.2C193.273 99.2 193.9 98.5732 193.9 97.8C193.9 97.0268 193.273 96.4 192.5 96.4C191.727 96.4 191.1 97.0268 191.1 97.8C191.1 98.5732 191.727 99.2 192.5 99.2Z" stroke="#0179F2" stroke-width="2" stroke-miterlimit="10" stroke-linecap="round" stroke-linejoin="round"/>
<path d="M190.7 95C191.473 95 192.1 94.3732 192.1 93.6C192.1 92.8268 191.473 92.2 190.7 92.2C189.927 92.2 189.3 92.8268 189.3 93.6C189.3 94.3732 189.927 95 190.7 95Z" stroke="#0179F2" stroke-width="2" stroke-miterlimit="10" stroke-linecap="round" stroke-linejoin="round"/>
<path d="M188.8 90.8C189.573 90.8 190.2 90.1732 190.2 89.4C190.2 88.6268 189.573 88 188.8 88C188.027 88 187.4 88.6268 187.4 89.4C187.4 90.1732 188.027 90.8 188.8 90.8Z" stroke="#0179F2" stroke-width="2" stroke-miterlimit="10" stroke-linecap="round" stroke-linejoin="round"/>
<path d="M77.1469 110.573L72.3771 110.036L72.0641 112.819L76.8338 113.355L77.1469 110.573Z" stroke="#0179F2" stroke-width="2" stroke-miterlimit="10"/>
<path d="M73.2503 93.9428L71.4503 109.941L78.1081 110.69L79.908 94.6919L73.2503 93.9428Z" stroke="#0179F2" stroke-width="2" stroke-miterlimit="10"/>
<path d="M78.8 102.7L72.5 102" stroke="#0179F2" stroke-width="2" stroke-miterlimit="10"/>
<path d="M77.6 97.2L77.9 94.8" stroke="#0179F2" stroke-width="2" stroke-miterlimit="10"/>
<path d="M74.9 96.9L75.2 94.4" stroke="#0179F2" stroke-width="2" stroke-miterlimit="10"/>
<path d="M78 123.4C75.5 127.2 77 132.6 77 132.6C77 132.6 82.5 131.8 85 127.9C87.5 124.1 86.2 118.4 86.2 118.4C86.2 118.4 80.4 119.6 78 123.4Z" stroke="#0179F2" stroke-width="2" stroke-miterlimit="10"/>
<path d="M82.2 124.5L77 132.7" stroke="#0179F2" stroke-width="2" stroke-miterlimit="10" stroke-linecap="round"/>
<path d="M74.4 112.4C74.4 112.4 70.8 130.5 84.1 144.9" stroke="#0179F2" stroke-width="2" stroke-miterlimit="10"/>
<path d="M224.6 109.9C226.8 112.8 231.4 113.2 231.4 113.2C231.4 113.2 232.2 108.7 230 105.8C227.8 102.9 223.1 102.3 223.1 102.3C223.1 102.3 222.4 107 224.6 109.9Z" stroke="#0179F2" stroke-width="2" stroke-miterlimit="10"/>
<path d="M226.6 107L231.4 113.2" stroke="#0179F2" stroke-width="2" stroke-miterlimit="10" stroke-linecap="round"/>
<path d="M229.791 99.945L234.561 99.4083L234.248 96.626L229.478 97.1626L229.791 99.945Z" stroke="#0179F2" stroke-width="2" stroke-miterlimit="10"/>
<path d="M226.673 81.1305L228.473 97.1291L235.131 96.38L233.331 80.3814L226.673 81.1305Z" stroke="#0179F2" stroke-width="2" stroke-miterlimit="10"/>
<path d="M227.8 89.1L234.1 88.5" stroke="#0179F2" stroke-width="2" stroke-miterlimit="10"/>
<path d="M229 83.6L228.7 81.2" stroke="#0179F2" stroke-width="2" stroke-miterlimit="10"/>
<path d="M231.7 83.4L231.4 80.9" stroke="#0179F2" stroke-width="2" stroke-miterlimit="10"/>
<path d="M232.2 98.8C232.2 98.8 235.8 116.9 222.5 131.3" stroke="#0179F2" stroke-width="2" stroke-miterlimit="10"/>
<path d="M206 208.1C198.9 206 191.3 210.8 191.3 210.8C191.3 210.8 195.1 218.9 202.2 220.9C209.3 222.9 217.5 218.4 217.5 218.4C217.5 218.4 213.1 210.2 206 208.1Z" stroke="#0179F2" stroke-width="2" stroke-miterlimit="10"/>
<path d="M206.3 215.2L191.3 210.8" stroke="#0179F2" stroke-width="2" stroke-miterlimit="10" stroke-linecap="round"/>
<path d="M202.4 193.6C203.1 197 206.8 199.1 206.8 199.1C206.8 199.1 209.3 195.7 208.5 192.3C207.8 188.9 204 186.6 204 186.6C204 186.6 201.6 190.2 202.4 193.6Z" stroke="#0179F2" stroke-width="2" stroke-miterlimit="10"/>
<path d="M205.2 191.9L206.7 199.1" stroke="#0179F2" stroke-width="2" stroke-miterlimit="10" stroke-linecap="round"/>
<path d="M230.139 179.289L217.26 171.6L211.057 181.989L223.936 189.678L230.139 179.289Z" stroke="#0179F2" stroke-width="2" stroke-miterlimit="10" stroke-linecap="round" stroke-linejoin="round"/>
<path d="M219.6 192.2L221.6 188.8" stroke="#0179F2" stroke-width="2" stroke-miterlimit="10" stroke-linecap="round" stroke-linejoin="round"/>
<path d="M213 183.6L210.9 187.1" stroke="#0179F2" stroke-width="2" stroke-miterlimit="10" stroke-linecap="round" stroke-linejoin="round"/>
<path d="M230.108 175.952L220.234 170.057L218.748 172.547L228.622 178.442L230.108 175.952Z" stroke="#0179F2" stroke-width="2" stroke-miterlimit="10" stroke-linecap="round" stroke-linejoin="round"/>
<path d="M219.9 179.2L222.2 180.6C224 181.7 224.6 184 223.5 185.7L221.9 188.4L213.1 183.2L214.7 180.5C215.8 178.8 218.1 178.2 219.9 179.2Z" stroke="#0179F2" stroke-width="2" stroke-miterlimit="10" stroke-linecap="round" stroke-linejoin="round"/>
<path d="M217.2 185.8C217.2 185.8 210.1 205.7 181.3 213.2" stroke="#0179F2" stroke-width="2" stroke-miterlimit="10" stroke-linecap="round" stroke-linejoin="round"/>
<path d="M85.9 213.6C93 211.5 100.6 216.3 100.6 216.3C100.6 216.3 96.8 224.4 89.7 226.4C82.6 228.4 74.4 224 74.4 224C74.4 224 78.8 215.7 85.9 213.6Z" stroke="#0179F2" stroke-width="2" stroke-miterlimit="10"/>
<path d="M85.7 220.7L100.6 216.3" stroke="#0179F2" stroke-width="2" stroke-miterlimit="10" stroke-linecap="round"/>
<path d="M89.6 199.1C88.9 202.5 85.2 204.6 85.2 204.6C85.2 204.6 82.7 201.2 83.5 197.8C84.2 194.4 88 192.1 88 192.1C88 192.1 90.3 195.7 89.6 199.1Z" stroke="#0179F2" stroke-width="2" stroke-miterlimit="10"/>
<path d="M86.7 197.4L85.2 204.5" stroke="#0179F2" stroke-width="2" stroke-miterlimit="10" stroke-linecap="round"/>
<path d="M68.0134 195.192L80.8924 187.503L74.6899 177.114L61.8109 184.803L68.0134 195.192Z" stroke="#0179F2" stroke-width="2" stroke-miterlimit="10" stroke-linecap="round" stroke-linejoin="round"/>
<path d="M72.4 197.7L70.4 194.2" stroke="#0179F2" stroke-width="2" stroke-miterlimit="10" stroke-linecap="round" stroke-linejoin="round"/>
<path d="M79 189.1L81 192.5" stroke="#0179F2" stroke-width="2" stroke-miterlimit="10" stroke-linecap="round" stroke-linejoin="round"/>
<path d="M63.3422 183.824L73.2161 177.929L71.7296 175.439L61.8557 181.334L63.3422 183.824Z" stroke="#0179F2" stroke-width="2" stroke-miterlimit="10" stroke-linecap="round" stroke-linejoin="round"/>
<path d="M72.1 184.8L69.8 186.2C68 187.3 67.4 189.6 68.5 191.3L70.1 194L78.9 188.8L77.3 186.1C76.1 184.2 73.8 183.7 72.1 184.8Z" stroke="#0179F2" stroke-width="2" stroke-miterlimit="10" stroke-linecap="round" stroke-linejoin="round"/>
<path d="M74.7 191.3C74.7 191.3 81.8 211.2 110.6 218.7" stroke="#0179F2" stroke-width="2" stroke-miterlimit="10" stroke-linecap="round" stroke-linejoin="round"/>
<path d="M47.1 123.6C47.9284 123.6 48.6 122.928 48.6 122.1C48.6 121.272 47.9284 120.6 47.1 120.6C46.2716 120.6 45.6 121.272 45.6 122.1C45.6 122.928 46.2716 123.6 47.1 123.6Z" stroke="#0179F2" stroke-width="2" stroke-miterlimit="10" stroke-linecap="round" stroke-linejoin="round"/>
<path d="M9.9 128.9C10.7284 128.9 11.4 128.228 11.4 127.4C11.4 126.572 10.7284 125.9 9.9 125.9C9.07157 125.9 8.4 126.572 8.4 127.4C8.4 128.228 9.07157 128.9 9.9 128.9Z" stroke="#0179F2" stroke-width="2" stroke-miterlimit="10" stroke-linecap="round" stroke-linejoin="round"/>
<path d="M10.4 288.6C11.2284 288.6 11.9 287.928 11.9 287.1C11.9 286.272 11.2284 285.6 10.4 285.6C9.57157 285.6 8.9 286.272 8.9 287.1C8.9 287.928 9.57157 288.6 10.4 288.6Z" stroke="#0179F2" stroke-width="2" stroke-miterlimit="10" stroke-linecap="round" stroke-linejoin="round"/>
<path d="M103.1 85.3C103.928 85.3 104.6 84.6284 104.6 83.8C104.6 82.9716 103.928 82.3 103.1 82.3C102.272 82.3 101.6 82.9716 101.6 83.8C101.6 84.6284 102.272 85.3 103.1 85.3Z" stroke="#0179F2" stroke-width="2" stroke-miterlimit="10" stroke-linecap="round" stroke-linejoin="round"/>
<path d="M209.3 106.3C210.128 106.3 210.8 105.628 210.8 104.8C210.8 103.972 210.128 103.3 209.3 103.3C208.472 103.3 207.8 103.972 207.8 104.8C207.8 105.628 208.472 106.3 209.3 106.3Z" stroke="#0179F2" stroke-width="2" stroke-miterlimit="10" stroke-linecap="round" stroke-linejoin="round"/>
<path d="M264.3 112.2C265.128 112.2 265.8 111.528 265.8 110.7C265.8 109.872 265.128 109.2 264.3 109.2C263.472 109.2 262.8 109.872 262.8 110.7C262.8 111.528 263.472 112.2 264.3 112.2Z" stroke="#0179F2" stroke-width="2" stroke-miterlimit="10" stroke-linecap="round" stroke-linejoin="round"/>
<path d="M280.4 53.4C281.228 53.4 281.9 52.7284 281.9 51.9C281.9 51.0716 281.228 50.4 280.4 50.4C279.572 50.4 278.9 51.0716 278.9 51.9C278.9 52.7284 279.572 53.4 280.4 53.4Z" stroke="#0179F2" stroke-width="2" stroke-miterlimit="10" stroke-linecap="round" stroke-linejoin="round"/>
<path d="M177.7 77C178.528 77 179.2 76.3284 179.2 75.5C179.2 74.6716 178.528 74 177.7 74C176.872 74 176.2 74.6716 176.2 75.5C176.2 76.3284 176.872 77 177.7 77Z" stroke="#0179F2" stroke-width="2" stroke-miterlimit="10" stroke-linecap="round" stroke-linejoin="round"/>
<path d="M158.8 106.6C159.628 106.6 160.3 105.928 160.3 105.1C160.3 104.272 159.628 103.6 158.8 103.6C157.972 103.6 157.3 104.272 157.3 105.1C157.3 105.928 157.972 106.6 158.8 106.6Z" stroke="#0179F2" stroke-width="2" stroke-miterlimit="10" stroke-linecap="round" stroke-linejoin="round"/>
<path d="M34.4 150.6C38.1 150.2 40.7 146.5 40.7 146.5C40.7 146.5 37.3 143.5 33.6 143.9C29.9 144.3 27 148.1 27 148.1C27 148.1 30.7 151.1 34.4 150.6Z" stroke="#0179F2" stroke-width="2" stroke-miterlimit="10"/>
<path d="M32.9 147.4L40.7 146.6" stroke="#0179F2" stroke-width="2" stroke-miterlimit="10" stroke-linecap="round"/>
<path d="M25.9 126.1L27.9 129.4C28 129.5 28 129.6 28 129.6C28 129.6 27.9 129.8 27.8 129.8L24.4 131.9C24.3 131.9 24.3 132 24.2 132C24.1 132 24 132 23.9 131.8L21.9 128.5L25.9 126.1ZM26.3 124L19.9 127.8C19.8 127.9 19.8 128 19.8 128L22.5 132.5C22.9 133.1 23.5 133.4 24.1 133.4C24.4 133.4 24.8 133.3 25.1 133.1L28.5 131C29.4 130.5 29.7 129.3 29.1 128.4L26.4 123.9C26.5 124 26.4 124 26.3 124Z" fill="#0179F2"/>
<path d="M21 127.6L19.7 125.4L24.2 122.7L25.6 124.8" stroke="#0179F2" stroke-width="2" stroke-miterlimit="10" stroke-linecap="round" stroke-linejoin="round"/>
<path d="M46.4 150C46.4 150 34.1 143.7 26.4 131.9" stroke="#0179F2" stroke-width="2" stroke-miterlimit="10" stroke-linecap="round"/>
<path d="M248.5 77.1C250.3 80.4 254.6 81.5 254.6 81.5C254.6 81.5 256.1 77.3 254.4 74C252.6 70.7 248.1 69.3 248.1 69.3C248.1 69.3 246.8 73.9 248.5 77.1Z" stroke="#0179F2" stroke-width="2" stroke-miterlimit="10"/>
<path d="M251 74.5L254.7 81.5" stroke="#0179F2" stroke-width="2" stroke-miterlimit="10" stroke-linecap="round"/>
<path d="M268.3 60.2L266 63.3C265.9 63.4 265.8 63.5 265.8 63.5C265.7 63.5 265.6 63.5 265.6 63.4L262.4 61C262.3 60.9 262.3 60.9 262.3 60.8C262.3 60.7 262.2 60.6 262.4 60.5L264.7 57.4L268.3 60.2ZM270.4 59.9L264.4 55.4C264.3 55.3 264.2 55.3 264.2 55.4L261 59.6C260.6 60.1 260.5 60.8 260.8 61.4C261 61.7 261.1 62 261.4 62.2L264.6 64.6C265.4 65.2 266.6 65.1 267.2 64.2L270.4 60C270.4 60 270.4 59.9 270.4 59.9Z" fill="#0179F2"/>
<path d="M265.1 56.2L266.6 54.2L270.9 57.4L269.4 59.5" stroke="#0179F2" stroke-width="2" stroke-miterlimit="10" stroke-linecap="round" stroke-linejoin="round"/>
<path d="M253.5 88.1C253.5 88.1 254.9 74.3 263.1 62.9" stroke="#0179F2" stroke-width="2" stroke-miterlimit="10" stroke-linecap="round"/>
<path d="M44.4217 172.986L39.5467 171.874L39.1909 173.434L44.0659 174.546L44.4217 172.986Z" stroke="#0179F2" stroke-width="2" stroke-miterlimit="10" stroke-linecap="round" stroke-linejoin="round"/>
<path d="M35 181.7L36.5 175.2C36.8 174 38 173.3 39.2 173.5L44.2 174.7C45.4 175 46.1 176.2 45.9 177.4L44.4 183.9L35 181.7Z" stroke="#0179F2" stroke-width="2" stroke-miterlimit="10" stroke-linecap="round" stroke-linejoin="round"/>
<path d="M39.5 176.9L42.3 177.5L41.7 179.9L38.9 179.3L39.5 176.9ZM39.5 175.3C38.9 175.3 38.3 175.8 38.1 176.4L37.3 180.2C37.3 180.3 37.3 180.4 37.4 180.4L42.9 181.6C43 181.6 43 181.6 43.1 181.5L43.9 177.7C44.1 176.9 43.6 176.2 42.8 176L39.9 175.3C39.7 175.4 39.5 175.3 39.5 175.3Z" fill="#0179F2"/>
<path d="M35.8 182.2L35 185.8L42.5 187.5L43.3 183.9" stroke="#0179F2" stroke-width="2" stroke-miterlimit="10" stroke-linecap="round" stroke-linejoin="round"/>
<path d="M51.8 144.9C56.1 149.8 64 149.9 64 149.9C64 149.9 64.9 142 60.6 137.1C56.3 132.2 48 131.6 48 131.6C48 131.6 47.5 140 51.8 144.9Z" stroke="#0179F2" stroke-width="2" stroke-miterlimit="10"/>
<path d="M55 139.6L64.1 149.9" stroke="#0179F2" stroke-width="2" stroke-miterlimit="10" stroke-linecap="round"/>
<path d="M88.5 157.8C88.5 157.8 69 145.7 55.8 152.7C43.3 159.5 42 172.4 42 172.4" stroke="#0179F2" stroke-width="2" stroke-miterlimit="10" stroke-linecap="round" stroke-linejoin="round"/>
<path d="M90 174.8C90.8837 174.8 91.6 174.084 91.6 173.2C91.6 172.316 90.8837 171.6 90 171.6C89.1163 171.6 88.4 172.316 88.4 173.2C88.4 174.084 89.1163 174.8 90 174.8Z" stroke="#0179F2" stroke-width="2" stroke-miterlimit="10" stroke-linecap="round" stroke-linejoin="round"/>
<path d="M97.9 187.8L92.3 177.5" stroke="#0179F2" stroke-width="2" stroke-miterlimit="10" stroke-linecap="round" stroke-linejoin="round"/>
<path d="M89.3 177.2L92.7 178.1L93.6 174.6" stroke="#0179F2" stroke-width="2" stroke-miterlimit="10" stroke-linecap="round" stroke-linejoin="round"/>
<path d="M270.1 130C266.4 129.8 263.2 132.9 263.2 132.9C263.2 132.9 266 136.4 269.7 136.7C273.4 136.9 276.9 133.8 276.9 133.8C276.9 133.8 273.8 130.3 270.1 130Z" stroke="#0179F2" stroke-width="2" stroke-miterlimit="10"/>
<path d="M271.1 133.5L263.2 133" stroke="#0179F2" stroke-width="2" stroke-miterlimit="10" stroke-linecap="round"/>
<path d="M275.9 114.5L279.9 117L277.9 120.3C277.8 120.5 277.7 120.5 277.6 120.5C277.5 120.5 277.4 120.5 277.4 120.4L274 118.3C273.8 118.2 273.8 118 273.9 117.8L275.9 114.5ZM275.4 112.4C275.3 112.4 275.3 112.4 275.2 112.5L272.5 117C272 117.9 272.3 119.1 273.1 119.6L276.5 121.7C276.8 121.9 277.1 122 277.5 122C278.1 122 278.7 121.7 279.1 121.1L281.8 116.6C281.9 116.5 281.8 116.4 281.7 116.4L275.4 112.4Z" fill="#0179F2"/>
<path d="M280.7 116L282 113.8L277.5 111.1L276.1 113.2" stroke="#0179F2" stroke-width="2" stroke-miterlimit="10" stroke-linecap="round" stroke-linejoin="round"/>
<path d="M255.4 138.4C255.4 138.4 267.7 132.1 275.4 120.3" stroke="#0179F2" stroke-width="2" stroke-miterlimit="10" stroke-linecap="round"/>
<path d="M260.092 163.643L265.026 162.832L264.766 161.253L259.832 162.064L260.092 163.643Z" stroke="#0179F2" stroke-width="2" stroke-miterlimit="10" stroke-linecap="round" stroke-linejoin="round"/>
<path d="M268.7 171.3L267.6 164.7C267.4 163.5 266.3 162.7 265.1 162.9L260 163.7C258.8 163.9 258 165 258.2 166.2L259.3 172.8L268.7 171.3Z" stroke="#0179F2" stroke-width="2" stroke-miterlimit="10" stroke-linecap="round" stroke-linejoin="round"/>
<path d="M264.4 166.2L264.8 168.6L262 169.1L261.6 166.7L264.4 166.2ZM264.5 164.7C264.4 164.7 264.3 164.7 264.3 164.7L261.3 165.2C260.5 165.4 260 166 260.1 166.8L260.7 170.7C260.7 170.8 260.8 170.8 260.9 170.8L266.4 169.9C266.5 169.9 266.5 169.8 266.5 169.7L265.9 165.8C265.8 165.2 265.2 164.7 264.5 164.7Z" fill="#0179F2"/>
<path d="M267.8 171.8L268.4 175.4L260.8 176.6L260.2 173" stroke="#0179F2" stroke-width="2" stroke-miterlimit="10" stroke-linecap="round" stroke-linejoin="round"/>
<path d="M252.4 133.3C248.1 138.2 240.2 138.3 240.2 138.3C240.2 138.3 239.3 130.4 243.6 125.5C247.9 120.6 256.2 120 256.2 120C256.2 120 256.7 128.4 252.4 133.3Z" stroke="#0179F2" stroke-width="2" stroke-miterlimit="10"/>
<path d="M249.2 128L240.2 138.3" stroke="#0179F2" stroke-width="2" stroke-miterlimit="10" stroke-linecap="round"/>
<path d="M215.7 146.2C215.7 146.2 235.2 134.1 248.4 141.1C260.9 147.9 262.2 161.5 262.2 161.5" stroke="#0179F2" stroke-width="2" stroke-miterlimit="10" stroke-linecap="round" stroke-linejoin="round"/>
<path d="M16.4 93.1H37.6V89.6H16.5L16.4 93.1Z" stroke="#0179F2" stroke-width="2" stroke-miterlimit="10" stroke-linejoin="round"/>
<path d="M19.2 85.3L18.1 89.7H35.9L34.9 85.2L19.2 85.3Z" stroke="#0179F2" stroke-width="2" stroke-miterlimit="10" stroke-linejoin="round"/>
<path d="M19.4 113.3H34.6L36.5 93.1H17.5L19.4 113.3Z" stroke="#0179F2" stroke-width="2" stroke-miterlimit="10" stroke-linejoin="round"/>
<path d="M27 107.3C29.651 107.3 31.8 105.151 31.8 102.5C31.8 99.849 29.651 97.7 27 97.7C24.349 97.7 22.2 99.849 22.2 102.5C22.2 105.151 24.349 107.3 27 107.3Z" stroke="#0179F2" stroke-width="2" stroke-miterlimit="10"/>
<path d="M233.7 155.3C231.9 152 227.6 150.9 227.6 150.9C227.6 150.9 226.1 155.1 227.8 158.4C229.6 161.7 234.1 163.1 234.1 163.1C234.1 163.1 235.5 158.6 233.7 155.3Z" stroke="#0179F2" stroke-width="2" stroke-miterlimit="10"/>
<path d="M231.2 157.9L227.6 150.9" stroke="#0179F2" stroke-width="2" stroke-miterlimit="10" stroke-linecap="round"/>
<path d="M246.8 161.2C246.9 161.2 247 161.2 247.1 161.4L249.2 164.6L245.3 167.1L243.2 163.9C243.1 163.8 243.1 163.7 243.1 163.7C243.1 163.6 243.2 163.5 243.3 163.5L246.6 161.3C246.7 161.2 246.8 161.2 246.8 161.2ZM246.8 159.6C246.4 159.6 246.1 159.7 245.8 159.9L242.5 162.1C241.7 162.6 241.3 163.9 242 164.7L244.8 169.1C244.8 169.2 244.9 169.2 245 169.2H245.1L251.3 165.2C251.4 165.1 251.4 165 251.4 165L248.6 160.6C248.1 159.9 247.5 159.6 246.8 159.6Z" fill="#0179F2"/>
<path d="M250.1 165.4L251.5 167.5L247 170.5L245.6 168.3" stroke="#0179F2" stroke-width="2" stroke-miterlimit="10" stroke-linecap="round" stroke-linejoin="round"/>
<path d="M228.3 151C228.3 151 239.3 154.2 244.1 161.3" stroke="#0179F2" stroke-width="2" stroke-miterlimit="10" stroke-linecap="round"/>
<path d="M71.7 161.7C74.2 159 78.8 159.2 78.8 159.2C78.8 159.2 79.2 163.7 76.6 166.3C74.1 169 69.3 169.1 69.3 169.1C69.3 169.1 69.1 164.4 71.7 161.7Z" stroke="#0179F2" stroke-width="2" stroke-miterlimit="10"/>
<path d="M73.3 164.9L78.7 159.2" stroke="#0179F2" stroke-width="2" stroke-miterlimit="10" stroke-linecap="round"/>
<path d="M57.4 163.7C57.5 163.7 57.6 163.7 57.6 163.9L60.2 166.9C60.4 167.1 60.3 167.3 60.2 167.4L57.4 169.9L54.3 166.4L57.1 163.9C57.2 163.8 57.3 163.7 57.4 163.7ZM57.4 162.2C56.9 162.2 56.5 162.4 56.2 162.7L52.3 166.2C52.2 166.3 52.2 166.4 52.3 166.4L57.2 171.9C57.2 171.9 57.3 172 57.4 172C57.4 172 57.5 172 57.5 171.9L61.4 168.4C62.2 167.7 62.2 166.6 61.6 165.7L59 162.7C58.4 162.4 57.8 162.2 57.4 162.2Z" fill="#0179F2"/>
<path d="M53.1 167L51.2 168.7L54.8 172.7L56.7 171" stroke="#0179F2" stroke-width="2" stroke-miterlimit="10" stroke-linecap="round" stroke-linejoin="round"/>
<path d="M78 159C78 159 66.5 159.2 60 164.7" stroke="#0179F2" stroke-width="2" stroke-miterlimit="10" stroke-linecap="round"/>
<path d="M137.5 209.1H116.3V205.6H137.4L137.5 209.1Z" stroke="#0179F2" stroke-width="2" stroke-miterlimit="10" stroke-linejoin="round"/>
<path d="M134.8 201.2L135.8 205.6H118L119.1 201.2H134.8Z" stroke="#0179F2" stroke-width="2" stroke-miterlimit="10" stroke-linejoin="round"/>
<path d="M134.5 229.2H119.3L117.4 209H136.5L134.5 229.2Z" stroke="#0179F2" stroke-width="2" stroke-miterlimit="10" stroke-linejoin="round"/>
<path d="M117.6 212.4C117.9 212.3 118.2 212.3 118.5 212.3C121.1 212.3 123.3 214.5 123.3 217.1C123.3 219.7 121.1 221.9 118.5 221.9" stroke="#0179F2" stroke-width="2" stroke-miterlimit="10"/>
<path d="M12.9 176.6C17.2 180.6 17.1 187.7 17.1 187.7C17.1 187.7 10 188.3 5.6 184.3C1.3 180.3 1.1 172.8 1.1 172.8C1.1 172.8 8.6 172.6 12.9 176.6Z" stroke="#0179F2" stroke-width="2" stroke-miterlimit="10"/>
<path d="M7.9 179.3L17 187.8" stroke="#0179F2" stroke-width="2" stroke-miterlimit="10" stroke-linecap="round"/>
<path d="M57.4 53.4C60.6 56.8 60 62.4 60 62.4C60 62.4 54.4 62.5 51.2 59.1C48 55.7 48.4 49.8 48.4 49.8C48.4 49.8 54.4 49.9 57.4 53.4Z" stroke="#0179F2" stroke-width="2" stroke-miterlimit="10"/>
<path d="M53.5 55.2L60.1 62.4" stroke="#0179F2" stroke-width="2" stroke-miterlimit="10" stroke-linecap="round"/>
<path d="M232.6 46.3C226.1 50.5 224.6 59.7 224.6 59.7C224.6 59.7 233.7 62.2 240.1 58.1C240.3 57.9 240.6 57.8 240.8 57.6C247.6 52.6 240.7 41.8 233.3 45.8C233.1 46 232.9 46.2 232.6 46.3Z" stroke="#0179F2" stroke-width="2" stroke-miterlimit="10"/>
<path d="M242.2 48.5L224.6 59.7" stroke="#0179F2" stroke-width="2" stroke-miterlimit="10"/>
<path d="M238.6 45.3L238.2 51L243.6 53.1" stroke="#0179F2" stroke-width="2" stroke-miterlimit="10"/>
<path d="M235.3 45.1L234.7 53.3L242.4 56.2" stroke="#0179F2" stroke-width="2" stroke-miterlimit="10"/>
<path d="M232.2 46.6L231.5 55.3L239.6 58.4" stroke="#0179F2" stroke-width="2" stroke-miterlimit="10"/>
<path d="M229 49.7L228.5 57.2L235.5 59.9" stroke="#0179F2" stroke-width="2" stroke-miterlimit="10"/>
<path d="M251.5 12.4C251.1 8.7 247.4 6.1 247.4 6.1C247.4 6.1 244.4 9.5 244.8 13.2C245.2 16.9 248.9 19.8 248.9 19.8C248.9 19.8 251.8 16 251.5 12.4Z" stroke="#0179F2" stroke-width="2" stroke-miterlimit="10"/>
<path d="M248.2 13.8L247.4 6" stroke="#0179F2" stroke-width="2" stroke-miterlimit="10" stroke-linecap="round"/>
<path d="M149.4 9.7C147.9 13.1 149.7 17.2 149.7 17.2C149.7 17.2 154 15.8 155.5 12.4C157 9 155.3 4.6 155.3 4.6C155.3 4.6 150.8 6.3 149.4 9.7Z" stroke="#0179F2" stroke-width="2" stroke-miterlimit="10"/>
<path d="M152.8 10.1L149.7 17.2" stroke="#0179F2" stroke-width="2" stroke-miterlimit="10" stroke-linecap="round"/>
<path d="M155.7 87.8C151.4 89.6 146.3 87.1 146.3 87.1C146.3 87.1 148.1 81.8 152.4 80C156.7 78.2 162.1 80.5 162.1 80.5C162.1 80.5 159.9 86 155.7 87.8Z" stroke="#0179F2" stroke-width="2" stroke-miterlimit="10"/>
<path d="M155.4 83.3L146.3 87.1" stroke="#0179F2" stroke-width="2" stroke-miterlimit="10" stroke-linecap="round"/>
<path d="M173.8 49.2L153.8 69.1" stroke="#0179F2" stroke-width="2" stroke-miterlimit="10" stroke-linecap="round" stroke-linejoin="round"/>
<path d="M156.7 62.6V56.1" stroke="#0179F2" stroke-width="2" stroke-miterlimit="10" stroke-linecap="round" stroke-linejoin="round"/>
<path d="M160.9 58.3V51.9" stroke="#0179F2" stroke-width="2" stroke-miterlimit="10" stroke-linecap="round" stroke-linejoin="round"/>
<path d="M165.1 54.1V47.7" stroke="#0179F2" stroke-width="2" stroke-miterlimit="10" stroke-linecap="round" stroke-linejoin="round"/>
<path d="M169.3 49.9V43.6" stroke="#0179F2" stroke-width="2" stroke-miterlimit="10" stroke-linecap="round" stroke-linejoin="round"/>
<path d="M173.5 45.7V39.3" stroke="#0179F2" stroke-width="2" stroke-miterlimit="10" stroke-linecap="round" stroke-linejoin="round"/>
<path d="M160.6 66.4H167" stroke="#0179F2" stroke-width="2" stroke-miterlimit="10" stroke-linecap="round" stroke-linejoin="round"/>
<path d="M164.8 62.2H171.1" stroke="#0179F2" stroke-width="2" stroke-miterlimit="10" stroke-linecap="round" stroke-linejoin="round"/>
<path d="M169 58H175.4" stroke="#0179F2" stroke-width="2" stroke-miterlimit="10" stroke-linecap="round" stroke-linejoin="round"/>
<path d="M173.1 53.8H179.6" stroke="#0179F2" stroke-width="2" stroke-miterlimit="10" stroke-linecap="round" stroke-linejoin="round"/>
<path d="M177.4 49.6H183.7" stroke="#0179F2" stroke-width="2" stroke-miterlimit="10" stroke-linecap="round" stroke-linejoin="round"/>
<path d="M177 46L182 41" stroke="#0179F2" stroke-width="2" stroke-miterlimit="10" stroke-linecap="round" stroke-linejoin="round"/>
<path d="M171.8 37.7L173.4 39.3L175.1 37.7" stroke="#0179F2" stroke-width="2" stroke-miterlimit="10" stroke-linecap="round" stroke-linejoin="round"/>
<path d="M167.7 42L169.3 43.6L170.9 42" stroke="#0179F2" stroke-width="2" stroke-miterlimit="10" stroke-linecap="round" stroke-linejoin="round"/>
<path d="M163.4 46.1L165.1 47.7L166.7 46.1" stroke="#0179F2" stroke-width="2" stroke-miterlimit="10" stroke-linecap="round" stroke-linejoin="round"/>
<path d="M159.3 50.3L160.9 51.9L162.5 50.3" stroke="#0179F2" stroke-width="2" stroke-miterlimit="10" stroke-linecap="round" stroke-linejoin="round"/>
<path d="M155.1 54.5L156.7 56.1L158.3 54.5" stroke="#0179F2" stroke-width="2" stroke-miterlimit="10" stroke-linecap="round" stroke-linejoin="round"/>
<path d="M185.3 51.2L183.7 49.6L185.3 47.9" stroke="#0179F2" stroke-width="2" stroke-miterlimit="10" stroke-linecap="round" stroke-linejoin="round"/>
<path d="M181.1 55.4L179.5 53.8L181.1 52.2" stroke="#0179F2" stroke-width="2" stroke-miterlimit="10" stroke-linecap="round" stroke-linejoin="round"/>
<path d="M176.9 59.6L175.3 57.9L176.9 56.3" stroke="#0179F2" stroke-width="2" stroke-miterlimit="10" stroke-linecap="round" stroke-linejoin="round"/>
<path d="M172.7 63.8L171.1 62.2L172.7 60.6" stroke="#0179F2" stroke-width="2" stroke-miterlimit="10" stroke-linecap="round" stroke-linejoin="round"/>
<path d="M168.5 68L166.9 66.4L168.5 64.8" stroke="#0179F2" stroke-width="2" stroke-miterlimit="10" stroke-linecap="round" stroke-linejoin="round"/>
<path d="M181.7 39V41.3H184" stroke="#0179F2" stroke-width="2" stroke-miterlimit="10" stroke-linecap="round" stroke-linejoin="round"/>
<path d="M21.7 58.7L1.8 78.7" stroke="#0179F2" stroke-width="2" stroke-miterlimit="10" stroke-linecap="round" stroke-linejoin="round"/>
<path d="M4.6 72.1V65.7" stroke="#0179F2" stroke-width="2" stroke-miterlimit="10" stroke-linecap="round" stroke-linejoin="round"/>
<path d="M8.8 67.9V61.5" stroke="#0179F2" stroke-width="2" stroke-miterlimit="10" stroke-linecap="round" stroke-linejoin="round"/>
<path d="M13 63.7V57.3" stroke="#0179F2" stroke-width="2" stroke-miterlimit="10" stroke-linecap="round" stroke-linejoin="round"/>
<path d="M17.2 59.5V53.1" stroke="#0179F2" stroke-width="2" stroke-miterlimit="10" stroke-linecap="round" stroke-linejoin="round"/>
<path d="M21.4 55.3V48.9" stroke="#0179F2" stroke-width="2" stroke-miterlimit="10" stroke-linecap="round" stroke-linejoin="round"/>
<path d="M8.5 76H14.9" stroke="#0179F2" stroke-width="2" stroke-miterlimit="10" stroke-linecap="round" stroke-linejoin="round"/>
<path d="M12.7 71.8H19.1" stroke="#0179F2" stroke-width="2" stroke-miterlimit="10" stroke-linecap="round" stroke-linejoin="round"/>
<path d="M16.9 67.5H23.2" stroke="#0179F2" stroke-width="2" stroke-miterlimit="10" stroke-linecap="round" stroke-linejoin="round"/>
<path d="M21.1 63.4H27.5" stroke="#0179F2" stroke-width="2" stroke-miterlimit="10" stroke-linecap="round" stroke-linejoin="round"/>
<path d="M25.3 59.2H31.7" stroke="#0179F2" stroke-width="2" stroke-miterlimit="10" stroke-linecap="round" stroke-linejoin="round"/>
<path d="M24.9 55.6L29.9 50.6" stroke="#0179F2" stroke-width="2" stroke-miterlimit="10" stroke-linecap="round" stroke-linejoin="round"/>
<path d="M19.8 47.3L21.4 48.9L23 47.3" stroke="#0179F2" stroke-width="2" stroke-miterlimit="10" stroke-linecap="round" stroke-linejoin="round"/>
<path d="M15.6 51.5L17.2 53.1L18.8 51.5" stroke="#0179F2" stroke-width="2" stroke-miterlimit="10" stroke-linecap="round" stroke-linejoin="round"/>
<path d="M11.4 55.7L13 57.3L14.6 55.7" stroke="#0179F2" stroke-width="2" stroke-miterlimit="10" stroke-linecap="round" stroke-linejoin="round"/>
<path d="M7.2 59.9L8.8 61.5L10.4 59.9" stroke="#0179F2" stroke-width="2" stroke-miterlimit="10" stroke-linecap="round" stroke-linejoin="round"/>
<path d="M3 64.1L4.6 65.7L6.3 64.1" stroke="#0179F2" stroke-width="2" stroke-miterlimit="10" stroke-linecap="round" stroke-linejoin="round"/>
<path d="M33.2 60.8L31.6 59.2L33.2 57.6" stroke="#0179F2" stroke-width="2" stroke-miterlimit="10" stroke-linecap="round" stroke-linejoin="round"/>
<path d="M29 65L27.4 63.3L29 61.7" stroke="#0179F2" stroke-width="2" stroke-miterlimit="10" stroke-linecap="round" stroke-linejoin="round"/>
<path d="M24.9 69.2L23.2 67.5L24.9 65.9" stroke="#0179F2" stroke-width="2" stroke-miterlimit="10" stroke-linecap="round" stroke-linejoin="round"/>
<path d="M20.6 73.4L19 71.8L20.6 70.2" stroke="#0179F2" stroke-width="2" stroke-miterlimit="10" stroke-linecap="round" stroke-linejoin="round"/>
<path d="M16.5 77.5L14.9 75.9L16.5 74.3" stroke="#0179F2" stroke-width="2" stroke-miterlimit="10" stroke-linecap="round" stroke-linejoin="round"/>
<path d="M29.5 48.6V50.9H31.9" stroke="#0179F2" stroke-width="2" stroke-miterlimit="10" stroke-linecap="round" stroke-linejoin="round"/>
<path d="M113 29.3L117.4 36.8C118.7 39 118 41.9 115.7 43.3C113.5 44.6 110.6 43.9 109.2 41.6L104.8 34.1L111.6 36.1L113 29.3Z" stroke="#0179F2" stroke-width="2" stroke-miterlimit="10" stroke-linecap="round" stroke-linejoin="round"/>
<path d="M108.9 32.2C109.728 32.2 110.4 31.5284 110.4 30.7C110.4 29.8716 109.728 29.2 108.9 29.2C108.072 29.2 107.4 29.8716 107.4 30.7C107.4 31.5284 108.072 32.2 108.9 32.2Z" stroke="#0179F2" stroke-width="2" stroke-miterlimit="10" stroke-linecap="round" stroke-linejoin="round"/>
<path d="M104 31.2C104.828 31.2 105.5 30.5284 105.5 29.7C105.5 28.8716 104.828 28.2 104 28.2C103.172 28.2 102.5 28.8716 102.5 29.7C102.5 30.5284 103.172 31.2 104 31.2Z" stroke="#0179F2" stroke-width="2" stroke-miterlimit="10" stroke-linecap="round" stroke-linejoin="round"/>
<path d="M110.3 27.1C111.128 27.1 111.8 26.4284 111.8 25.6C111.8 24.7716 111.128 24.1 110.3 24.1C109.472 24.1 108.8 24.7716 108.8 25.6C108.8 26.4284 109.472 27.1 110.3 27.1Z" stroke="#0179F2" stroke-width="2" stroke-miterlimit="10" stroke-linecap="round" stroke-linejoin="round"/>
<path d="M29.2 8.2L33.6 15.7C34.9 17.9 34.2 20.8 31.9 22.2C29.7 23.5 26.8 22.8 25.4 20.5L21 13L27.8 15L29.2 8.2Z" stroke="#0179F2" stroke-width="2" stroke-miterlimit="10" stroke-linecap="round" stroke-linejoin="round"/>
<path d="M25.1 11.1C25.9284 11.1 26.6 10.4284 26.6 9.6C26.6 8.77157 25.9284 8.1 25.1 8.1C24.2716 8.1 23.6 8.77157 23.6 9.6C23.6 10.4284 24.2716 11.1 25.1 11.1Z" stroke="#0179F2" stroke-width="2" stroke-miterlimit="10" stroke-linecap="round" stroke-linejoin="round"/>
<path d="M20.2 10C21.0284 10 21.7 9.32843 21.7 8.5C21.7 7.67157 21.0284 7 20.2 7C19.3716 7 18.7 7.67157 18.7 8.5C18.7 9.32843 19.3716 10 20.2 10Z" stroke="#0179F2" stroke-width="2" stroke-miterlimit="10" stroke-linecap="round" stroke-linejoin="round"/>
<path d="M26.5 6C27.3284 6 28 5.32843 28 4.5C28 3.67157 27.3284 3 26.5 3C25.6716 3 25 3.67157 25 4.5C25 5.32843 25.6716 6 26.5 6Z" stroke="#0179F2" stroke-width="2" stroke-miterlimit="10" stroke-linecap="round" stroke-linejoin="round"/>
<path d="M125.9 42.5C126.728 42.5 127.4 41.8284 127.4 41C127.4 40.1716 126.728 39.5 125.9 39.5C125.072 39.5 124.4 40.1716 124.4 41C124.4 41.8284 125.072 42.5 125.9 42.5Z" stroke="#0179F2" stroke-width="2" stroke-miterlimit="10" stroke-linecap="round" stroke-linejoin="round"/>
<path d="M125.6 37.5C126.428 37.5 127.1 36.8284 127.1 36C127.1 35.1716 126.428 34.5 125.6 34.5C124.772 34.5 124.1 35.1716 124.1 36C124.1 36.8284 124.772 37.5 125.6 37.5Z" stroke="#0179F2" stroke-width="2" stroke-miterlimit="10" stroke-linecap="round" stroke-linejoin="round"/>
<path d="M131.1 42.5C131.928 42.5 132.6 41.8284 132.6 41C132.6 40.1716 131.928 39.5 131.1 39.5C130.272 39.5 129.6 40.1716 129.6 41C129.6 41.8284 130.272 42.5 131.1 42.5Z" stroke="#0179F2" stroke-width="2" stroke-miterlimit="10" stroke-linecap="round" stroke-linejoin="round"/>
<path d="M122.8 13.4C124.3 16.8 128.5 18.2 128.5 18.2C128.5 18.2 130.4 14.1 129 10.7C127.5 7.2 123.2 5.6 123.2 5.6C123.2 5.6 121.3 9.9 122.8 13.4Z" stroke="#0179F2" stroke-width="2" stroke-miterlimit="10"/>
<path d="M125.4 11L128.5 18.2" stroke="#0179F2" stroke-width="2" stroke-miterlimit="10" stroke-linecap="round"/>
<path d="M198 22.2C198.828 22.2 199.5 21.5284 199.5 20.7C199.5 19.8716 198.828 19.2 198 19.2C197.172 19.2 196.5 19.8716 196.5 20.7C196.5 21.5284 197.172 22.2 198 22.2Z" stroke="#0179F2" stroke-width="2" stroke-miterlimit="10" stroke-linecap="round" stroke-linejoin="round"/>
<path d="M203 22.5C203.828 22.5 204.5 21.8284 204.5 21C204.5 20.1716 203.828 19.5 203 19.5C202.172 19.5 201.5 20.1716 201.5 21C201.5 21.8284 202.172 22.5 203 22.5Z" stroke="#0179F2" stroke-width="2" stroke-miterlimit="10" stroke-linecap="round" stroke-linejoin="round"/>
<path d="M198 16.9C198.828 16.9 199.5 16.2284 199.5 15.4C199.5 14.5716 198.828 13.9 198 13.9C197.172 13.9 196.5 14.5716 196.5 15.4C196.5 16.2284 197.172 16.9 198 16.9Z" stroke="#0179F2" stroke-width="2" stroke-miterlimit="10" stroke-linecap="round" stroke-linejoin="round"/>
<path d="M142.4 40.6C144.9 46.7 152.5 49.2 152.5 49.2C152.5 49.2 155.9 42 153.3 35.9C150.8 29.8 143 26.8 143 26.8C143 26.8 139.8 34.6 142.4 40.6Z" stroke="#0179F2" stroke-width="2" stroke-miterlimit="10"/>
<path d="M147.1 36.4L152.5 49.2" stroke="#0179F2" stroke-width="2" stroke-miterlimit="10" stroke-linecap="round"/>
<path d="M206 58.2C198.9 56.1 191.3 60.9 191.3 60.9C191.3 60.9 195.1 69 202.2 71C209.3 73 217.5 68.5 217.5 68.5C217.5 68.5 213.1 60.2 206 58.2Z" stroke="#0179F2" stroke-width="2" stroke-miterlimit="10"/>
<path d="M206.3 65.2L191.3 60.8" stroke="#0179F2" stroke-width="2" stroke-miterlimit="10" stroke-linecap="round"/>
<path d="M202.4 43.6C203.1 47 206.8 49.1 206.8 49.1C206.8 49.1 209.3 45.7 208.5 42.3C207.8 38.9 204 36.6 204 36.6C204 36.6 201.6 40.3 202.4 43.6Z" stroke="#0179F2" stroke-width="2" stroke-miterlimit="10"/>
<path d="M205.2 42L206.7 49" stroke="#0179F2" stroke-width="2" stroke-miterlimit="10" stroke-linecap="round"/>
<path d="M230.158 29.3078L217.279 21.6188L211.077 32.0079L223.956 39.6969L230.158 29.3078Z" stroke="#0179F2" stroke-width="2" stroke-miterlimit="10" stroke-linecap="round" stroke-linejoin="round"/>
<path d="M219.6 42.2L221.6 38.8" stroke="#0179F2" stroke-width="2" stroke-miterlimit="10" stroke-linecap="round" stroke-linejoin="round"/>
<path d="M213 33.7L210.9 37" stroke="#0179F2" stroke-width="2" stroke-miterlimit="10" stroke-linecap="round" stroke-linejoin="round"/>
<path d="M230.15 25.8552L220.276 19.9603L218.79 22.4503L228.664 28.3452L230.15 25.8552Z" stroke="#0179F2" stroke-width="2" stroke-miterlimit="10" stroke-linecap="round" stroke-linejoin="round"/>
<path d="M219.9 29.3L222.2 30.7C224 31.8 224.6 34.1 223.5 35.8L221.9 38.5L213.1 33.3L214.7 30.6C215.8 28.8 218.1 28.2 219.9 29.3Z" stroke="#0179F2" stroke-width="2" stroke-miterlimit="10" stroke-linecap="round" stroke-linejoin="round"/>
<path d="M217.2 35.8C217.2 35.8 210.1 55.7 181.3 63.2" stroke="#0179F2" stroke-width="2" stroke-miterlimit="10" stroke-linecap="round" stroke-linejoin="round"/>
<path d="M85.9 63.6C93 61.5 100.6 66.3 100.6 66.3C100.6 66.3 96.8 74.4 89.7 76.4C82.6 78.4 74.4 74 74.4 74C74.4 74 78.8 65.7 85.9 63.6Z" stroke="#0179F2" stroke-width="2" stroke-miterlimit="10"/>
<path d="M85.7 70.6L100.6 66.3" stroke="#0179F2" stroke-width="2" stroke-miterlimit="10" stroke-linecap="round"/>
<path d="M89.6 49.1C88.9 52.5 85.2 54.6 85.2 54.6C85.2 54.6 82.7 51.2 83.5 47.8C84.2 44.4 88 42.1 88 42.1C88 42.1 90.3 45.7 89.6 49.1Z" stroke="#0179F2" stroke-width="2" stroke-miterlimit="10"/>
<path d="M86.7 47.4L85.2 54.5" stroke="#0179F2" stroke-width="2" stroke-miterlimit="10" stroke-linecap="round"/>
<path d="M67.9844 45.2934L80.8634 37.6044L74.6609 27.2153L61.7819 34.9043L67.9844 45.2934Z" stroke="#0179F2" stroke-width="2" stroke-miterlimit="10" stroke-linecap="round" stroke-linejoin="round"/>
<path d="M72.4 47.6L70.4 44.3" stroke="#0179F2" stroke-width="2" stroke-miterlimit="10" stroke-linecap="round" stroke-linejoin="round"/>
<path d="M79 39.1L81 42.6" stroke="#0179F2" stroke-width="2" stroke-miterlimit="10" stroke-linecap="round" stroke-linejoin="round"/>
<path d="M63.348 33.7875L73.2219 27.8926L71.7353 25.4027L61.8614 31.2976L63.348 33.7875Z" stroke="#0179F2" stroke-width="2" stroke-miterlimit="10" stroke-linecap="round" stroke-linejoin="round"/>
<path d="M72.1 34.7L69.8 36.1C68 37.2 67.4 39.5 68.5 41.2L70.1 43.9L78.9 38.7L77.2 36C76.1 34.3 73.8 33.7 72.1 34.7Z" stroke="#0179F2" stroke-width="2" stroke-miterlimit="10" stroke-linecap="round" stroke-linejoin="round"/>
<path d="M74.7 41.3C74.7 41.3 81.8 61.2 110.6 68.7" stroke="#0179F2" stroke-width="2" stroke-miterlimit="10" stroke-linecap="round" stroke-linejoin="round"/>
<path d="M44.4108 23.5796L39.5358 22.4676L39.18 24.0276L44.055 25.1396L44.4108 23.5796Z" stroke="#0179F2" stroke-width="2" stroke-miterlimit="10" stroke-linecap="round" stroke-linejoin="round"/>
<path d="M35 32.2L36.5 25.7C36.8 24.5 38 23.8 39.2 24L44.2 25.2C45.4 25.5 46.1 26.7 45.9 27.9L44.4 34.4L35 32.2Z" stroke="#0179F2" stroke-width="2" stroke-miterlimit="10" stroke-linecap="round" stroke-linejoin="round"/>
<path d="M39.5 27.4L42.3 28L41.7 30.4L38.9 29.8L39.5 27.4ZM39.5 25.9C38.9 25.9 38.3 26.4 38.1 27L37.3 30.8C37.3 30.9 37.3 31 37.4 31L42.9 32.2C43 32.2 43 32.2 43.1 32.1L43.9 28.3C44.1 27.5 43.6 26.8 42.8 26.6L39.9 25.9C39.7 25.9 39.5 25.9 39.5 25.9Z" fill="#0179F2"/>
<path d="M35.8 32.7L35 36.3L42.5 38L43.3 34.4" stroke="#0179F2" stroke-width="2" stroke-miterlimit="10" stroke-linecap="round" stroke-linejoin="round"/>
<path d="M88.5 8.3C88.5 8.3 69 -3.8 55.8 3.2C43.3 10 42 22.9 42 22.9" stroke="#0179F2" stroke-width="2" stroke-miterlimit="10" stroke-linecap="round" stroke-linejoin="round"/>
<path d="M90 24.7C90.8837 24.7 91.6 23.9837 91.6 23.1C91.6 22.2163 90.8837 21.5 90 21.5C89.1163 21.5 88.4 22.2163 88.4 23.1C88.4 23.9837 89.1163 24.7 90 24.7Z" stroke="#0179F2" stroke-width="2" stroke-miterlimit="10" stroke-linecap="round" stroke-linejoin="round"/>
<path d="M97.9 37.8L92.3 27.5" stroke="#0179F2" stroke-width="2" stroke-miterlimit="10" stroke-linecap="round" stroke-linejoin="round"/>
<path d="M89.3 27.2L92.7 28L93.6 24.7" stroke="#0179F2" stroke-width="2" stroke-miterlimit="10" stroke-linecap="round" stroke-linejoin="round"/>
<path d="M256.846 26.3816L261.78 25.5706L261.52 23.9917L256.586 24.8027L256.846 26.3816Z" stroke="#0179F2" stroke-width="2" stroke-miterlimit="10" stroke-linecap="round" stroke-linejoin="round"/>
<path d="M265.4 34L264.3 27.4C264.1 26.2 263 25.4 261.8 25.6L256.7 26.4C255.5 26.6 254.7 27.7 254.9 28.9L256 35.5L265.4 34Z" stroke="#0179F2" stroke-width="2" stroke-miterlimit="10" stroke-linecap="round" stroke-linejoin="round"/>
<path d="M261.2 28.9L261.6 31.3L258.8 31.8L258.4 29.4L261.2 28.9ZM261.3 27.3C261.2 27.3 261.1 27.3 261.1 27.3L258.1 27.8C257.3 28 256.8 28.6 256.9 29.4L257.5 33.3C257.5 33.4 257.6 33.4 257.7 33.4L263.2 32.5C263.3 32.5 263.3 32.4 263.3 32.3L262.7 28.4C262.6 27.8 262 27.3 261.3 27.3Z" fill="#0179F2"/>
<path d="M264.6 34.4L265.1 38L257.6 39.3L257 35.6" stroke="#0179F2" stroke-width="2" stroke-miterlimit="10" stroke-linecap="round" stroke-linejoin="round"/>
<path d="M212.5 8.8C212.5 8.8 232 -3.3 245.2 3.7C257.7 10.5 259 24.1 259 24.1" stroke="#0179F2" stroke-width="2" stroke-miterlimit="10" stroke-linecap="round" stroke-linejoin="round"/>
<path d="M71.7 11.7C74.2 9 78.8 9.2 78.8 9.2C78.8 9.2 79.2 13.7 76.6 16.3C74.1 19 69.3 19.1 69.3 19.1C69.3 19.1 69.1 14.4 71.7 11.7Z" stroke="#0179F2" stroke-width="2" stroke-miterlimit="10"/>
<path d="M73.3 14.8L78.7 9.1" stroke="#0179F2" stroke-width="2" stroke-miterlimit="10" stroke-linecap="round"/>
<path d="M57.4 13.7C57.5 13.7 57.6 13.7 57.6 13.9L60.2 16.9C60.4 17.1 60.3 17.3 60.2 17.4L57.4 19.9L54.3 16.4L57.1 13.9C57.2 13.7 57.3 13.7 57.4 13.7ZM57.4 12.2C56.9 12.2 56.5 12.4 56.2 12.7L52.3 16.2C52.2 16.3 52.2 16.4 52.3 16.4L57.2 21.9C57.2 21.9 57.3 22 57.4 22C57.4 22 57.5 22 57.5 21.9L61.4 18.4C62.2 17.7 62.2 16.6 61.6 15.7L59 12.7C58.4 12.4 57.8 12.2 57.4 12.2Z" fill="#0179F2"/>
<path d="M53.1 17L51.2 18.7L54.8 22.7L56.7 21" stroke="#0179F2" stroke-width="2" stroke-miterlimit="10" stroke-linecap="round" stroke-linejoin="round"/>
<path d="M78 9.1C78 9.1 66.5 9.3 60 14.8" stroke="#0179F2" stroke-width="2" stroke-miterlimit="10" stroke-linecap="round"/>
<path d="M137.5 59.1H116.3V55.6H137.4L137.5 59.1Z" stroke="#0179F2" stroke-width="2" stroke-miterlimit="10" stroke-linejoin="round"/>
<path d="M134.8 51.3L135.8 55.6H118L119.1 51.2L134.8 51.3Z" stroke="#0179F2" stroke-width="2" stroke-miterlimit="10" stroke-linejoin="round"/>
<path d="M134.5 79.2H119.3L117.4 59H136.5L134.5 79.2Z" stroke="#0179F2" stroke-width="2" stroke-miterlimit="10" stroke-linejoin="round"/>
<path d="M117.6 62.3C117.9 62.2 118.2 62.2 118.5 62.2C121.1 62.2 123.3 64.4 123.3 67C123.3 69.6 121.1 71.8 118.5 71.8" stroke="#0179F2" stroke-width="2" stroke-miterlimit="10"/>
<path d="M188.4 11.5H167.2V8.1H188.3L188.4 11.5Z" stroke="#0179F2" stroke-width="2" stroke-miterlimit="10" stroke-linejoin="round"/>
<path d="M185.7 3.7L186.7 8.1H168.9L170 3.7H185.7Z" stroke="#0179F2" stroke-width="2" stroke-miterlimit="10" stroke-linejoin="round"/>
<path d="M185.4 31.7H170.2L168.3 11.5H187.3L185.4 31.7Z" stroke="#0179F2" stroke-width="2" stroke-miterlimit="10" stroke-linejoin="round"/>
<path d="M12.5 38.2C8.3 42.4 1.1 41.8 1.1 41.8C1.1 41.8 0.9 34.6 5 30.6C9.1 26.6 16.8 26.6 16.8 26.6C16.8 26.6 16.7 34.1 12.5 38.2Z" stroke="#0179F2" stroke-width="2" stroke-miterlimit="10"/>
<path d="M10 33.1L1.1 41.8" stroke="#0179F2" stroke-width="2" stroke-miterlimit="10" stroke-linecap="round"/>
<path d="M275.8 6.5C281.9 11.4 282.4 21 282.4 21C282.4 21 272.9 22.5 266.9 17.6C266.7 17.4 266.4 17.2 266.3 17.1C259.9 11.3 268.1 1.1 275.2 6C275.4 6.1 275.6 6.3 275.8 6.5Z" stroke="#0179F2" stroke-width="2" stroke-miterlimit="10"/>
<path d="M265.9 7.6L282.4 21" stroke="#0179F2" stroke-width="2" stroke-miterlimit="10"/>
<path d="M269.8 4.7L269.7 10.6L264 12.1" stroke="#0179F2" stroke-width="2" stroke-miterlimit="10"/>
<path d="M273.2 5L272.9 13.3L264.9 15.4" stroke="#0179F2" stroke-width="2" stroke-miterlimit="10"/>
<path d="M276.3 6.8L276 15.7L267.4 17.9" stroke="#0179F2" stroke-width="2" stroke-miterlimit="10"/>
<path d="M279.1 10.3L278.8 18L271.4 20" stroke="#0179F2" stroke-width="2" stroke-miterlimit="10"/>
</g>
<defs>
<clipPath id="clip0_2_123">
<rect width="283.6" height="300.4" fill="white"/>
</clipPath>
</defs>
</svg>
