<svg width="200" height="200" viewBox="0 0 200 200" fill="none" xmlns="http://www.w3.org/2000/svg">
<path d="M147 98.2679C148.333 99.0377 148.333 100.962 147 101.732L78 141.569C76.6667 142.339 75 141.377 75 139.837V60.1628C75 58.6232 76.6667 57.661 78 58.4308L147 98.2679Z" fill="white"/>
<path fill-rule="evenodd" clip-rule="evenodd" d="M100 200C155.228 200 200 155.228 200 100C200 44.7715 155.228 0 100 0C44.7715 0 0 44.7715 0 100C0 155.228 44.7715 200 100 200ZM100 195C152.467 195 195 152.467 195 100C195 47.5329 152.467 5 100 5C47.5329 5 5 47.5329 5 100C5 152.467 47.5329 195 100 195Z" fill="white"/>
</svg>
