<svg width="540" height="378" viewBox="0 0 540 378" fill="none" xmlns="http://www.w3.org/2000/svg">
<g clip-path="url(#clip0_2_1412)">
<path d="M157.114 207.837C167.356 215.489 182.585 212.42 182.585 212.42C182.585 212.42 181.21 196.945 170.969 189.293C160.728 181.641 144.597 184.037 144.597 184.037C144.597 184.037 146.873 200.185 157.114 207.837Z" stroke="#0D85FF" stroke-width="2.66667" stroke-miterlimit="10"/>
<path d="M160.951 196.256L182.586 212.42" stroke="#0D85FF" stroke-width="2.66667" stroke-miterlimit="10" stroke-linecap="round"/>
<path d="M85.6127 252.917C91.0553 258.819 90.1233 268.531 90.1233 268.531C90.1233 268.531 80.3673 268.673 74.926 262.771C69.4833 256.869 69.9353 246.637 69.9353 246.637C69.9353 246.637 80.17 247.014 85.6127 252.917V252.917Z" stroke="#0D85FF" stroke-width="2.66667" stroke-miterlimit="10"/>
<path d="M78.6267 256.062L90.1227 268.53" stroke="#0D85FF" stroke-width="2.66667" stroke-miterlimit="10" stroke-linecap="round"/>
<path d="M109.843 273.904C116.467 276.37 121.348 284.974 121.348 284.974C121.348 284.974 112.003 288.363 105.38 285.898C105.143 285.81 104.91 285.715 104.682 285.612C97.5737 282.447 101.68 271.414 109.128 273.664C109.368 273.736 109.607 273.816 109.843 273.904Z" stroke="#0D85FF" stroke-width="2.66667" stroke-miterlimit="10" stroke-linecap="round" stroke-linejoin="round"/>
<path d="M110.388 280.935L121.348 284.973" stroke="#0D85FF" stroke-width="2.66667" stroke-miterlimit="10" stroke-linecap="round" stroke-linejoin="round"/>
<path d="M134.25 267.425C133.792 274.478 126.952 281.623 126.952 281.623C126.952 281.623 121.021 273.646 121.48 266.594C121.497 266.342 121.521 266.091 121.553 265.842C122.545 258.126 134.293 258.89 134.276 266.67C134.274 266.921 134.266 267.173 134.25 267.425Z" stroke="#0D85FF" stroke-width="2.66667" stroke-miterlimit="10" stroke-linecap="round" stroke-linejoin="round"/>
<path d="M127.673 269.965L126.952 281.624" stroke="#0D85FF" stroke-width="2.66667" stroke-miterlimit="10" stroke-linecap="round" stroke-linejoin="round"/>
<path d="M103.287 262.351C107.02 268.352 116.423 271.424 116.423 271.424C116.423 271.424 117.887 261.591 114.152 255.591C114.019 255.376 113.88 255.167 113.733 254.963C109.217 248.627 99.2213 254.847 102.908 261.698C103.028 261.919 103.153 262.136 103.287 262.351Z" stroke="#0D85FF" stroke-width="2.66667" stroke-miterlimit="10" stroke-linecap="round" stroke-linejoin="round"/>
<path d="M110.285 261.486L116.423 271.423" stroke="#0D85FF" stroke-width="2.66667" stroke-miterlimit="10" stroke-linecap="round" stroke-linejoin="round"/>
<path d="M176.176 236.755L193.607 280.509" stroke="#0D85FF" stroke-width="2.66667" stroke-miterlimit="10" stroke-linecap="round" stroke-linejoin="round"/>
<path d="M175.889 227.481C176.509 229.074 175.72 230.868 174.127 231.488C172.533 232.108 170.74 231.318 170.12 229.725C169.5 228.132 170.289 226.338 171.883 225.718C173.476 225.098 175.269 225.888 175.889 227.481Z" stroke="#0D85FF" stroke-width="2.66667" stroke-miterlimit="10" stroke-linecap="round" stroke-linejoin="round"/>
<path d="M187.056 234.117C187.676 235.711 186.887 237.504 185.293 238.124C183.7 238.744 181.907 237.955 181.287 236.361C180.667 234.768 181.456 232.975 183.049 232.355C184.643 231.735 186.436 232.524 187.056 234.117Z" stroke="#0D85FF" stroke-width="2.66667" stroke-miterlimit="10" stroke-linecap="round" stroke-linejoin="round"/>
<path d="M171.522 240.367C172.142 241.961 171.352 243.754 169.759 244.374C168.166 244.994 166.372 244.205 165.752 242.611C165.132 241.018 165.922 239.225 167.515 238.605C169.108 237.985 170.902 238.774 171.522 240.367Z" stroke="#0D85FF" stroke-width="2.66667" stroke-miterlimit="10" stroke-linecap="round" stroke-linejoin="round"/>
<path d="M190.919 244.047C191.539 245.64 190.749 247.433 189.156 248.053C187.563 248.673 185.769 247.884 185.149 246.291C184.529 244.697 185.319 242.904 186.912 242.284C188.505 241.664 190.299 242.453 190.919 244.047Z" stroke="#0D85FF" stroke-width="2.66667" stroke-miterlimit="10" stroke-linecap="round" stroke-linejoin="round"/>
<path d="M175.384 250.297C176.004 251.89 175.215 253.683 173.622 254.303C172.028 254.923 170.235 254.134 169.615 252.541C168.995 250.947 169.784 249.154 171.378 248.534C172.971 247.914 174.764 248.703 175.384 250.297Z" stroke="#0D85FF" stroke-width="2.66667" stroke-miterlimit="10" stroke-linecap="round" stroke-linejoin="round"/>
<path d="M194.781 253.976C195.401 255.569 194.612 257.363 193.018 257.983C191.425 258.603 189.632 257.813 189.012 256.22C188.392 254.627 189.181 252.833 190.774 252.213C192.368 251.593 194.161 252.383 194.781 253.976Z" stroke="#0D85FF" stroke-width="2.66667" stroke-miterlimit="10" stroke-linecap="round" stroke-linejoin="round"/>
<path d="M179.247 260.226C179.867 261.82 179.078 263.613 177.484 264.233C175.891 264.853 174.098 264.064 173.478 262.47C172.858 260.877 173.647 259.084 175.24 258.464C176.834 257.844 178.627 258.633 179.247 260.226Z" stroke="#0D85FF" stroke-width="2.66667" stroke-miterlimit="10" stroke-linecap="round" stroke-linejoin="round"/>
<path d="M213.943 252.472H322.979V313.437H213.943V252.472Z" fill="#FFC67E"/>
<path d="M209.428 318.945H330.093V246.48H209.428V318.945Z" stroke="#0D85FF" stroke-width="2.66667" stroke-miterlimit="10" stroke-linejoin="round"/>
<path d="M338.509 326.709H201.009V318.624H338.509V326.709Z" stroke="#0D85FF" stroke-width="2.66667" stroke-miterlimit="10" stroke-linejoin="round"/>
<path d="M215.241 253.008H324.277V313.973H215.241V253.008Z" stroke="#0D85FF" stroke-width="2.66667" stroke-miterlimit="10" stroke-linejoin="round"/>
<path d="M256.775 319.038C256.775 320.302 257.809 321.335 259.073 322.578H280.447C281.71 321.335 282.745 320.302 282.745 319.038" stroke="#0D85FF" stroke-width="2.66667" stroke-miterlimit="10" stroke-linejoin="round"/>
<path d="M231.767 263.989L229.344 269.479" stroke="#0D85FF" stroke-width="2.4" stroke-miterlimit="10" stroke-linecap="round" stroke-linejoin="round"/>
<path d="M237.326 263.989L234.903 269.479" stroke="#0D85FF" stroke-width="2.4" stroke-miterlimit="10" stroke-linecap="round" stroke-linejoin="round"/>
<path d="M242.885 263.989L240.462 269.479" stroke="#0D85FF" stroke-width="2.4" stroke-miterlimit="10" stroke-linecap="round" stroke-linejoin="round"/>
<path d="M248.444 263.989L246.021 269.479" stroke="#0D85FF" stroke-width="2.4" stroke-miterlimit="10" stroke-linecap="round" stroke-linejoin="round"/>
<path d="M231.767 285.963L229.344 291.454" stroke="#0D85FF" stroke-width="2.4" stroke-miterlimit="10" stroke-linecap="round" stroke-linejoin="round"/>
<path d="M237.407 285.963L234.984 291.454" stroke="#0D85FF" stroke-width="2.4" stroke-miterlimit="10" stroke-linecap="round" stroke-linejoin="round"/>
<path d="M243.046 285.963L240.623 291.454" stroke="#0D85FF" stroke-width="2.4" stroke-miterlimit="10" stroke-linecap="round" stroke-linejoin="round"/>
<path d="M248.686 285.963L246.263 291.454" stroke="#0D85FF" stroke-width="2.4" stroke-miterlimit="10" stroke-linecap="round" stroke-linejoin="round"/>
<path d="M254.325 285.963L251.902 291.454" stroke="#0D85FF" stroke-width="2.4" stroke-miterlimit="10" stroke-linecap="round" stroke-linejoin="round"/>
<path d="M259.965 285.963L257.542 291.454" stroke="#0D85FF" stroke-width="2.4" stroke-miterlimit="10" stroke-linecap="round" stroke-linejoin="round"/>
<path d="M265.604 285.963L263.181 291.454" stroke="#0D85FF" stroke-width="2.4" stroke-miterlimit="10" stroke-linecap="round" stroke-linejoin="round"/>
<path d="M231.767 296.95L229.344 302.441" stroke="#0D85FF" stroke-width="2.4" stroke-miterlimit="10" stroke-linecap="round" stroke-linejoin="round"/>
<path d="M236.917 296.95L234.494 302.441" stroke="#0D85FF" stroke-width="2.4" stroke-miterlimit="10" stroke-linecap="round" stroke-linejoin="round"/>
<path d="M242.067 296.95L239.644 302.441" stroke="#0D85FF" stroke-width="2.4" stroke-miterlimit="10" stroke-linecap="round" stroke-linejoin="round"/>
<path d="M247.216 296.95L244.794 302.441" stroke="#0D85FF" stroke-width="2.4" stroke-miterlimit="10" stroke-linecap="round" stroke-linejoin="round"/>
<path d="M252.366 296.95L249.943 302.441" stroke="#0D85FF" stroke-width="2.4" stroke-miterlimit="10" stroke-linecap="round" stroke-linejoin="round"/>
<path d="M257.516 296.95L255.093 302.441" stroke="#0D85FF" stroke-width="2.4" stroke-miterlimit="10" stroke-linecap="round" stroke-linejoin="round"/>
<path d="M262.666 296.95L260.243 302.441" stroke="#0D85FF" stroke-width="2.4" stroke-miterlimit="10" stroke-linecap="round" stroke-linejoin="round"/>
<path d="M267.815 296.95L265.393 302.441" stroke="#0D85FF" stroke-width="2.4" stroke-miterlimit="10" stroke-linecap="round" stroke-linejoin="round"/>
<path d="M272.965 296.95L270.543 302.441" stroke="#0D85FF" stroke-width="2.4" stroke-miterlimit="10" stroke-linecap="round" stroke-linejoin="round"/>
<path d="M278.115 296.95L275.692 302.441" stroke="#0D85FF" stroke-width="2.4" stroke-miterlimit="10" stroke-linecap="round" stroke-linejoin="round"/>
<path d="M231.767 275.148L229.344 280.639" stroke="#0D85FF" stroke-width="2.4" stroke-miterlimit="10" stroke-linecap="round" stroke-linejoin="round"/>
<path d="M237.04 275.117L234.617 280.607" stroke="#0D85FF" stroke-width="2.4" stroke-miterlimit="10" stroke-linecap="round" stroke-linejoin="round"/>
<path d="M242.313 275.085L239.89 280.576" stroke="#0D85FF" stroke-width="2.4" stroke-miterlimit="10" stroke-linecap="round" stroke-linejoin="round"/>
<path d="M247.586 275.054L245.163 280.545" stroke="#0D85FF" stroke-width="2.4" stroke-miterlimit="10" stroke-linecap="round" stroke-linejoin="round"/>
<path d="M252.859 275.023L250.436 280.513" stroke="#0D85FF" stroke-width="2.4" stroke-miterlimit="10" stroke-linecap="round" stroke-linejoin="round"/>
<path d="M258.132 274.991L255.709 280.482" stroke="#0D85FF" stroke-width="2.4" stroke-miterlimit="10" stroke-linecap="round" stroke-linejoin="round"/>
<path d="M263.405 274.96L260.982 280.451" stroke="#0D85FF" stroke-width="2.4" stroke-miterlimit="10" stroke-linecap="round" stroke-linejoin="round"/>
<path d="M268.678 274.929L266.255 280.42" stroke="#0D85FF" stroke-width="2.4" stroke-miterlimit="10" stroke-linecap="round" stroke-linejoin="round"/>
<path d="M273.951 274.898L271.528 280.388" stroke="#0D85FF" stroke-width="2.4" stroke-miterlimit="10" stroke-linecap="round" stroke-linejoin="round"/>
<path d="M279.224 274.866L276.801 280.357" stroke="#0D85FF" stroke-width="2.4" stroke-miterlimit="10" stroke-linecap="round" stroke-linejoin="round"/>
<path d="M284.497 274.835L282.074 280.326" stroke="#0D85FF" stroke-width="2.4" stroke-miterlimit="10" stroke-linecap="round" stroke-linejoin="round"/>
<path d="M289.77 274.804L287.347 280.295" stroke="#0D85FF" stroke-width="2.4" stroke-miterlimit="10" stroke-linecap="round" stroke-linejoin="round"/>
<path d="M169.2 270.6C184.372 278.102 189.881 297.918 189.881 297.918C189.881 297.918 170.791 305.572 155.619 298.072C155.077 297.804 154.545 297.52 154.025 297.22C137.873 287.931 150.368 262.659 167.556 269.851C168.109 270.083 168.659 270.332 169.2 270.6Z" stroke="#0D85FF" stroke-width="2.66667" stroke-miterlimit="10"/>
<path d="M148.855 277.635L189.881 297.918" stroke="#0D85FF" stroke-width="2.66667" stroke-miterlimit="10"/>
<path d="M155.843 269.826L158.113 282.213L146.892 287.93" stroke="#0D85FF" stroke-width="2.66667" stroke-miterlimit="10"/>
<path d="M163.055 268.628L166.285 286.252L150.32 294.387" stroke="#0D85FF" stroke-width="2.66667" stroke-miterlimit="10"/>
<path d="M170.296 271.175L173.884 290.009L156.742 298.594" stroke="#0D85FF" stroke-width="2.66667" stroke-miterlimit="10"/>
<path d="M177.913 277.058L180.853 293.454L166.041 301.074" stroke="#0D85FF" stroke-width="2.66667" stroke-miterlimit="10"/>
<path d="M427.662 262.673C416.378 269.877 413.753 285.934 413.753 285.934C413.753 285.934 429.422 290.31 440.708 283.105C441.11 282.847 441.504 282.578 441.888 282.298C453.788 273.603 441.786 254.806 428.89 261.942C428.476 262.171 428.065 262.415 427.662 262.673Z" stroke="#0D85FF" stroke-width="2.66667" stroke-miterlimit="10"/>
<path d="M444.266 266.453L413.753 285.934" stroke="#0D85FF" stroke-width="2.66667" stroke-miterlimit="10"/>
<path d="M438.099 260.913L437.38 270.849L446.696 274.379" stroke="#0D85FF" stroke-width="2.66667" stroke-miterlimit="10"/>
<path d="M432.325 260.593L431.302 274.73L444.557 279.751" stroke="#0D85FF" stroke-width="2.66667" stroke-miterlimit="10"/>
<path d="M426.85 263.219L425.651 278.338L439.87 283.613" stroke="#0D85FF" stroke-width="2.66667" stroke-miterlimit="10"/>
<path d="M421.367 268.501L420.467 281.646L432.771 286.362" stroke="#0D85FF" stroke-width="2.66667" stroke-miterlimit="10"/>
<path d="M434.387 236.83C431.756 242.709 434.946 249.856 434.946 249.856C434.946 249.856 442.4 247.472 445.031 241.593C447.662 235.714 444.703 228.05 444.703 228.05C444.703 228.05 437.018 230.952 434.387 236.83Z" stroke="#0D85FF" stroke-width="2.66667" stroke-miterlimit="10"/>
<path d="M440.503 237.438L434.945 249.857" stroke="#0D85FF" stroke-width="2.66667" stroke-miterlimit="10" stroke-linecap="round"/>
<path d="M358.938 194.637C356.307 200.515 359.497 207.662 359.497 207.662C359.497 207.662 366.951 205.278 369.582 199.399C372.213 193.521 369.254 185.857 369.254 185.857C369.254 185.857 361.569 188.758 358.938 194.637Z" stroke="#0D85FF" stroke-width="2.66667" stroke-miterlimit="10"/>
<path d="M365.054 195.244L359.496 207.663" stroke="#0D85FF" stroke-width="2.66667" stroke-miterlimit="10" stroke-linecap="round"/>
<path d="M382.48 301.675C375.054 304.728 366.27 300.48 366.27 300.48C366.27 300.48 369.526 291.283 376.952 288.23C384.377 285.178 393.814 289.156 393.814 289.156C393.814 289.156 389.905 298.622 382.48 301.675Z" stroke="#0D85FF" stroke-width="2.66667" stroke-miterlimit="10"/>
<path d="M381.956 294.031L366.271 300.481" stroke="#0D85FF" stroke-width="2.66667" stroke-miterlimit="10" stroke-linecap="round"/>
<path d="M361.468 224.439C361.344 230.537 355.722 236.963 355.722 236.963C355.722 236.963 350.3 230.312 350.426 224.213C350.43 223.996 350.44 223.779 350.459 223.563C351.016 216.871 361.176 217.077 361.46 223.788C361.47 224.004 361.472 224.221 361.468 224.439Z" stroke="#0D85FF" stroke-width="2.66667" stroke-miterlimit="10" stroke-linecap="round" stroke-linejoin="round"/>
<path d="M355.895 226.883L355.721 236.963" stroke="#0D85FF" stroke-width="2.66667" stroke-miterlimit="10" stroke-linecap="round" stroke-linejoin="round"/>
<path d="M373.604 242.969C367.726 244.601 359.957 241.061 359.957 241.061C359.957 241.061 364.77 233.959 370.648 232.327C370.858 232.268 371.069 232.217 371.281 232.172C377.852 230.785 380.57 240.576 374.225 242.775C374.021 242.847 373.813 242.911 373.604 242.969Z" stroke="#0D85FF" stroke-width="2.66667" stroke-miterlimit="10" stroke-linecap="round" stroke-linejoin="round"/>
<path d="M369.662 238.332L359.957 241.061" stroke="#0D85FF" stroke-width="2.66667" stroke-miterlimit="10" stroke-linecap="round" stroke-linejoin="round"/>
<path d="M371.17 214.947C367.342 219.697 367.514 228.233 367.514 228.233C367.514 228.233 375.942 226.629 379.77 221.878C379.907 221.709 380.038 221.535 380.162 221.359C384.04 215.875 376.128 209.499 371.594 214.454C371.448 214.613 371.307 214.778 371.17 214.947Z" stroke="#0D85FF" stroke-width="2.66667" stroke-miterlimit="10" stroke-linecap="round" stroke-linejoin="round"/>
<path d="M373.865 220.404L367.513 228.233" stroke="#0D85FF" stroke-width="2.66667" stroke-miterlimit="10" stroke-linecap="round" stroke-linejoin="round"/>
<path d="M403.022 245.891L368.405 280.508" stroke="#0D85FF" stroke-width="2.66667" stroke-miterlimit="10" stroke-linecap="round" stroke-linejoin="round"/>
<path d="M373.314 269.07V257.995" stroke="#0D85FF" stroke-width="2.66667" stroke-miterlimit="10" stroke-linecap="round" stroke-linejoin="round"/>
<path d="M380.6 261.784V250.709" stroke="#0D85FF" stroke-width="2.66667" stroke-miterlimit="10" stroke-linecap="round" stroke-linejoin="round"/>
<path d="M387.886 254.497V243.423" stroke="#0D85FF" stroke-width="2.66667" stroke-miterlimit="10" stroke-linecap="round" stroke-linejoin="round"/>
<path d="M395.172 247.211V236.137" stroke="#0D85FF" stroke-width="2.66667" stroke-miterlimit="10" stroke-linecap="round" stroke-linejoin="round"/>
<path d="M402.458 239.925V228.851" stroke="#0D85FF" stroke-width="2.66667" stroke-miterlimit="10" stroke-linecap="round" stroke-linejoin="round"/>
<path d="M380.042 275.798H391.117" stroke="#0D85FF" stroke-width="2.66667" stroke-miterlimit="10" stroke-linecap="round" stroke-linejoin="round"/>
<path d="M387.328 268.512H398.403" stroke="#0D85FF" stroke-width="2.66667" stroke-miterlimit="10" stroke-linecap="round" stroke-linejoin="round"/>
<path d="M394.615 261.226H405.689" stroke="#0D85FF" stroke-width="2.66667" stroke-miterlimit="10" stroke-linecap="round" stroke-linejoin="round"/>
<path d="M401.901 253.94H412.975" stroke="#0D85FF" stroke-width="2.66667" stroke-miterlimit="10" stroke-linecap="round" stroke-linejoin="round"/>
<path d="M409.187 246.653H420.261" stroke="#0D85FF" stroke-width="2.66667" stroke-miterlimit="10" stroke-linecap="round" stroke-linejoin="round"/>
<path d="M408.492 240.421L417.187 231.727" stroke="#0D85FF" stroke-width="2.66667" stroke-miterlimit="10" stroke-linecap="round" stroke-linejoin="round"/>
<path d="M399.613 226.09L402.416 228.893L405.218 226.09" stroke="#0D85FF" stroke-width="2.66667" stroke-miterlimit="10" stroke-linecap="round" stroke-linejoin="round"/>
<path d="M392.337 233.366L395.14 236.168L397.943 233.366" stroke="#0D85FF" stroke-width="2.66667" stroke-miterlimit="10" stroke-linecap="round" stroke-linejoin="round"/>
<path d="M385.062 240.641L387.865 243.444L390.667 240.641" stroke="#0D85FF" stroke-width="2.66667" stroke-miterlimit="10" stroke-linecap="round" stroke-linejoin="round"/>
<path d="M377.787 247.917L380.589 250.719L383.392 247.917" stroke="#0D85FF" stroke-width="2.66667" stroke-miterlimit="10" stroke-linecap="round" stroke-linejoin="round"/>
<path d="M370.511 255.192L373.314 257.995L376.117 255.192" stroke="#0D85FF" stroke-width="2.66667" stroke-miterlimit="10" stroke-linecap="round" stroke-linejoin="round"/>
<path d="M422.969 249.447L420.167 246.644L422.969 243.841" stroke="#0D85FF" stroke-width="2.66667" stroke-miterlimit="10" stroke-linecap="round" stroke-linejoin="round"/>
<path d="M415.694 256.722L412.891 253.919L415.694 251.117" stroke="#0D85FF" stroke-width="2.66667" stroke-miterlimit="10" stroke-linecap="round" stroke-linejoin="round"/>
<path d="M408.419 263.998L405.616 261.195L408.419 258.392" stroke="#0D85FF" stroke-width="2.66667" stroke-miterlimit="10" stroke-linecap="round" stroke-linejoin="round"/>
<path d="M401.143 271.273L398.34 268.47L401.143 265.668" stroke="#0D85FF" stroke-width="2.66667" stroke-miterlimit="10" stroke-linecap="round" stroke-linejoin="round"/>
<path d="M393.868 278.548L391.065 275.746L393.868 272.943" stroke="#0D85FF" stroke-width="2.66667" stroke-miterlimit="10" stroke-linecap="round" stroke-linejoin="round"/>
<path d="M416.649 228.347V232.311H420.613" stroke="#0D85FF" stroke-width="2.66667" stroke-miterlimit="10" stroke-linecap="round" stroke-linejoin="round"/>
<path d="M127.332 225.85L134.967 238.74C137.272 242.632 135.973 247.701 132.083 250.005C128.192 252.31 123.123 251.013 120.817 247.121L113.183 234.232L124.907 237.718L127.332 225.85Z" stroke="#0D85FF" stroke-width="2.66667" stroke-miterlimit="10" stroke-linecap="round" stroke-linejoin="round"/>
<path d="M123.024 228.374C122.971 229.851 121.73 231.006 120.251 230.952C118.774 230.899 117.619 229.658 117.672 228.179C117.726 226.702 118.967 225.547 120.446 225.6C121.923 225.654 123.078 226.896 123.024 228.374Z" stroke="#0D85FF" stroke-width="2.66667" stroke-miterlimit="10" stroke-linecap="round" stroke-linejoin="round"/>
<path d="M114.514 226.508C114.461 227.986 113.219 229.14 111.741 229.087C110.263 229.034 109.109 227.792 109.162 226.314C109.215 224.836 110.457 223.682 111.935 223.735C113.413 223.788 114.567 225.031 114.514 226.508Z" stroke="#0D85FF" stroke-width="2.66667" stroke-miterlimit="10" stroke-linecap="round" stroke-linejoin="round"/>
<path d="M125.338 219.547C125.285 221.024 124.044 222.179 122.565 222.126C121.088 222.072 119.933 220.831 119.986 219.352C120.04 217.875 121.281 216.72 122.76 216.774C124.237 216.827 125.392 218.07 125.338 219.547Z" stroke="#0D85FF" stroke-width="2.66667" stroke-miterlimit="10" stroke-linecap="round" stroke-linejoin="round"/>
<path d="M345.109 301.438C343.667 301.766 342.231 300.865 341.903 299.422C341.574 297.981 342.477 296.545 343.918 296.217C345.361 295.887 346.795 296.79 347.125 298.233C347.453 299.674 346.55 301.11 345.109 301.438Z" stroke="#0D85FF" stroke-width="2.66667" stroke-miterlimit="10" stroke-linecap="round" stroke-linejoin="round"/>
<path d="M344.72 292.734C343.279 293.062 341.843 292.161 341.515 290.718C341.186 289.277 342.088 287.841 343.53 287.513C344.972 287.184 346.407 288.086 346.736 289.529C347.064 290.97 346.162 292.406 344.72 292.734Z" stroke="#0D85FF" stroke-width="2.66667" stroke-miterlimit="10" stroke-linecap="round" stroke-linejoin="round"/>
<path d="M354.234 301.402C352.792 301.73 351.356 300.828 351.028 299.386C350.699 297.944 351.602 296.508 353.043 296.18C354.486 295.851 355.92 296.754 356.25 298.196C356.578 299.638 355.675 301.074 354.234 301.402Z" stroke="#0D85FF" stroke-width="2.66667" stroke-miterlimit="10" stroke-linecap="round" stroke-linejoin="round"/>
<path d="M146.495 243.953C149.018 249.878 156.428 252.398 156.428 252.398C156.428 252.398 159.747 245.31 157.224 239.385C154.702 233.46 147.07 230.418 147.07 230.418C147.07 230.418 143.972 238.028 146.495 243.953Z" stroke="#0D85FF" stroke-width="2.66667" stroke-miterlimit="10"/>
<path d="M151.098 239.881L156.428 252.398" stroke="#0D85FF" stroke-width="2.66667" stroke-miterlimit="10" stroke-linecap="round"/>
<path d="M384.155 200.941C383.827 202.383 384.728 203.819 386.171 204.147C387.612 204.476 389.048 203.573 389.376 202.132C389.705 200.689 388.803 199.255 387.36 198.925C385.919 198.597 384.483 199.5 384.155 200.941Z" stroke="#0D85FF" stroke-width="2.66667" stroke-miterlimit="10" stroke-linecap="round" stroke-linejoin="round"/>
<path d="M392.858 201.33C392.53 202.771 393.431 204.207 394.874 204.535C396.315 204.864 397.751 203.962 398.079 202.52C398.409 201.078 397.506 199.643 396.063 199.314C394.622 198.986 393.186 199.888 392.858 201.33Z" stroke="#0D85FF" stroke-width="2.66667" stroke-miterlimit="10" stroke-linecap="round" stroke-linejoin="round"/>
<path d="M384.191 191.817C383.863 193.258 384.764 194.694 386.207 195.022C387.648 195.351 389.084 194.449 389.412 193.007C389.741 191.565 388.839 190.13 387.396 189.801C385.955 189.473 384.519 190.375 384.191 191.817Z" stroke="#0D85FF" stroke-width="2.66667" stroke-miterlimit="10" stroke-linecap="round" stroke-linejoin="round"/>
<path d="M342.02 266.854C346.463 277.341 359.557 281.821 359.557 281.821C359.557 281.821 365.451 269.297 361.008 258.811C356.565 248.324 343.08 242.921 343.08 242.921C343.08 242.921 337.577 256.368 342.02 266.854Z" stroke="#0D85FF" stroke-width="2.66667" stroke-miterlimit="10"/>
<path d="M350.174 259.668L359.558 281.821" stroke="#0D85FF" stroke-width="2.66667" stroke-miterlimit="10" stroke-linecap="round"/>
<path d="M492.28 310.849C479.523 311.68 469.933 323.903 469.933 323.903C469.933 323.903 481.027 334.779 493.784 333.948C506.541 333.117 517.254 320.821 517.254 320.821C517.254 320.821 505.037 310.019 492.28 310.849V310.849Z" stroke="#0D85FF" stroke-width="2.66667" stroke-miterlimit="10"/>
<path d="M496.882 322.148L469.933 323.903" stroke="#0D85FF" stroke-width="2.66667" stroke-miterlimit="10" stroke-linecap="round"/>
<path d="M477.693 289.304C480.879 294.353 488.034 295.563 488.034 295.563C488.034 295.563 490.023 288.585 486.837 283.535C483.651 278.486 476.216 276.832 476.216 276.832C476.216 276.832 474.507 284.254 477.693 289.304Z" stroke="#0D85FF" stroke-width="2.66667" stroke-miterlimit="10"/>
<path d="M481.303 284.896L488.033 295.562" stroke="#0D85FF" stroke-width="2.66667" stroke-miterlimit="10" stroke-linecap="round"/>
<path d="M488.951 244.644L514.425 249.521L510.471 270.175L484.997 265.298L488.951 244.644Z" stroke="#0D85FF" stroke-width="2.66667" stroke-miterlimit="10" stroke-linecap="round" stroke-linejoin="round"/>
<path d="M504.846 276.818L506.151 270.006" stroke="#0D85FF" stroke-width="2.66667" stroke-miterlimit="10" stroke-linecap="round" stroke-linejoin="round"/>
<path d="M489.075 266.736L487.77 273.548" stroke="#0D85FF" stroke-width="2.66667" stroke-miterlimit="10" stroke-linecap="round" stroke-linejoin="round"/>
<path d="M492.856 240.168L512.45 243.92L511.486 248.959L491.892 245.206L492.856 240.168Z" stroke="#0D85FF" stroke-width="2.66667" stroke-miterlimit="10" stroke-linecap="round" stroke-linejoin="round"/>
<path d="M497.701 255.543L502.269 256.417C505.8 257.094 508.114 260.505 507.438 264.035L506.412 269.398L489.056 266.075L490.084 260.712C490.76 257.181 494.17 254.867 497.701 255.543Z" stroke="#0D85FF" stroke-width="2.66667" stroke-miterlimit="10" stroke-linecap="round" stroke-linejoin="round"/>
<path d="M497.274 267.831C497.274 267.831 497.613 304.493 455.025 333.849" stroke="#0D85FF" stroke-width="2.66667" stroke-miterlimit="10" stroke-linecap="round" stroke-linejoin="round"/>
<path d="M47.2409 310.845C59.9982 311.676 69.5882 323.899 69.5882 323.899C69.5882 323.899 58.494 334.775 45.7367 333.944C32.9795 333.113 22.2669 320.817 22.2669 320.817C22.2669 320.817 34.4837 310.015 47.2409 310.845V310.845Z" stroke="#0D85FF" stroke-width="2.66667" stroke-miterlimit="10"/>
<path d="M42.639 322.144L69.588 323.899" stroke="#0D85FF" stroke-width="2.66667" stroke-miterlimit="10" stroke-linecap="round"/>
<path d="M61.8275 289.3C58.6416 294.349 51.487 295.559 51.487 295.559C51.487 295.559 49.4978 288.581 52.6837 283.531C55.8695 278.482 63.305 276.828 63.305 276.828C63.305 276.828 65.0133 284.25 61.8275 289.3V289.3Z" stroke="#0D85FF" stroke-width="2.66667" stroke-miterlimit="10"/>
<path d="M58.2173 284.892L51.4872 295.558" stroke="#0D85FF" stroke-width="2.66667" stroke-miterlimit="10" stroke-linecap="round"/>
<path d="M50.5692 244.64L25.0954 249.517L29.0498 270.171L54.5236 265.294L50.5692 244.64Z" stroke="#0D85FF" stroke-width="2.66667" stroke-miterlimit="10" stroke-linecap="round" stroke-linejoin="round"/>
<path d="M34.6751 276.814L33.3701 270.002" stroke="#0D85FF" stroke-width="2.66667" stroke-miterlimit="10" stroke-linecap="round" stroke-linejoin="round"/>
<path d="M50.4457 266.732L51.7506 273.544" stroke="#0D85FF" stroke-width="2.66667" stroke-miterlimit="10" stroke-linecap="round" stroke-linejoin="round"/>
<path d="M46.6642 240.164L27.0701 243.915L28.0342 248.954L47.6287 245.202L46.6642 240.164Z" stroke="#0D85FF" stroke-width="2.66667" stroke-miterlimit="10" stroke-linecap="round" stroke-linejoin="round"/>
<path d="M41.8197 255.539L37.2518 256.413C33.7206 257.09 31.4067 260.5 32.0826 264.031L33.1091 269.394L50.4643 266.07L49.4366 260.707C48.7607 257.177 45.3505 254.863 41.8197 255.539Z" stroke="#0D85FF" stroke-width="2.66667" stroke-miterlimit="10" stroke-linecap="round" stroke-linejoin="round"/>
<path d="M42.2471 267.827C42.2471 267.827 41.9076 304.488 84.4955 333.845" stroke="#0D85FF" stroke-width="2.66667" stroke-miterlimit="10" stroke-linecap="round" stroke-linejoin="round"/>
<path d="M201.242 350.026H331.87" stroke="#0D85FF" stroke-width="2.66667" stroke-miterlimit="10" stroke-linejoin="round"/>
<path d="M251.456 365.796H275.367" stroke="#0D85FF" stroke-width="2.66667" stroke-miterlimit="10" stroke-linejoin="round"/>
<path d="M57.2369 350.026H99.4369" stroke="#0D85FF" stroke-width="2.66667" stroke-miterlimit="10" stroke-linejoin="round"/>
<path d="M437.139 350.026H479.339" stroke="#0D85FF" stroke-width="2.66667" stroke-miterlimit="10" stroke-linejoin="round"/>
<path d="M107.326 319.726C107.862 319.617 108.416 319.56 108.984 319.56C113.53 319.56 117.215 323.244 117.215 327.789C117.215 332.334 113.53 336.02 108.984 336.02" fill="#FFC67E"/>
<path d="M140.853 314.14H104.071V308.156H140.798C140.829 308.156 140.853 308.18 140.853 308.21V314.14Z" stroke="#0D85FF" stroke-width="2.66667" stroke-miterlimit="10" stroke-linejoin="round"/>
<path d="M136.055 300.522L137.919 308.155H107.004L108.874 300.477L136.055 300.522Z" stroke="#0D85FF" stroke-width="2.66667" stroke-miterlimit="10" stroke-linejoin="round"/>
<path d="M135.68 349.018H109.244L105.95 314.014H138.973L135.68 349.018Z" stroke="#0D85FF" stroke-width="2.66667" stroke-miterlimit="10" stroke-linejoin="round"/>
<path d="M106.249 319.79C106.785 319.681 107.339 319.624 107.907 319.624C112.453 319.624 116.138 323.308 116.138 327.853C116.138 332.398 112.453 336.084 107.907 336.084" stroke="#0D85FF" stroke-width="2.66667" stroke-miterlimit="10"/>
<path d="M186.598 340.918H149.816V334.934H186.543C186.574 334.934 186.598 334.958 186.598 334.988V340.918Z" stroke="#0D85FF" stroke-width="2.66667" stroke-miterlimit="10" stroke-linejoin="round"/>
<path d="M181.8 327.3L183.664 334.934H152.749L154.619 327.255L181.8 327.3Z" stroke="#0D85FF" stroke-width="2.66667" stroke-miterlimit="10" stroke-linejoin="round"/>
<path d="M181.425 375.796H154.989L151.695 340.792H184.718L181.425 375.796Z" stroke="#0D85FF" stroke-width="2.66667" stroke-miterlimit="10" stroke-linejoin="round"/>
<path d="M421.46 330.5C421.46 335.045 417.774 338.731 413.229 338.731C408.684 338.731 405 335.045 405 330.5C405 325.955 408.684 322.269 413.229 322.269C417.774 322.269 421.46 325.955 421.46 330.5Z" fill="#FFC67E"/>
<path d="M421.983 330.431C421.983 334.976 418.297 338.661 413.752 338.661C409.207 338.661 405.523 334.976 405.523 330.431C405.523 325.886 409.207 322.2 413.752 322.2C418.297 322.2 421.983 325.886 421.983 330.431Z" stroke="#0D85FF" stroke-width="2.66667" stroke-miterlimit="10"/>
<path d="M395.359 314.14H432.14V308.156H395.414C395.383 308.156 395.359 308.18 395.359 308.21V314.14Z" stroke="#0D85FF" stroke-width="2.66667" stroke-miterlimit="10" stroke-linejoin="round"/>
<path d="M400.157 300.522L398.293 308.155H429.207L427.338 300.477L400.157 300.522Z" stroke="#0D85FF" stroke-width="2.66667" stroke-miterlimit="10" stroke-linejoin="round"/>
<path d="M400.532 349.018H426.968L430.261 314.014H397.239L400.532 349.018Z" stroke="#0D85FF" stroke-width="2.66667" stroke-miterlimit="10" stroke-linejoin="round"/>
<path d="M349.614 340.918H386.395V334.934H349.669C349.638 334.934 349.614 334.958 349.614 334.988V340.918Z" stroke="#0D85FF" stroke-width="2.66667" stroke-miterlimit="10" stroke-linejoin="round"/>
<path d="M354.412 327.3L352.548 334.934H383.462L381.593 327.255L354.412 327.3Z" stroke="#0D85FF" stroke-width="2.66667" stroke-miterlimit="10" stroke-linejoin="round"/>
<path d="M354.787 375.796H381.223L384.516 340.792H351.494L354.787 375.796Z" stroke="#0D85FF" stroke-width="2.66667" stroke-miterlimit="10" stroke-linejoin="round"/>
<path d="M219.58 196.281L225.367 182.327H228.325L214.179 216.215V227.34H211.349V216.215L197.265 182.327H213.793L219.58 196.281Z" fill="#FFC67E"/>
<path d="M249.865 224.189C244.142 222.196 239.511 217.759 237.454 211.907L263.883 185.477C269.606 187.535 274.171 191.972 276.23 197.824L249.865 224.189ZM256.874 181.555C244.078 181.555 233.467 191.651 233.467 204.833C233.467 218.016 244.078 228.112 256.874 228.112C269.67 228.112 280.281 218.016 280.281 204.833C280.281 191.651 269.67 181.555 256.874 181.555" fill="#FFC67E"/>
<path d="M307.927 224.639C309.663 225.154 311.592 225.411 313.585 225.411C323.811 225.411 331.976 217.759 331.976 207.47V182.327H334.807V206.955C334.807 219.623 325.417 228.112 313.585 228.112C301.753 228.112 292.365 219.623 292.365 206.955V182.327H307.927V224.639Z" fill="#FFC67E"/>
<path d="M212.884 212.653L218.248 199.854L212.044 184.987H201.379L212.884 212.653ZM219.736 196.299L225.552 182.274H228.525L214.305 216.337V227.518H211.463V216.337L197.307 182.274H213.919L219.736 196.299Z" fill="#0D85FF"/>
<path d="M277.517 200.759L253.085 225.191C254.377 225.45 255.799 225.579 257.221 225.579C268.533 225.579 277.905 216.725 277.905 204.897C277.905 203.474 277.776 202.117 277.517 200.759ZM250.176 224.351L276.741 197.786C274.673 191.903 270.019 187.445 264.267 185.441L237.701 212.006C239.769 217.889 244.424 222.347 250.176 224.351V224.351ZM236.925 209.033L261.359 184.601C260.001 184.342 258.644 184.213 257.221 184.213C245.909 184.213 236.539 193.067 236.539 204.897C236.539 206.318 236.667 207.739 236.925 209.033V209.033ZM257.221 228.294C244.359 228.294 233.693 218.146 233.693 204.897C233.693 191.645 244.359 181.498 257.221 181.498C270.084 181.498 280.749 191.645 280.749 204.897C280.749 218.146 270.084 228.294 257.221 228.294" fill="#0D85FF"/>
<path d="M305.694 223.641V184.988H295.739V207.546C295.739 214.785 299.747 220.732 305.694 223.641ZM308.538 224.804C310.283 225.321 312.222 225.58 314.226 225.58C324.503 225.58 332.711 217.889 332.711 207.546V182.274H335.555V207.029C335.555 219.762 326.119 228.294 314.226 228.294C302.333 228.294 292.895 219.762 292.895 207.029V182.274H308.538V224.804Z" fill="#0D85FF"/>
<path d="M214.996 162.625H254.451" stroke="#0D85FF" stroke-width="2.66667" stroke-miterlimit="10" stroke-linecap="round" stroke-linejoin="round"/>
<path d="M261.908 159.161C259.978 156.417 260.9 152.447 260.9 152.447C260.9 152.447 264.948 152.924 266.877 155.669C268.805 158.413 268.054 162.625 268.054 162.625C268.054 162.625 263.837 161.905 261.908 159.161V159.161Z" stroke="#0D85FF" stroke-width="2.66667" stroke-miterlimit="10"/>
<path d="M276.667 160.082C274.503 162.645 270.429 162.764 270.429 162.764C270.429 162.764 269.863 158.726 272.027 156.164C274.191 153.601 278.457 153.257 278.457 153.257C278.457 153.257 278.831 157.52 276.667 160.082Z" stroke="#0D85FF" stroke-width="2.66667" stroke-miterlimit="10"/>
<path d="M272.064 153.953C271.886 156.696 269.258 158.758 269.258 158.758C269.258 158.758 266.92 156.374 267.097 153.632C267.274 150.889 269.917 148.584 269.917 148.584C269.917 148.584 272.241 151.21 272.064 153.953V153.953Z" stroke="#0D85FF" stroke-width="2.66667" stroke-miterlimit="10"/>
<path d="M283.736 162.625H324.524" stroke="#0D85FF" stroke-width="2.66667" stroke-miterlimit="10" stroke-linecap="round" stroke-linejoin="round"/>
<path d="M176.461 104.801L168.53 108.88L189.997 150.627L174.644 158.52L153.177 116.776L145.246 120.853L143.877 118.189L175.09 102.137L176.461 104.801Z" fill="#FFC67E"/>
<path d="M192.024 95.0561L208.544 90.0415L217.642 120.008L231.295 115.864L222.198 85.8948L225.202 84.9841L239.708 132.771L236.704 133.681L232.167 118.731L218.512 122.876L223.052 137.827L206.531 142.843L192.024 95.0561Z" fill="#FFC67E"/>
<path d="M255.331 119.814L261.236 105.222L267.39 119.742L255.331 119.814ZM268.642 79.1312L247.76 130.35L251.042 130.329L254.136 122.749L268.62 122.661L271.806 130.203L290.143 130.091L268.642 79.1312Z" fill="#FFC67E"/>
<path d="M341.252 93.0145L344.254 93.9345L329.624 141.689L326.623 140.771L328.839 133.539L309.283 105.535L300.904 132.891L297.902 131.973L312.866 83.1252L334.732 114.3L341.252 93.0145Z" fill="#FFC67E"/>
<path d="M367.162 104.498L381.937 113.433L370.714 131.992C371.448 132.436 372.204 132.977 372.84 133.442L391.949 119.486L394.82 121.222L375.034 135.604C379.58 140.77 381.526 147.616 376.912 155.248L370.932 165.137L368.246 163.514L374.336 153.44C378.582 146.42 375.881 138.617 369.165 134.554L356.097 156.168L341.322 147.236L367.162 104.498Z" fill="#FFC67E"/>
<path d="M155.796 114.993L175.997 154.275L185.817 149.226L165.617 109.945L155.796 114.993ZM143.641 117.857L175.017 101.723L176.395 104.401L168.423 108.501L190 150.462L174.568 158.397L152.991 116.437L145.019 120.534L143.641 117.857Z" fill="#0D85FF"/>
<path d="M208.763 138.838L219.331 135.631L206.499 93.3616L195.931 96.5696L208.763 138.838ZM192.038 94.6043L208.643 89.5643L217.788 119.686L231.511 115.52L222.367 85.3963L225.386 84.4803L239.967 132.514L236.948 133.428L232.387 118.402L218.663 122.568L223.226 137.595L206.62 142.638L192.038 94.6043Z" fill="#0D85FF"/>
<path d="M263.232 100.867L274.22 126.909L286.054 126.837L269.099 86.4888L263.232 100.867ZM255.671 119.49L267.791 119.417L261.607 104.823L255.671 119.49ZM290.663 129.821L272.231 129.933L269.028 122.35L254.47 122.439L251.36 130.059L248.062 130.079L269.051 78.5981L290.663 129.821Z" fill="#0D85FF"/>
<path d="M310.952 101.709L330.65 129.721L334.39 117.514L314.732 89.366L310.952 101.709ZM342.035 92.5527L345.052 93.4767L330.347 141.478L327.331 140.555L329.558 133.286L309.902 105.137L301.479 132.634L298.46 131.711L313.502 82.6127L335.48 113.947L342.035 92.5527Z" fill="#0D85FF"/>
<path d="M346.365 146.106L355.815 151.82L378.671 114.022L369.222 108.304L346.365 146.106ZM368.079 104.095L382.93 113.076L371.65 131.731C372.386 132.176 373.146 132.72 373.785 133.188L392.994 119.16L395.878 120.906L375.991 135.36C380.561 140.555 382.517 147.435 377.879 155.106L371.867 165.047L369.169 163.415L375.29 153.29C379.558 146.234 376.842 138.39 370.091 134.306L356.957 156.031L342.106 147.052L368.079 104.095Z" fill="#0D85FF"/>
<path d="M45.5729 152.449C51.9716 151.72 56.4983 145.336 56.4983 145.336C56.4983 145.336 50.6516 140.133 44.2529 140.863C37.8529 141.592 32.7636 148.041 32.7636 148.041C32.7636 148.041 39.1743 153.179 45.5729 152.449V152.449Z" stroke="#0D85FF" stroke-width="2.66667" stroke-miterlimit="10"/>
<path d="M42.9816 146.876L56.4989 145.335" stroke="#0D85FF" stroke-width="2.66667" stroke-miterlimit="10" stroke-linecap="round"/>
<path d="M31.5989 106.295C31.5496 106.295 31.4989 106.309 31.4536 106.337L20.4709 113.053C20.3389 113.134 20.2976 113.306 20.3789 113.438L25.0909 121.143C25.7056 122.149 26.7816 122.703 27.8816 122.703C28.4629 122.703 29.0496 122.549 29.5803 122.225L35.4683 118.623C37.0043 117.685 37.4896 115.67 36.5509 114.134L31.8376 106.429C31.7856 106.343 31.6936 106.295 31.5989 106.295ZM30.8083 109.857L34.2749 115.526C34.3816 115.699 34.3723 115.867 34.3456 115.978C34.3189 116.089 34.2509 116.243 34.0776 116.349L28.1896 119.95C28.0949 120.007 27.9909 120.037 27.8816 120.037C27.8016 120.037 27.5283 120.017 27.3656 119.751L23.8989 114.082L30.8083 109.857" fill="#0D85FF"/>
<path d="M22.3351 112.491L20.0244 108.714L27.9777 103.85L30.2871 107.627" stroke="#0D85FF" stroke-width="2.66667" stroke-miterlimit="10" stroke-linecap="round" stroke-linejoin="round"/>
<path d="M66.3651 151.418C66.3651 151.418 44.9744 140.498 31.7491 119.895" stroke="#0D85FF" stroke-width="2.66667" stroke-miterlimit="10" stroke-linecap="round"/>
<path d="M21.8309 171.728C23.3576 172.077 24.3123 173.598 23.9616 175.125C23.6123 176.652 22.0909 177.606 20.5643 177.256C19.0376 176.906 18.0843 175.385 18.4336 173.858C18.7829 172.332 20.3043 171.378 21.8309 171.728Z" stroke="#0D85FF" stroke-width="2.66667" stroke-miterlimit="10" stroke-linecap="round" stroke-linejoin="round"/>
<path d="M49.7124 169.734L29.6084 173.074" stroke="#0D85FF" stroke-width="2.66667" stroke-miterlimit="10" stroke-linecap="round" stroke-linejoin="round"/>
<path d="M27.4697 177.884L30.7897 172.772L25.6777 169.451" stroke="#0D85FF" stroke-width="2.66667" stroke-miterlimit="10" stroke-linecap="round" stroke-linejoin="round"/>
<path d="M96.2905 152.169C96.2905 152.169 98.5799 138.497 91.4545 129.589C84.3292 120.679 69.8612 119.125 69.8612 119.125C69.8612 119.125 68.6025 134.041 76.3452 142.422C84.0879 150.802 96.2905 152.169 96.2905 152.169Z" fill="#FFC67E"/>
<path d="M53.8789 192.05L62.3043 193.971L62.9189 191.277L54.4936 189.355L53.8789 192.05Z" stroke="#0D85FF" stroke-width="2.66667" stroke-miterlimit="10" stroke-linecap="round" stroke-linejoin="round"/>
<path d="M46.5605 206.278L49.1485 194.932C49.6192 192.871 51.6912 191.568 53.7525 192.039L62.4232 194.016C64.4845 194.487 65.7872 196.559 65.3165 198.622L62.7299 209.966L46.5605 206.278Z" stroke="#0D85FF" stroke-width="2.66667" stroke-miterlimit="10" stroke-linecap="round" stroke-linejoin="round"/>
<path d="M54.3232 195.278C53.1939 195.278 52.1699 196.058 51.9086 197.204L50.3846 203.887C50.3579 204 50.4299 204.115 50.5432 204.14L60.0672 206.312C60.0832 206.316 60.0992 206.319 60.1139 206.319C60.2112 206.319 60.2992 206.252 60.3206 206.154L61.8459 199.471C62.1499 198.139 61.3126 196.808 59.9806 196.504L54.8739 195.34C54.6899 195.298 54.5046 195.278 54.3232 195.278ZM54.4659 197.982L59.2032 199.063L58.2672 203.167L53.5299 202.087L54.4659 197.982" fill="#0D85FF"/>
<path d="M48.026 207.207L46.622 213.362L59.578 216.316L60.982 210.162" stroke="#0D85FF" stroke-width="2.66667" stroke-miterlimit="10" stroke-linecap="round" stroke-linejoin="round"/>
<path d="M75.858 142.59C83.326 151.114 97.098 151.264 97.098 151.264C97.098 151.264 98.7607 137.592 91.2927 129.068C83.8247 120.544 69.3953 119.645 69.3953 119.645C69.3953 119.645 68.39 134.066 75.858 142.59V142.59Z" stroke="#0D85FF" stroke-width="2.66667" stroke-miterlimit="10"/>
<path d="M81.3215 133.257L97.0975 151.263" stroke="#0D85FF" stroke-width="2.66667" stroke-miterlimit="10" stroke-linecap="round"/>
<path d="M139.425 164.771C139.425 164.771 105.554 143.68 82.7716 155.977C60.9823 167.739 58.7983 190.083 58.7983 190.083" stroke="#0D85FF" stroke-width="2.66667" stroke-miterlimit="10" stroke-linecap="round" stroke-linejoin="round"/>
<path d="M110.157 171.621C114.598 166.957 122.421 167.196 122.421 167.196C122.421 167.196 123.043 174.999 118.602 179.663C114.161 184.327 105.947 184.497 105.947 184.497C105.947 184.497 105.715 176.285 110.157 171.621V171.621Z" stroke="#0D85FF" stroke-width="2.66667" stroke-miterlimit="10"/>
<path d="M113.039 177.049L122.421 167.196" stroke="#0D85FF" stroke-width="2.66667" stroke-miterlimit="10" stroke-linecap="round"/>
<path d="M85.372 172.493C84.604 172.493 83.8333 172.761 83.2133 173.309L76.4413 179.285C76.3253 179.386 76.3147 179.564 76.416 179.68L84.9333 189.332C84.988 189.394 85.0653 189.426 85.1427 189.426C85.2093 189.426 85.2747 189.404 85.328 189.357L92.1013 183.381C93.4507 182.189 93.58 180.122 92.3893 178.772L87.8227 173.597C87.1773 172.866 86.2773 172.493 85.372 172.493ZM85.372 175.16C85.4747 175.16 85.668 175.186 85.8227 175.361L90.3893 180.536C90.608 180.784 90.584 181.162 90.336 181.381L85.3533 185.778L79.9947 179.705L84.9773 175.308C85.116 175.185 85.2693 175.16 85.372 175.16Z" fill="#0D85FF"/>
<path d="M78.032 180.765L74.712 183.694L80.8787 190.685L84.2 187.754" stroke="#0D85FF" stroke-width="2.66667" stroke-miterlimit="10" stroke-linecap="round" stroke-linejoin="round"/>
<path d="M121.143 166.988C121.143 166.988 101.214 167.268 89.8829 176.829" stroke="#0D85FF" stroke-width="2.66667" stroke-miterlimit="10" stroke-linecap="round"/>
<path d="M101.368 78.1797L109.59 79.1051L109.029 84.0691L100.806 83.1451L101.368 78.1797Z" stroke="#0D85FF" stroke-width="2.66667" stroke-miterlimit="10"/>
<path d="M99.7067 77.993L102.839 50.1476L114.383 51.445L111.251 79.2916L99.7067 77.993Z" stroke="#0D85FF" stroke-width="2.66667" stroke-miterlimit="10"/>
<path d="M112.541 65.3373L101.549 64.1013" stroke="#0D85FF" stroke-width="2.66667" stroke-miterlimit="10"/>
<path d="M110.39 55.8179L110.866 51.5859" stroke="#0D85FF" stroke-width="2.66667" stroke-miterlimit="10"/>
<path d="M105.761 55.2972L106.237 51.0652" stroke="#0D85FF" stroke-width="2.66667" stroke-miterlimit="10"/>
<path d="M111.026 101.377C106.735 108.047 109.295 117.336 109.295 117.336C109.295 117.336 118.811 115.813 123.1 109.145C127.391 102.476 125.208 92.5987 125.208 92.5987C125.208 92.5987 115.316 94.708 111.026 101.377Z" stroke="#0D85FF" stroke-width="2.66667" stroke-miterlimit="10"/>
<path d="M118.358 103.249L109.295 117.337" stroke="#0D85FF" stroke-width="2.66667" stroke-miterlimit="10" stroke-linecap="round"/>
<path d="M104.845 82.2136C104.845 82.2136 98.5968 113.715 121.586 138.575" stroke="#0D85FF" stroke-width="2.66667" stroke-miterlimit="10"/>
<path d="M62.8096 90.3941C66.351 95.7728 74.0923 96.9275 74.0923 96.9275C74.0923 96.9275 76.091 89.3595 72.5483 83.9808C69.007 78.6021 60.955 76.9755 60.955 76.9755C60.955 76.9755 59.2683 85.0155 62.8096 90.3941Z" stroke="#0D85FF" stroke-width="2.66667" stroke-miterlimit="10"/>
<path d="M66.6104 85.5644L74.0931 96.9271" stroke="#0D85FF" stroke-width="2.66667" stroke-miterlimit="10" stroke-linecap="round"/>
<path d="M70.2813 102.992C70.2853 104.47 69.0907 105.673 67.612 105.678C66.1333 105.682 64.9307 104.487 64.9253 103.009C64.9213 101.529 66.116 100.326 67.5947 100.322C69.0747 100.318 70.2773 101.513 70.2813 102.992Z" stroke="#0D85FF" stroke-width="2.66667" stroke-miterlimit="10" stroke-linecap="round" stroke-linejoin="round"/>
<path d="M148.809 138.318C148.813 139.796 147.619 140.999 146.14 141.004C144.661 141.008 143.459 139.814 143.453 138.335C143.449 136.855 144.644 135.652 146.123 135.648C147.603 135.644 148.805 136.839 148.809 138.318Z" stroke="#0D85FF" stroke-width="2.66667" stroke-miterlimit="10" stroke-linecap="round" stroke-linejoin="round"/>
<path d="M422.165 171.91C419.149 166.219 411.552 164.336 411.552 164.336C411.552 164.336 408.845 171.68 411.861 177.371C414.877 183.062 422.74 185.444 422.74 185.444C422.74 185.444 425.181 177.6 422.165 171.91V171.91Z" stroke="#0D85FF" stroke-width="2.66667" stroke-miterlimit="10"/>
<path d="M417.924 176.357L411.553 164.337" stroke="#0D85FF" stroke-width="2.66667" stroke-miterlimit="10" stroke-linecap="round"/>
<path d="M444.905 179.321C444.297 179.321 443.684 179.49 443.137 179.844L437.341 183.594C435.831 184.572 435.396 186.597 436.375 188.109L441.281 195.692C441.335 195.774 441.424 195.82 441.516 195.82C441.568 195.82 441.621 195.805 441.668 195.774L452.476 188.781C452.605 188.697 452.643 188.525 452.559 188.394L447.652 180.812C447.028 179.846 445.977 179.321 444.905 179.321ZM444.905 181.988C444.983 181.988 445.249 182.008 445.413 182.26L449.023 187.84L442.224 192.24L438.613 186.66C438.503 186.489 438.508 186.321 438.532 186.21C438.556 186.098 438.62 185.942 438.791 185.833L444.585 182.082C444.683 182.02 444.791 181.988 444.905 181.988Z" fill="#0D85FF"/>
<path d="M450.627 189.39L453.032 193.108L445.205 198.172L442.8 194.454" stroke="#0D85FF" stroke-width="2.66667" stroke-miterlimit="10" stroke-linecap="round" stroke-linejoin="round"/>
<path d="M412.839 164.481C412.839 164.481 431.952 170.133 440.279 182.4" stroke="#0D85FF" stroke-width="2.66667" stroke-miterlimit="10" stroke-linecap="round"/>
<path d="M442.311 149.302C442.311 149.302 456.174 149.403 463.845 140.962C471.517 132.519 470.769 117.987 470.769 117.987C470.769 117.987 455.839 119.099 448.787 128.069C441.734 137.037 442.311 149.302 442.311 149.302Z" fill="#FFC67E"/>
<path d="M486.07 192.729L477.542 194.131L477.094 191.403L485.622 190.001L486.07 192.729Z" stroke="#0D85FF" stroke-width="2.66667" stroke-miterlimit="10" stroke-linecap="round" stroke-linejoin="round"/>
<path d="M492.502 207.379L490.615 195.896C490.273 193.81 488.283 192.383 486.197 192.726L477.422 194.167C475.334 194.511 473.907 196.499 474.25 198.586L476.138 210.068L492.502 207.379Z" stroke="#0D85FF" stroke-width="2.66667" stroke-miterlimit="10" stroke-linecap="round" stroke-linejoin="round"/>
<path d="M485.278 195.919C485.145 195.919 485.01 195.93 484.875 195.952L479.707 196.802C478.359 197.023 477.442 198.3 477.663 199.648L478.775 206.411C478.793 206.515 478.882 206.588 478.985 206.588C478.995 206.588 479.007 206.588 479.019 206.586L488.658 205.002C488.773 204.983 488.851 204.874 488.833 204.758L487.722 197.995C487.522 196.783 486.469 195.919 485.278 195.919ZM485.121 198.614L485.803 202.768L481.009 203.556L480.326 199.402L485.121 198.614" fill="#0D85FF"/>
<path d="M490.982 208.217L492.006 214.445L478.893 216.601L477.87 210.371" stroke="#0D85FF" stroke-width="2.66667" stroke-miterlimit="10" stroke-linecap="round" stroke-linejoin="round"/>
<path d="M464.221 141.59C456.753 150.114 442.981 150.264 442.981 150.264C442.981 150.264 441.319 136.592 448.787 128.068C456.255 119.544 470.684 118.645 470.684 118.645C470.684 118.645 471.689 133.066 464.221 141.59Z" stroke="#0D85FF" stroke-width="2.66667" stroke-miterlimit="10"/>
<path d="M458.758 132.257L442.982 150.263" stroke="#0D85FF" stroke-width="2.66667" stroke-miterlimit="10" stroke-linecap="round"/>
<path d="M400.654 163.771C400.654 163.771 434.525 142.68 457.308 154.977C479.097 166.739 481.281 190.464 481.281 190.464" stroke="#0D85FF" stroke-width="2.66667" stroke-miterlimit="10" stroke-linecap="round" stroke-linejoin="round"/>
<path d="M517.689 168.734C516.162 169.083 515.208 170.605 515.558 172.131C515.908 173.658 517.429 174.613 518.956 174.262C520.482 173.913 521.436 172.391 521.086 170.865C520.737 169.338 519.216 168.385 517.689 168.734Z" stroke="#0D85FF" stroke-width="2.66667" stroke-miterlimit="10" stroke-linecap="round" stroke-linejoin="round"/>
<path d="M489.808 166.74L509.912 170.08" stroke="#0D85FF" stroke-width="2.66667" stroke-miterlimit="10" stroke-linecap="round" stroke-linejoin="round"/>
<path d="M512.05 174.891L508.73 169.779L513.842 166.457" stroke="#0D85FF" stroke-width="2.66667" stroke-miterlimit="10" stroke-linecap="round" stroke-linejoin="round"/>
<path d="M496.289 135.88C489.86 135.497 484.302 141.008 484.302 141.008C484.302 141.008 489.168 147.137 495.596 147.52C502.025 147.903 508.149 142.427 508.149 142.427C508.149 142.427 502.718 136.263 496.289 135.88Z" stroke="#0D85FF" stroke-width="2.66667" stroke-miterlimit="10"/>
<path d="M497.883 141.816L484.303 141.008" stroke="#0D85FF" stroke-width="2.66667" stroke-miterlimit="10" stroke-linecap="round"/>
<path d="M505.495 105.295C505.401 105.295 505.309 105.343 505.257 105.429L500.543 113.134C499.605 114.67 500.09 116.685 501.626 117.623L507.514 121.225C508.045 121.549 508.631 121.703 509.213 121.703C510.313 121.703 511.389 121.149 512.003 120.143L516.715 112.438C516.797 112.306 516.755 112.134 516.623 112.053L505.641 105.337C505.595 105.309 505.545 105.295 505.495 105.295ZM506.286 108.857L513.195 113.082L509.729 118.751C509.566 119.017 509.293 119.037 509.213 119.037C509.103 119.037 509.001 119.007 508.906 118.95L503.017 115.349C502.735 115.177 502.647 114.807 502.819 114.526L506.286 108.857" fill="#0D85FF"/>
<path d="M514.759 111.491L517.07 107.714L509.117 102.85L506.807 106.627" stroke="#0D85FF" stroke-width="2.66667" stroke-miterlimit="10" stroke-linecap="round" stroke-linejoin="round"/>
<path d="M470.729 150.418C470.729 150.418 492.12 139.498 505.345 118.895" stroke="#0D85FF" stroke-width="2.66667" stroke-miterlimit="10" stroke-linecap="round"/>
<path d="M421.587 100.39C425.492 105.512 433.295 106.126 433.295 106.126C433.295 106.126 434.764 98.4395 430.859 93.3182C426.953 88.1982 418.808 87.1315 418.808 87.1315C418.808 87.1315 417.681 95.2688 421.587 100.39V100.39Z" stroke="#0D85FF" stroke-width="2.66667" stroke-miterlimit="10"/>
<path d="M425.044 95.309L433.295 106.126" stroke="#0D85FF" stroke-width="2.66667" stroke-miterlimit="10" stroke-linecap="round"/>
<path d="M438.152 77.1797L429.93 78.1051L430.491 83.0691L438.714 82.1451L438.152 77.1797Z" stroke="#0D85FF" stroke-width="2.66667" stroke-miterlimit="10"/>
<path d="M439.813 76.993L436.681 49.1476L425.137 50.445L428.269 78.2916L439.813 76.993Z" stroke="#0D85FF" stroke-width="2.66667" stroke-miterlimit="10"/>
<path d="M426.979 64.3373L437.971 63.1013" stroke="#0D85FF" stroke-width="2.66667" stroke-miterlimit="10"/>
<path d="M429.13 54.8179L428.654 50.5859" stroke="#0D85FF" stroke-width="2.66667" stroke-miterlimit="10"/>
<path d="M433.759 54.2972L433.283 50.0652" stroke="#0D85FF" stroke-width="2.66667" stroke-miterlimit="10"/>
<path d="M434.675 81.2136C434.675 81.2136 440.923 112.715 417.934 137.575" stroke="#0D85FF" stroke-width="2.66667" stroke-miterlimit="10"/>
<path d="M449.24 94.0024C445.835 99.4691 448.024 106.984 448.024 106.984C448.024 106.984 455.733 105.634 459.139 100.168C462.543 94.7011 460.655 86.7064 460.655 86.7064C460.655 86.7064 452.645 88.5358 449.24 94.0024Z" stroke="#0D85FF" stroke-width="2.66667" stroke-miterlimit="10"/>
<path d="M455.217 95.4354L448.023 106.983" stroke="#0D85FF" stroke-width="2.66667" stroke-miterlimit="10" stroke-linecap="round"/>
<path d="M396.066 137.318C396.07 138.796 394.876 139.999 393.397 140.004C391.918 140.008 390.716 138.814 390.71 137.335C390.706 135.855 391.901 134.652 393.38 134.648C394.86 134.644 396.062 135.839 396.066 137.318Z" stroke="#0D85FF" stroke-width="2.66667" stroke-miterlimit="10" stroke-linecap="round" stroke-linejoin="round"/>
<path d="M487.467 96.8362C487.471 98.3148 486.277 99.5175 484.798 99.5228C483.319 99.5268 482.117 98.3322 482.111 96.8535C482.107 95.3735 483.302 94.1708 484.781 94.1668C486.261 94.1628 487.463 95.3575 487.467 96.8362Z" stroke="#0D85FF" stroke-width="2.66667" stroke-miterlimit="10" stroke-linecap="round" stroke-linejoin="round"/>
<path d="M193.29 54.288C199.499 55.996 206.079 51.7587 206.079 51.7587C206.079 51.7587 202.591 44.752 196.382 43.044C190.173 41.336 183.046 45.424 183.046 45.424C183.046 45.424 187.081 52.58 193.29 54.288Z" stroke="#0D85FF" stroke-width="2.66667" stroke-miterlimit="10"/>
<path d="M192.962 48.1508L206.08 51.7588" stroke="#0D85FF" stroke-width="2.66667" stroke-miterlimit="10" stroke-linecap="round"/>
<path d="M216.534 48.5827C216.538 50.0613 215.343 51.264 213.865 51.2693C212.386 51.2733 211.183 50.0787 211.178 48.6C211.174 47.12 212.369 45.9173 213.847 45.9133C215.327 45.9093 216.53 47.104 216.534 48.5827Z" stroke="#0D85FF" stroke-width="2.66667" stroke-miterlimit="10" stroke-linecap="round" stroke-linejoin="round"/>
<path d="M243.543 40.5155C239.651 44.8648 240.434 51.9141 240.434 51.9141C240.434 51.9141 247.527 51.9115 251.419 47.5621C255.311 43.2128 254.87 35.7808 254.87 35.7808C254.87 35.7808 247.435 36.1661 243.543 40.5155Z" stroke="#0D85FF" stroke-width="2.66667" stroke-miterlimit="10"/>
<path d="M248.656 42.7263L240.434 51.9143" stroke="#0D85FF" stroke-width="2.66667" stroke-miterlimit="10" stroke-linecap="round"/>
<path d="M236.774 33.2583C236.774 33.2583 245.639 58.8849 233.962 74.7409" stroke="#0D85FF" stroke-width="2.66667" stroke-miterlimit="10"/>
<path d="M231.609 11.554L238.983 22.954C241.209 26.3953 240.215 31.0327 236.773 33.258C233.332 35.4847 228.695 34.49 226.469 31.0487L219.095 19.6487L229.837 22.3873L231.609 11.554Z" stroke="#0D85FF" stroke-width="2.66667" stroke-miterlimit="10" stroke-linecap="round" stroke-linejoin="round"/>
<path d="M226.465 12.6594C226.469 13.9994 225.386 15.09 224.046 15.094C222.705 15.098 221.616 14.0154 221.612 12.674C221.608 11.334 222.69 10.2447 224.03 10.2407C225.37 10.2354 226.461 11.3194 226.465 12.6594Z" stroke="#0D85FF" stroke-width="2.66667" stroke-miterlimit="10" stroke-linecap="round" stroke-linejoin="round"/>
<path d="M218.692 11.274C218.696 12.614 217.613 13.7047 216.273 13.7087C214.932 13.7127 213.843 12.63 213.839 11.2887C213.835 9.9487 214.917 8.85937 216.257 8.85537C217.597 8.85003 218.688 9.93403 218.692 11.274Z" stroke="#0D85FF" stroke-width="2.66667" stroke-miterlimit="10" stroke-linecap="round" stroke-linejoin="round"/>
<path d="M228.246 4.58375C228.25 5.92375 227.167 7.01442 225.827 7.01842C224.486 7.02242 223.396 5.93975 223.392 4.59842C223.388 3.25842 224.471 2.16909 225.811 2.16509C227.151 2.15975 228.242 3.24375 228.246 4.58375Z" stroke="#0D85FF" stroke-width="2.66667" stroke-miterlimit="10" stroke-linecap="round" stroke-linejoin="round"/>
<path d="M272.438 37.935C272.442 39.4136 271.247 40.6163 269.768 40.6216C268.29 40.6256 267.087 39.431 267.082 37.9523C267.078 36.4723 268.272 35.2696 269.751 35.2656C271.231 35.2603 272.434 36.4563 272.438 37.935Z" stroke="#0D85FF" stroke-width="2.66667" stroke-miterlimit="10" stroke-linecap="round" stroke-linejoin="round"/>
<path d="M282.529 38.3567C284.865 46.706 294.317 51.3593 294.317 51.3593C294.317 51.3593 299.982 42.4767 297.646 34.1273C295.31 25.778 285.653 20.3887 285.653 20.3887C285.653 20.3887 280.193 30.0073 282.529 38.3567Z" stroke="#0D85FF" stroke-width="2.66667" stroke-miterlimit="10"/>
<path d="M289.383 33.7221L294.318 51.3595" stroke="#0D85FF" stroke-width="2.66667" stroke-miterlimit="10" stroke-linecap="round"/>
<path d="M291.85 71.3503C291.725 33.2863 318.402 26.6583 318.402 26.6583" stroke="#0D85FF" stroke-width="2.66667" stroke-miterlimit="10" stroke-linecap="round" stroke-linejoin="round"/>
<path d="M319.999 33.4589C318.834 36.2669 315.349 37.4883 315.349 37.4883C315.349 37.4883 313.75 34.1576 314.915 31.3496C316.081 28.5416 319.669 27.0736 319.669 27.0736C319.669 27.0736 321.165 30.6509 319.999 33.4589V33.4589Z" stroke="#0D85FF" stroke-width="2.66667" stroke-miterlimit="10"/>
<path d="M313.783 22.4518C316.795 22.8651 318.861 25.9264 318.861 25.9264C318.861 25.9264 316.045 28.3184 313.035 27.9051C310.023 27.4918 307.691 24.3931 307.691 24.3931C307.691 24.3931 310.771 22.0384 313.783 22.4518Z" stroke="#0D85FF" stroke-width="2.66667" stroke-miterlimit="10"/>
<path d="M340.556 14.1972C341.876 14.4278 342.76 15.6838 342.529 17.0052C342.3 18.3252 341.042 19.2092 339.722 18.9785C338.402 18.7478 337.518 17.4918 337.748 16.1705C337.978 14.8505 339.236 13.9665 340.556 14.1972Z" stroke="#0D85FF" stroke-width="2.66667" stroke-miterlimit="10" stroke-linecap="round" stroke-linejoin="round"/>
<path d="M334.914 21.027C336.234 21.2576 337.118 22.5136 336.888 23.835C336.658 25.155 335.401 26.039 334.081 25.8083C332.761 25.5776 331.877 24.3216 332.106 23.0003C332.337 21.6803 333.594 20.7963 334.914 21.027Z" stroke="#0D85FF" stroke-width="2.66667" stroke-miterlimit="10" stroke-linecap="round" stroke-linejoin="round"/>
<path d="M331.719 13.5767C333.039 13.8073 333.923 15.0633 333.693 16.3847C333.463 17.7047 332.206 18.5887 330.886 18.358C329.566 18.1273 328.682 16.8713 328.911 15.55C329.142 14.23 330.399 13.346 331.719 13.5767Z" stroke="#0D85FF" stroke-width="2.66667" stroke-miterlimit="10" stroke-linecap="round" stroke-linejoin="round"/>
<path d="M328.675 28.0181C329.995 28.2488 330.879 29.5048 330.649 30.8261C330.419 32.1461 329.162 33.0301 327.842 32.7995C326.522 32.5688 325.638 31.3128 325.867 29.9915C326.098 28.6715 327.355 27.7875 328.675 28.0181Z" stroke="#0D85FF" stroke-width="2.66667" stroke-miterlimit="10" stroke-linecap="round" stroke-linejoin="round"/>
<path d="M325.514 20.6479C326.834 20.8786 327.718 22.1346 327.488 23.4559C327.258 24.7759 326.001 25.6599 324.681 25.4292C323.361 25.1986 322.477 23.9426 322.706 22.6212C322.937 21.3012 324.194 20.4172 325.514 20.6479Z" stroke="#0D85FF" stroke-width="2.66667" stroke-miterlimit="10" stroke-linecap="round" stroke-linejoin="round"/>
<path d="M322.354 13.2777C323.674 13.5084 324.558 14.7644 324.327 16.0857C324.098 17.4057 322.84 18.2897 321.52 18.0591C320.2 17.8284 319.316 16.5724 319.546 15.2511C319.776 13.9311 321.034 13.0471 322.354 13.2777Z" stroke="#0D85FF" stroke-width="2.66667" stroke-miterlimit="10" stroke-linecap="round" stroke-linejoin="round"/>
<path d="M328.341 55.0398C328.345 56.5184 327.151 57.7211 325.672 57.7264C324.193 57.7304 322.991 56.5358 322.985 55.0571C322.981 53.5771 324.176 52.3744 325.655 52.3704C327.135 52.3664 328.337 53.5611 328.341 55.0398Z" stroke="#0D85FF" stroke-width="2.66667" stroke-miterlimit="10" stroke-linecap="round" stroke-linejoin="round"/>
<path d="M352.849 51.2502C346.57 52.6848 342.78 59.5315 342.78 59.5315C342.78 59.5315 349.168 64.0528 355.446 62.6182C361.725 61.1835 366.069 54.2102 366.069 54.2102C366.069 54.2102 359.128 49.8155 352.849 51.2502V51.2502Z" stroke="#0D85FF" stroke-width="2.66667" stroke-miterlimit="10"/>
<path d="M356.043 56.5013L342.78 59.532" stroke="#0D85FF" stroke-width="2.66667" stroke-miterlimit="10" stroke-linecap="round"/>
</g>
<defs>
<clipPath id="clip0_2_1412">
<rect width="539.521" height="378" fill="white"/>
</clipPath>
</defs>
</svg>
