<svg width="20" height="16" viewBox="0 0 20 16" fill="none" xmlns="http://www.w3.org/2000/svg">
<path d="M6.28961 16C13.8368 16 17.9648 9.84389 17.9648 4.50534C17.9648 4.33049 17.9648 4.15638 17.9528 3.98309C18.7558 3.4112 19.4491 2.7031 20 1.89194C19.2511 2.21866 18.4566 2.43293 17.6432 2.52759C18.4998 2.02269 19.1409 1.22857 19.4472 0.293014C18.6417 0.763557 17.7605 1.09516 16.8416 1.27352C15.5696 -0.057999 13.5485 -0.383905 11.9116 0.478613C10.2747 1.34113 9.429 3.17751 9.84878 4.95809C8.2174 4.87759 6.62145 4.46021 5.16453 3.73306C3.70761 3.00592 2.42229 1.98525 1.39202 0.737319C0.302938 2.58322 0.859228 4.94472 2.66236 6.13011C2.00939 6.11106 1.37066 5.93765 0.800057 5.62451V5.67571C0.80064 7.59882 2.17749 9.25518 4.09204 9.63598C3.48793 9.79816 2.8541 9.82185 2.23924 9.70523C2.77678 11.3509 4.31731 12.4783 6.07285 12.5108C4.61986 13.6351 2.82494 14.2454 0.976902 14.2436C0.650392 14.243 0.324198 14.2236 0 14.1854C1.87652 15.371 4.05994 15.9998 6.28961 15.9969" fill="white"/>
</svg>
